<?xml version="1.0" standalone="no"?>
<!DOCTYPE svg PUBLIC "-//W3C//DTD SVG 1.1//EN" "http://www.w3.org/Graphics/SVG/1.1/DTD/svg11.dtd" >
<svg>
<metadata>
Created by FontForge 20090914 at Thu Apr 25 21:21:06 2013
 By www-data
Copyright 1990-1993 Bitstream Inc.  All rights reserved.
</metadata>
<defs>
<font id="Aldine721BT-Roman" horiz-adv-x="1024" >
  <font-face 
    font-family="Aldine721 BT"
    font-weight="400"
    font-stretch="normal"
    units-per-em="2048"
    panose-1="2 4 6 3 5 5 6 2 4 3"
    ascent="1638"
    descent="-410"
    x-height="957.998"
    cap-height="1450"
    bbox="-344 -483 2275 1972"
    underline-thickness="125"
    underline-position="-133"
    unicode-range="U+0020-U+F002"
  />
<missing-glyph horiz-adv-x="1229" 
d="M102 -362v1806h1024v-1806h-1024zM217 -248h795v1577h-795v-1577z" />
    <glyph glyph-name=".notdef" horiz-adv-x="1229" 
d="M102 -362v1806h1024v-1806h-1024zM217 -248h795v1577h-795v-1577z" />
    <glyph glyph-name="space" unicode=" " horiz-adv-x="510" 
 />
    <glyph glyph-name="exclam" unicode="!" horiz-adv-x="688" 
d="M475 109c0 -37.333 -12.667 -69 -38 -95s-56.333 -39 -93 -39s-67.667 13 -93 39s-38 57.667 -38 95c0 36 12.833 66.833 38.5 92.5s56.5 38.5 92.5 38.5c36.667 0 67.667 -12.667 93 -38s38 -56.333 38 -93zM307 422l-67 950v21c0 32 8 54.333 24 67s44 19 84 19
c36.667 0 63.667 -7.16699 81 -21.5s26 -36.5 26 -66.5v-17l-74 -952h-74z" />
    <glyph glyph-name="quotedbl" unicode="&#x22;" horiz-adv-x="678" 
d="M518 864l-31.001 -0.000976562l-65 457c0 1.33301 -0.333008 3.33301 -1 6c-2 14.667 -3 25.667 -3 33c0 32.667 7.5 57.834 22.5 75.501s36.167 26.5 63.5 26.5c26.667 0 47.334 -8.66699 62.001 -26s22 -42 22 -74c0 -9.33301 -0.166992 -17 -0.5 -23
s-0.833008 -12 -1.5 -18zM189.999 863.999l-32.001 -0.000976562l-64 457l-3 26c-0.666992 6 -1 11 -1 15c0 32 7.33301 56.667 22 74s35.334 26 62.001 26c27.333 0 48.5 -8.66699 63.5 -26s22.5 -42 22.5 -74c0 -6 -1 -17.333 -3 -34
c-0.666992 -3.33301 -1 -5.66602 -1 -6.99902z" />
    <glyph glyph-name="numbersign" unicode="#" horiz-adv-x="1575" 
d="M700 868l-100 -286h289l102 286h-291zM778 1456h133l-168 -471h287l168 471h131l-166 -471h307l-40 -117h-310l-100 -286h332l-43 -115h-330l-166 -469h-133l166 469h-287l-166 -469h-131l166 469h-324l43 115h322l100 286h-348l43 117h348z" />
    <glyph glyph-name="dollar" unicode="$" horiz-adv-x="1020" 
d="M557 100c72 5.33301 127.833 28.5 167.5 69.5s59.5 95.833 59.5 164.5c0 48 -18.5 93.5 -55.5 136.5s-94.167 84.833 -171.5 125.5v-496zM461 -225l-0.000976562 212.999c-130.667 8.66699 -229.667 29 -297 61s-101 74.333 -101 127c0 28.667 9 51.167 27 67.5
s42.667 24.5 74 24.5c16 0 32.5 -5.66699 49.5 -17s40.833 -33.666 71.5 -66.999c0.666992 -0.666992 2.33398 -2.66699 5.00098 -6c42.667 -48 99.667 -74.667 171 -80v551c-129.333 73.333 -221.5 143 -276.5 209s-82.5 138.333 -82.5 217
c0 95.333 32.5 175.166 97.5 239.499s152.167 102.833 261.5 115.5v165h96v-159c104 -2.66699 190.833 -24 260.5 -64s104.5 -85 104.5 -135c0 -26.667 -8.16699 -49 -24.5 -67s-36.166 -27 -59.499 -27c-24 0 -46 7 -66 21s-37.667 35 -53 63
c-2 3.33301 -5.33301 9.33301 -10 18c-32.667 63.333 -83.334 96 -152.001 98v-491c145.333 -82 249.333 -160 312 -234s94 -155 94 -243c0 -99.333 -37.333 -185.166 -112 -257.499s-172.667 -116.833 -294 -133.5v-209h-96zM460.999 910.999v430
c-59.333 -14.667 -105.333 -39.334 -138 -74.001s-49 -76 -49 -124c0 -42.667 14.5 -82.167 43.5 -118.5s76.833 -74.166 143.5 -113.499z" />
    <glyph glyph-name="percent" unicode="%" horiz-adv-x="1587" 
d="M1108 391c0 -113.333 10.167 -195.5 30.5 -246.5s52.5 -76.5 96.5 -76.5c46 0 79.333 25.333 100 76s31 133.667 31 249c0 102 -10.333 177 -31 225s-52.667 72 -96 72c-46 0 -79.333 -23.667 -100 -71s-31 -123.333 -31 -228zM946 381
c0 120.667 25.5 214.332 76.5 280.999s122.5 100 214.5 100c93.333 0 165.5 -33.167 216.5 -99.5s76.5 -160.166 76.5 -281.499s-25.5 -215.166 -76.5 -281.499s-123.167 -99.5 -216.5 -99.5c-92 0 -163.5 33.167 -214.5 99.5s-76.5 160.166 -76.5 281.499zM281 -25.002
l911 1461h119l-914 -1461h-116zM221 1044c0 -113.333 10.167 -195.5 30.5 -246.5s52.5 -76.5 96.5 -76.5c46 0 79.333 25.333 100 76s31 134 31 250c0 102 -10.333 177.333 -31 226s-52.667 73 -96 73c-45.333 0 -78.5 -24 -99.5 -72s-31.5 -124.667 -31.5 -230zM59 1032
c0 121.333 25.5 215.166 76.5 281.499s122.5 99.5 214.5 99.5c92.667 0 164.334 -33 215.001 -99s76 -160 76 -282s-25.333 -216 -76 -282s-122.334 -99 -215.001 -99c-92 0 -163.5 33.333 -214.5 100s-76.5 160.334 -76.5 281.001z" />
    <glyph glyph-name="ampersand" unicode="&#x26;" horiz-adv-x="1585" 
d="M547 782c-74.667 -61.333 -128.5 -117.833 -161.5 -169.5s-49.5 -104.167 -49.5 -157.5c0 -32 6.83301 -65.667 20.5 -101s33.5 -70 59.5 -104c34 -44.667 70 -77.667 108 -99s79 -32 123 -32c44.667 0 90 11.167 136 33.5s95 56.833 147 103.5l-84 117zM668 985
c58 44 99.001 83.167 123.001 117.5s36 70.166 36 107.499c0 42 -16.833 79.167 -50.5 111.5s-71.834 48.5 -114.501 48.5c-41.333 0 -76.333 -13.167 -105 -39.5s-43 -58.166 -43 -95.499c0 -31.333 11.167 -65.5 33.5 -102.5s62.5 -86.167 120.5 -147.5zM1503 16
c-36 -15.333 -69.333 -26.666 -100 -33.999s-60 -11 -88 -11c-54 0 -107.333 16 -160 48s-107.334 81.667 -164.001 149c-71.333 -66.667 -145 -116.167 -221 -148.5s-156 -48.5 -240 -48.5c-116.667 0 -214 37.5 -292 112.5s-117 167.833 -117 278.5
c0 81.333 26.667 158.666 80 231.999s150.333 162 291 266l-62 92c-28 42.667 -47.667 80.334 -59 113.001s-17 66.667 -17 102c0 80 34.833 152 104.5 216s149.5 96 239.5 96c76 0 142.167 -26.333 198.5 -79s84.5 -112.334 84.5 -179.001
c0 -45.333 -19.667 -93.166 -59 -143.499s-102.333 -107.833 -189 -172.5c63.333 -74.667 123.833 -151.834 181.5 -231.501s113.167 -162.167 166.5 -247.5c46 53.333 82.833 107.5 110.5 162.5s41.5 99.167 41.5 132.5c0 28 -9.83301 49.667 -29.5 65
s-50.834 25 -93.501 29v90h393v-90c-33.333 -8 -62.333 -23.167 -87 -45.5s-55 -65.833 -91 -130.5l-34 -64c-55.333 -103.333 -104 -182.333 -146 -237c62 -100.667 112.167 -169.167 150.5 -205.5s76.833 -54.5 115.5 -54.5c8.66699 0 17.834 1 27.501 3
s21.834 5.66699 36.501 11z" />
    <glyph glyph-name="quotesingle" unicode="'" horiz-adv-x="348" 
d="M190 864l-31.999 0.000976562l-66 457c-0.666992 5.33301 -1.16699 10.666 -1.5 15.999s-0.5 13 -0.5 23c0 33.333 7.16699 58.666 21.5 75.999s35.166 26 62.499 26s48.5 -8.66699 63.5 -26s22.5 -42 22.5 -74c0 -6 -1 -17.333 -3 -34
c-0.666992 -3.33301 -1 -5.66602 -1 -6.99902z" />
    <glyph glyph-name="parenleft" unicode="(" horiz-adv-x="682" 
d="M565 -379c-170 123.333 -295 259.502 -375 408.502s-120 320.167 -120 513.5c0 197.333 40.333 372.833 121 526.5s204 290.167 370 409.5l51 -54c-136 -110.667 -236.833 -237.834 -302.5 -381.501s-98.5 -309.834 -98.5 -498.501c0 -190.667 32 -353.5 96 -488.5
s167.667 -259.5 311 -373.5z" />
    <glyph glyph-name="parenright" unicode=")" horiz-adv-x="682" 
d="M117 1479c170.667 -123.333 296.167 -259.667 376.5 -409s120.5 -320.333 120.5 -513c0 -197.333 -40.333 -373 -121 -527s-204 -290.333 -370 -409l-53 53c136.667 112 238 240 304 384s99 309.667 99 497c0 189.333 -32.167 352 -96.5 488s-167.833 261.333 -310.5 376
z" />
    <glyph glyph-name="asterisk" unicode="*" 
d="M512 815l-238 -203c-7.33301 -6 -13 -9.83301 -17 -11.5s-8.33301 -2.5 -13 -2.5c-10 0 -18.667 3.83301 -26 11.5s-11 16.834 -11 27.501c0 3.33301 0.166992 6.16602 0.5 8.49902s1.5 6.16602 3.5 11.499l121 306l-234 155
c-7.33301 4.66699 -13.166 10.334 -17.499 17.001s-6.5 13.334 -6.5 20.001c0 10.667 4.16699 19.5 12.5 26.5s19.166 10.5 32.499 10.5h4l274 -21l76 271c3.33301 11.333 8.5 20.333 15.5 27s14.833 10 23.5 10s16.5 -3.33301 23.5 -10s12.167 -15.667 15.5 -27l76 -271
l274 21h4c13.333 0 24.166 -3.5 32.499 -10.5s12.5 -15.833 12.5 -26.5c0 -6.66699 -2.16699 -13.334 -6.5 -20.001s-10.166 -12.334 -17.499 -17.001l-234 -155l121 -306c2 -5.33301 3.16699 -9.16602 3.5 -11.499s0.5 -5.16602 0.5 -8.49902
c0 -10.667 -3.66699 -19.834 -11 -27.501s-16 -11.5 -26 -11.5c-4.66699 0 -9 0.833008 -13 2.5s-9.66699 5.5 -17 11.5z" />
    <glyph glyph-name="plus" unicode="+" horiz-adv-x="1706" 
d="M795 1221h118v-551h539v-117h-539v-553h-118v553h-541v117h541v551z" />
    <glyph glyph-name="comma" unicode="," horiz-adv-x="510" 
d="M53 -346v86.001c96 28 167.5 62.833 214.5 104.5s70.5 91.5 70.5 149.5c0 22.667 -4.33301 39.167 -13 49.5s-25 17.833 -49 22.5c-82.667 14 -134.334 30.333 -155.001 49s-31 46.667 -31 84c0 38.667 13.5 71.167 40.5 97.5s59.833 39.5 98.5 39.5
c64.667 0 118.834 -28.333 162.501 -85s65.5 -127.334 65.5 -212.001c0 -99.333 -35.5 -182.833 -106.5 -250.5s-170.167 -112.5 -297.5 -134.5z" />
    <glyph glyph-name="hyphen" unicode="-" horiz-adv-x="682" 
d="M94 408v170h494v-170h-494z" />
    <glyph glyph-name="period" unicode="." horiz-adv-x="510" 
d="M123 133c0 36.667 12.667 67.667 38 93s56.333 38 93 38s67.667 -12.667 93 -38s38 -56.333 38 -93s-12.833 -68 -38.5 -94s-56.5 -39 -92.5 -39c-36.667 0 -67.667 13 -93 39s-38 57.333 -38 94z" />
    <glyph glyph-name="slash" unicode="/" horiz-adv-x="569" 
d="M496 1479h106l-532 -1669h-105z" />
    <glyph glyph-name="zero" unicode="0" horiz-adv-x="1020" 
d="M281 711c0 -209.333 19.167 -366.833 57.5 -472.5s95.5 -158.5 171.5 -158.5c75.333 0 132 53 170 159s57 263.333 57 472c0 210 -19 368.333 -57 475s-94.667 160 -170 160c-76 0 -133.167 -53.167 -171.5 -159.5s-57.5 -264.833 -57.5 -475.5zM510 -23
c-126.667 0 -232.333 69 -317 207s-127 313.667 -127 527c0 102.667 11.167 198.334 33.5 287.001s55.5 167 99.5 235c40 64 87.5 113.833 142.5 149.5s111.167 53.5 168.5 53.5s113.5 -17.833 168.5 -53.5s102.5 -85.5 142.5 -149.5
c42.667 -66.667 75.167 -144.834 97.5 -234.501s33.5 -186.167 33.5 -289.5c0 -214 -42 -389.5 -126 -526.5s-189.333 -205.5 -316 -205.5z" />
    <glyph glyph-name="one" unicode="1" horiz-adv-x="1020" 
d="M223 0v90.001h29c62.667 0 106 11.833 130 35.5s36 66.5 36 128.5v842c0 72 -12.5 118.333 -37.5 139s-77.5 31.667 -157.5 33v69l383 99v-1178c0 -60.667 12.667 -103.834 38 -129.501s68 -38.5 128 -38.5h25v-90h-574z" />
    <glyph glyph-name="two" unicode="2" horiz-adv-x="1020" 
d="M80 0v96c210 232 363.5 423.5 460.5 574.5s145.5 273.5 145.5 367.5c0 70.667 -23.333 130 -70 178s-104 72 -172 72c-48 0 -94.667 -12 -140 -36s-88.666 -59.667 -129.999 -107l-51 53c62 82 125.667 142.167 191 180.5s136.666 57.5 213.999 57.5
c105.333 0 191.833 -30.833 259.5 -92.5s101.5 -140.167 101.5 -235.5c0 -93.333 -43 -206.666 -129 -339.999s-245.667 -328 -479 -584h389c60.667 0 102.667 7.83301 126 23.5s48 44.834 74 87.501l41 -12c8.66699 -2.66699 15.667 -5.83398 21 -9.50098
s8 -6.83398 8 -9.50098l-18 -41l-95 -223h-747z" />
    <glyph glyph-name="three" unicode="3" horiz-adv-x="1020" 
d="M238 662l4.00195 104.002c127.333 24.667 226.666 64.667 297.999 120s107 119.666 107 192.999c0 70.667 -19.333 127 -58 169s-90.334 63 -155.001 63c-32 0 -64.5 -8.5 -97.5 -25.5s-78.833 -50.167 -137.5 -99.5l-60 28c50.667 78.667 106.667 136.667 168 174
s131 56 209 56c92.667 0 170.5 -28.833 233.5 -86.5s94.5 -127.834 94.5 -210.501c0 -60.667 -18.667 -118.167 -56 -172.5s-92.333 -104.166 -165 -149.499c96 -41.333 167.667 -91.333 215 -150s71 -126.667 71 -204c0 -145.333 -58.333 -262.833 -175 -352.5
s-272.667 -134.5 -468 -134.5c-48.667 0 -86.667 8.16699 -114 24.5s-41 38.833 -41 67.5c0 24.667 9.83301 45.167 29.5 61.5s45.167 24.5 76.5 24.5c21.333 0 61.5 -6.16699 120.5 -18.5s106.833 -18.5 143.5 -18.5c75.333 0 134.833 22.667 178.5 68
s65.5 106.666 65.5 183.999c0 94.667 -33.167 166.5 -99.5 215.5s-163.5 73.5 -291.5 73.5c-18 0 -46.667 -1.33301 -86 -4h-10z" />
    <glyph glyph-name="four" unicode="4" horiz-adv-x="1020" 
d="M569 -25v418h-526v139l623 904h92v-885h219v-158h-219v-418h-189zM569 551v602l-403 -602h403z" />
    <glyph glyph-name="five" unicode="5" horiz-adv-x="1020" 
d="M127 911l162 510h362c10 0 21.167 3.5 33.5 10.5s23.166 15.833 32.499 26.5l39 45l75 -39l-83 -176c-7.33301 -15.333 -17 -26 -29 -32s-31 -9 -57 -9h-330l-56 -172c196.667 -48 343.834 -118.833 441.501 -212.5s146.5 -210.5 146.5 -350.5
c0 -70.667 -14.5 -137.834 -43.5 -201.501s-72.5 -123.5 -130.5 -179.5c-54 -50 -116 -88.5 -186 -115.5s-143 -40.5 -219 -40.5c-55.333 0 -100.333 6.33301 -135 19s-52 28.334 -52 47.001c0 14.667 9 34.5 27 59.5s42.667 51.5 74 79.5
c32.667 -16 66.167 -27.833 100.5 -35.5s70.5 -11.5 108.5 -11.5c88.667 0 163 29.667 223 89s90 132 90 218c0 103.333 -51.5 196 -154.5 278s-249.5 146.333 -439.5 193z" />
    <glyph glyph-name="six" unicode="6" horiz-adv-x="1020" 
d="M295 707c-6 -40.667 -10.168 -74.832 -12.501 -102.499s-3.5 -52.5 -3.5 -74.5c0 -136.667 21.667 -244.834 65 -324.501s101.333 -119.5 174 -119.5c65.333 0 118.5 29.167 159.5 87.5s61.5 134.833 61.5 229.5c0 113.333 -24 202.5 -72 267.5s-114 97.5 -198 97.5
c-30 0 -59.167 -5 -87.5 -15s-57.166 -25.333 -86.499 -46zM785.999 1436l91 -57.998c-164 -52 -292.5 -123.833 -385.5 -215.5s-151.833 -204.834 -176.5 -339.501c44 25.333 86 44 126 56s79.333 18 118 18c112.667 0 206 -41.833 280 -125.5s111 -189.167 111 -316.5
c0 -133.333 -41.5 -245.5 -124.5 -336.5s-185.5 -136.5 -307.5 -136.5c-130 0 -237.833 55.333 -323.5 166s-128.5 251 -128.5 421c0 221.333 63 407.666 189 558.999s303 254 531 308z" />
    <glyph glyph-name="seven" unicode="7" horiz-adv-x="1020" 
d="M229 -25l538.999 1270h-453c-44 0 -76.667 -8.66699 -98 -26s-46.666 -57 -75.999 -119l-73 14l96 299h788l-540 -1438h-183z" />
    <glyph glyph-name="eight" unicode="8" horiz-adv-x="1020" 
d="M463 629c-60.667 -50 -104.832 -100.832 -132.499 -152.499s-41.5 -108.834 -41.5 -171.501c0 -64 21.5 -117.833 64.5 -161.5s95.833 -65.5 158.5 -65.5c58 0 108.333 19.833 151 59.5s64 87.5 64 143.5c0 50.667 -17.333 100 -52 148s-105.334 114.667 -212.001 200z
M559.002 838.001c59.333 40.667 102.833 83.832 130.5 129.499s41.5 97.167 41.5 154.5c0 70 -18.833 125.167 -56.5 165.5s-89.167 60.5 -154.5 60.5c-59.333 0 -108.333 -18.667 -147 -56s-58 -84.333 -58 -141c0 -50.667 19.167 -100.667 57.5 -150
s100.5 -103.666 186.5 -162.999zM391.002 695.999c-92.667 82.667 -156.832 154.5 -192.499 215.5s-53.5 127.167 -53.5 198.5c0 98 35.333 177.167 106 237.5s163.667 90.5 279 90.5c106.667 0 194.167 -29.5 262.5 -88.5s102.5 -132.833 102.5 -221.5
c0 -54.667 -19.333 -108.834 -58 -162.501s-106 -117.5 -202 -191.5c94.667 -77.333 163.667 -150.5 207 -219.5s65 -139.833 65 -212.5c0 -104.667 -38.333 -191.167 -115 -259.5s-173.334 -102.5 -290.001 -102.5c-108.667 0 -201 33.5 -277 100.5s-114 147.5 -114 241.5
c0 64.667 22.5 127.334 67.5 188.001s115.833 122.667 212.5 186z" />
    <glyph glyph-name="nine" unicode="9" horiz-adv-x="1020" 
d="M127 57c156 59.333 280.831 135.667 374.498 229s159.167 207 196.5 341c-46 -24 -88.667 -41.667 -128 -53s-76.333 -17 -111 -17c-117.333 0 -213.666 40.5 -288.999 121.5s-113 185.167 -113 312.5s41 232.666 123 315.999s186.667 125 314 125
c130.667 0 240 -54 328 -162s132 -243.333 132 -406c0 -191.333 -63.167 -365.166 -189.5 -521.499s-299.166 -274.5 -518.499 -354.5zM720.998 745.001c6 32 10.5 62.5 13.5 91.5s4.5 57.5 4.5 85.5c0 128.667 -21.5 230 -64.5 304s-101.833 111 -176.5 111
c-66 0 -119.5 -28 -160.5 -84s-61.5 -130.333 -61.5 -223c0 -104.667 21.167 -187.167 63.5 -247.5s99.833 -90.5 172.5 -90.5c28.667 0 60 4.33301 94 13s72.333 22 115 40z" />
    <glyph glyph-name="colon" unicode=":" horiz-adv-x="688" 
d="M213 106c0 37.333 12.667 68.666 38 93.999s56.333 38 93 38s67.667 -12.667 93 -38s38 -56.666 38 -93.999c0 -36.667 -12.833 -68 -38.5 -94s-56.5 -39 -92.5 -39c-36.667 0 -67.667 13 -93 39s-38 57.333 -38 94zM213 844c0 36.667 12.667 67.667 38 93
s56.333 38 93 38s67.667 -12.667 93 -38s38 -56.333 38 -93s-12.833 -68 -38.5 -94s-56.5 -39 -92.5 -39c-36.667 0 -67.667 12.833 -93 38.5s-38 57.167 -38 94.5z" />
    <glyph glyph-name="semicolon" unicode=";" horiz-adv-x="688" 
d="M141 -346l0.000976562 85.999c96.667 28 168.667 63 216 105s71 91.667 71 149c0 22.667 -4.16699 39.167 -12.5 49.5s-24.833 17.833 -49.5 22.5v0c-125.333 22 -188 66.333 -188 133c0 38 13.667 70.333 41 97s60.666 40 99.999 40c64 0 117.667 -28.167 161 -84.5
s65 -127.166 65 -212.499c0 -99.333 -35.5 -182.833 -106.5 -250.5s-170.167 -112.5 -297.5 -134.5zM213.001 843.999c0 36.667 12.667 67.667 38 93s56.333 38 93 38s67.667 -12.667 93 -38s38 -56.333 38 -93s-12.833 -68 -38.5 -94s-56.5 -39 -92.5 -39
c-36.667 0 -67.667 12.833 -93 38.5s-38 57.167 -38 94.5z" />
    <glyph glyph-name="less" unicode="&#x3c;" horiz-adv-x="1706" 
d="M1442 1145v-127l-1000 -408l1000 -405v-129l-1178 483v103z" />
    <glyph glyph-name="equal" unicode="=" horiz-adv-x="1706" 
d="M254 477h1198v-117h-1198v117zM254 860h1198v-117h-1198v117z" />
    <glyph glyph-name="greater" unicode="&#x3e;" horiz-adv-x="1706" 
d="M264 1145l1178 -483v-103l-1178 -483v129l1000 405l-1000 408v127z" />
    <glyph glyph-name="question" unicode="?" horiz-adv-x="909" 
d="M418 375l-56 -6h-10c-17.333 0 -26.666 10.667 -27.999 32v11l-23 295c178 56.667 290.833 103.667 338.5 141s71.5 85.666 71.5 144.999c0 85.333 -29.5 160 -88.5 224s-128.5 96 -208.5 96c-24 0 -53.833 -5.16699 -89.5 -15.5s-59.834 -15.5 -72.501 -15.5
c-25.333 0 -46 8 -62 24s-24 36.667 -24 62c0 33.333 14.667 60.5 44 81.5s68 31.5 116 31.5c45.333 0 93.833 -11.5 145.5 -34.5s100.5 -55.167 146.5 -96.5c75.333 -66 132.5 -138.5 171.5 -217.5s58.5 -160.833 58.5 -245.5c0 -41.333 -6.83301 -79.666 -20.5 -114.999
s-33.5 -66.666 -59.5 -93.999c-21.333 -22.667 -84.333 -55.334 -189 -98.001l-57 -23c-46 -18.667 -75.167 -36.5 -87.5 -53.5s-18.5 -44.167 -18.5 -81.5c0 -12 0.166992 -21.333 0.5 -28s0.833008 -13 1.5 -19zM227 109c0 36.667 12.667 67.667 38 93s56.333 38 93 38
c37.333 0 69 -12.667 95 -38s39 -56.333 39 -93s-13.167 -68.167 -39.5 -94.5s-57.833 -39.5 -94.5 -39.5s-67.667 13 -93 39s-38 57.667 -38 95z" />
    <glyph glyph-name="at" unicode="@" horiz-adv-x="2019" 
d="M1190 336c-41.333 -70.667 -87.667 -123.501 -139 -158.501s-108 -52.5 -170 -52.5c-83.333 0 -150.333 30.667 -201 92s-76 142.666 -76 243.999c0 72 16.333 144 49 216s78.667 136.333 138 193c43.333 42.667 91.333 76 144 100s104.334 36 155.001 36
c58 0 105.667 -16.5 143 -49.5s63.333 -81.5 78 -145.5l53 180h143l-170 -610c0 -1.33301 -0.333008 -3 -1 -5c-11.333 -39.333 -17 -74 -17 -104c0 -31.333 8.5 -56.166 25.5 -74.499s39.833 -27.5 68.5 -27.5c22.667 0 49 5.83301 79 17.5s58.333 27.834 85 48.501
c81.333 60 143.666 137 186.999 231s65 199 65 315c0 93.333 -16.667 177.333 -50 252s-84.333 142.334 -153 203.001c-60 52.667 -132 93.5 -216 122.5s-173 43.5 -267 43.5c-124.667 0 -238.5 -19.5 -341.5 -58.5s-194.833 -97.5 -275.5 -175.5
c-86.667 -84 -152.334 -181.833 -197.001 -293.5s-67 -234.834 -67 -369.501c0 -116.667 19 -218.167 57 -304.5s98.333 -164.5 181 -234.5c76 -64.667 163 -113.5 261 -146.5s204.667 -49.5 320 -49.5c108.667 0 214.5 17.333 317.5 52s201.5 86 295.5 154l30 -36
c-98.667 -73.333 -203 -128.666 -313 -165.999s-224 -56 -342 -56c-124.667 0 -238.667 15.5 -342 46.5s-194.666 77.167 -273.999 138.5c-100.667 75.333 -177.167 166.833 -229.5 274.5s-78.5 227.167 -78.5 358.5c0 136 28.667 263 86 381s140.666 222.333 249.999 313
c87.333 73.333 184.333 128.5 291 165.5s221.334 55.5 344.001 55.5c231.333 0 415.833 -62.333 553.5 -187s206.5 -291 206.5 -499c0 -104.667 -19.333 -203.667 -58 -297s-93 -172 -163 -236c-38 -34.667 -79.167 -61.334 -123.5 -80.001s-89.166 -28 -134.499 -28
c-64.667 0 -114.334 17.5 -149.001 52.5s-54 87.833 -58 158.5zM1098 964.999c-36 0 -68.999 -10.332 -98.999 -30.999s-60.667 -54 -92 -100c-48 -72 -86.167 -150 -114.5 -234s-42.5 -159 -42.5 -225c0 -62 13.5 -111 40.5 -147s63.167 -54 108.5 -54
c44 0 86 14.833 126 44.5s78.667 74.167 116 133.5c38 62.667 68.333 130.167 91 202.5s34 138.166 34 197.499c0 62 -15.833 113 -47.5 153s-71.834 60 -120.501 60z" />
    <glyph glyph-name="A" unicode="A" horiz-adv-x="1475" 
d="M483 702h379l-186 545zM55 0l0.00195312 89.999c46 8.66699 82.667 27.5 110 56.5s57.666 90.167 90.999 183.5l354 999c0.666992 1.33301 2 4.33301 4 9c10 26 15 45.667 15 59c0 9.33301 -1.83301 18.333 -5.5 27s-8.83398 17.334 -15.501 26.001h217l412 -1141
c26.667 -76 54.334 -130.167 83.001 -162.5s63.667 -51.166 105 -56.499v-90h-557v90c56.667 6.66699 95.5 17.5 116.5 32.5s31.5 38.5 31.5 70.5c0 16.667 -1.83301 34.667 -5.5 54s-8.83398 38 -15.501 56l-98 285h-453l-71 -244c-5.33301 -18.667 -9.5 -37.5 -12.5 -56.5
s-4.5 -36.167 -4.5 -51.5c0 -41.333 11.5 -72.833 34.5 -94.5s62.833 -38.834 119.5 -51.501v-90h-455z" />
    <glyph glyph-name="B" unicode="B" horiz-adv-x="1360" 
d="M76 0l0.000976562 90c79.333 9.33301 132.5 28 159.5 56s40.5 85 40.5 171v826c0 86 -13.5 143 -40.5 171s-80.167 46.667 -159.5 56v80h405c153.333 0 262 -3.83301 326 -11.5s120 -20.167 168 -37.5c72.667 -26.667 128 -65 166 -115s57 -109.333 57 -178
c0 -84.667 -28.167 -156 -84.5 -214s-138.833 -100.667 -247.5 -128c129.333 -24.667 227.666 -68.334 294.999 -131.001s101 -142.667 101 -240c0 -55.333 -10.833 -107.166 -32.5 -155.499s-53.167 -91.166 -94.5 -128.499
c-45.333 -40.667 -105.833 -69.334 -181.5 -86.001s-208.5 -25 -398.5 -25h-479zM502.001 708v-417.001c0 -72 15 -122.833 45 -152.5s81.667 -44.5 155 -44.5c89.333 0 162.666 27 219.999 81s86 123.333 86 208c0 103.333 -37.667 183.833 -113 241.5s-181 86.5 -317 86.5
c-20.667 0 -36.167 -0.166992 -46.5 -0.5s-20.166 -1.16602 -29.499 -2.49902zM502.001 808.999c23.333 -5.33301 44.668 -9.33301 64.001 -12s37.666 -4 54.999 -4c100 0 182 28 246 84s96 127.667 96 215c0 82.667 -29 148 -87 196s-137 72 -237 72
c-58 0 -95.333 -4.66699 -112 -14s-25 -33.333 -25 -72v-53v-412z" />
    <glyph glyph-name="C" unicode="C" horiz-adv-x="1364" 
d="M1219 406h89.999l-37 -310c-91.333 -42.667 -177.166 -74.5 -257.499 -95.5s-157.833 -31.5 -232.5 -31.5c-104.667 0 -199.667 18 -285 54s-163 91 -233 165c-65.333 70 -113.666 147.333 -144.999 232s-47 181 -47 289c0 104.667 13.5 198.667 40.5 282
s68.833 158.666 125.5 225.999c69.333 84 153.333 149 252 195s203.667 69 315 69c66.667 0 136.667 -9.66699 210 -29s152 -48.666 236 -87.999l39 -299l-88 -8c-30.667 106.667 -84 189.334 -160 248.001s-168 88 -276 88c-138.667 0 -246.334 -54 -323.001 -162
s-115 -260.333 -115 -457c0 -218.667 42 -391.834 126 -519.501s197 -191.5 339 -191.5c101.333 0 187 28.167 257 84.5s126.333 142.5 169 258.5z" />
    <glyph glyph-name="D" unicode="D" horiz-adv-x="1657" 
d="M76 0v89.998c79.333 9.33301 132.5 28 159.5 56s40.5 85 40.5 171v818c0 85.333 -13.333 141.833 -40 169.5s-80 46.167 -160 55.5v90h530c154.667 0 278 -9.16699 370 -27.5s175.667 -48.166 251 -89.499c109.333 -60 194 -142.167 254 -246.5s90 -222.166 90 -353.499
c0 -220 -78.333 -397.167 -235 -531.5s-365 -201.5 -625 -201.5h-635zM510 343.998c0 -102.667 17.666 -170 52.999 -202s103 -48 203 -48c163.333 0 295 57.5 395 172.5s150 267.833 150 458.5c0 204.667 -55.5 362.667 -166.5 474s-268.5 167 -472.5 167
c-39.333 0 -72.666 -2 -99.999 -6s-44 -8.66699 -50 -14c-4 -4.66699 -7 -11.167 -9 -19.5s-3 -20.5 -3 -36.5v-63v-883z" />
    <glyph glyph-name="E" unicode="E" horiz-adv-x="1352" 
d="M82 0l0.000976562 90.001c80 9.33301 133.5 28 160.5 56s40.5 85 40.5 171v830c0 86 -13.5 143 -40.5 171s-80.5 46.667 -160.5 56v76h1151l10 -307h-86c-23.333 82 -65.5 139.667 -126.5 173s-160.167 50 -297.5 50h-147c-32 0 -52 -3.83301 -60 -11.5
s-12 -27.167 -12 -58.5v-481h164c124.667 0 207.667 14 249 42s62.666 78.667 63.999 152l88 1v-488l-88 1c-2 75.333 -24 127.166 -66 155.499s-124.333 42.5 -247 42.5h-164v-422c0 -80 18.833 -135.167 56.5 -165.5s107.5 -45.5 209.5 -45.5
c100 0 185.167 23.333 255.5 70s129.833 119.667 178.5 219l91 -23l-88 -354h-1135z" />
    <glyph glyph-name="F" unicode="F" horiz-adv-x="1352" 
d="M541 317c0 -86 13.501 -143.001 40.501 -171.001s80.167 -46.667 159.5 -56v-90h-632v90c79.333 9.33301 132.5 28 159.5 56s40.5 85 40.5 171v826c0 86 -13.5 143 -40.5 171s-80.167 46.667 -159.5 56v80h1189l31 -334h-92c-24.667 92 -65.5 156.333 -122.5 193
s-148.5 55 -274.5 55h-250c-19.333 0 -32.333 -3.5 -39 -10.5s-10 -21.833 -10 -44.5v-498h268c82.667 0 140.167 13.833 172.5 41.5s51.166 77.834 56.499 150.501l80 1v-504h-80c-4 78 -28.167 133.667 -72.5 167s-118.5 50 -222.5 50h-202v-400z" />
    <glyph glyph-name="G" unicode="G" horiz-adv-x="1538" 
d="M946 729l565.004 0.00390625v-76c-62 -9.33301 -104 -30.833 -126 -64.5s-33 -106.834 -33 -219.501v-336c-97.333 -23.333 -186.5 -40.833 -267.5 -52.5s-153.167 -17.5 -216.5 -17.5c-74.667 0 -145.5 8.33301 -212.5 25s-130.5 41.667 -190.5 75
c-122.667 69.333 -216.5 159.166 -281.5 269.499s-97.5 235.166 -97.5 374.499c0 102.667 17.667 199.5 53 290.5s87.333 172.833 156 245.5c76 80.667 162 140.5 258 179.5s204.667 58.5 326 58.5c75.333 0 149.666 -9.33301 222.999 -28s147 -47 221 -85l33 -305l-84 -4
c-34.667 113.333 -90 197.333 -166 252s-175 82 -297 82c-148.667 0 -263.667 -53.833 -345 -161.5s-122 -260.167 -122 -457.5c0 -222.667 42.167 -395 126.5 -517s203.166 -183 356.499 -183c57.333 0 110.666 4.66699 159.999 14s95.666 23.666 138.999 42.999v301
c0 90.667 -12.333 149.167 -37 175.5s-71.667 41.5 -141 45.5v76z" />
    <glyph glyph-name="H" unicode="H" horiz-adv-x="1698" 
d="M76 0l0.000976562 90c79.333 9.33301 132.5 28 159.5 56s40.5 85 40.5 171v818c0 85.333 -13.333 141.833 -40 169.5s-80 46.167 -160 55.5v90h635v-90c-80.667 -9.33301 -134.334 -27.833 -161.001 -55.5s-40 -84.167 -40 -169.5v-334h678v334
c0 84.667 -13.5 141 -40.5 169s-81.167 46.667 -162.5 56v90h637v-90c-81.333 -9.33301 -135.5 -28 -162.5 -56s-40.5 -84.333 -40.5 -169v-818c0 -85.333 13.667 -142.166 41 -170.499s81.333 -47.166 162 -56.499v-90h-637v90c80.667 9.33301 134.667 28.166 162 56.499
s41 85.166 41 170.499v379h-678v-379c0 -86 13.5 -143 40.5 -171s80.5 -46.667 160.5 -56v-90h-635z" />
    <glyph glyph-name="I" unicode="I" horiz-adv-x="797" 
d="M80 0l0.000976562 90c80 9.33301 133.5 28 160.5 56s40.5 85 40.5 171v818c0 85.333 -13.5 141.833 -40.5 169.5s-80.5 46.167 -160.5 55.5v90h635v-90c-80.667 -9.33301 -134.334 -27.833 -161.001 -55.5s-40 -84.167 -40 -169.5v-818c0 -86 13.5 -143 40.5 -171
s80.5 -46.667 160.5 -56v-90h-635z" />
    <glyph glyph-name="J" unicode="J" horiz-adv-x="821" 
d="M115 1450h624.001v-84c-64.667 -1.33301 -113.834 -17.333 -147.501 -48s-50.5 -74.667 -50.5 -132v-1123c0 -123.333 -35.667 -225 -107 -305s-160.666 -120 -267.999 -120c-60.667 0 -108 13.5 -142 40.5s-51 64.5 -51 112.5c0 32 8.5 56.333 25.5 73s41.5 25 73.5 25
c22.667 0 43.667 -6.83301 63 -20.5s38.666 -35.5 57.999 -65.5l10 -16c16 -28.667 33 -43 51 -43s30.667 7.83301 38 23.5s11 48.834 11 99.501v57v1262c0 66 -13.833 112.167 -41.5 138.5s-76.5 40.166 -146.5 41.499v84z" />
    <glyph glyph-name="K" unicode="K" horiz-adv-x="1702" 
d="M573 317c0 -86 13.501 -143 40.501 -171s80.5 -46.667 160.5 -56v-90h-635v90c80 9.33301 133.5 28 160.5 56s40.5 85 40.5 171v818c0 85.333 -13.333 141.833 -40 169.5s-80.334 46.167 -161.001 55.5v90h635v-90c-80 -9.33301 -133.5 -27.833 -160.5 -55.5
s-40.5 -84.167 -40.5 -169.5v-369l365 332c50.667 46 84.167 81.333 100.5 106s24.5 48.667 24.5 72c0 26.667 -10.333 47.5 -31 62.5s-52 24.167 -94 27.5v84h571v-84c-64 -11.333 -120.5 -29.333 -169.5 -54s-105.167 -66.667 -168.5 -126l-370 -355l532 -552
c69.333 -72 127.5 -121.5 174.5 -148.5s95.5 -40.5 145.5 -40.5h4v-90h-361l-667 690l-56 -37v-336z" />
    <glyph glyph-name="L" unicode="L" horiz-adv-x="1475" 
d="M115 0l-0.000976562 90.001c72.667 1.33301 124.5 17.333 155.5 48s46.5 81 46.5 151v899c0 63.333 -15.333 108.5 -46 135.5s-82.667 41.167 -156 42.5v84h643v-84c-69.333 0 -121.166 -15.167 -155.499 -45.5s-51.5 -75.833 -51.5 -136.5v-862
c0 -95.333 19 -158.833 57 -190.5s115.333 -47.5 232 -47.5c124 0 226.167 24.167 306.5 72.5s142.5 123.166 186.5 224.499l92 -25l-88 -356h-1222z" />
    <glyph glyph-name="M" unicode="M" horiz-adv-x="1925" 
d="M51 0l1 89.998c60 4.66699 106.5 30.667 139.5 78s59.167 128 78.5 242l125 723c0.666992 2.66699 1.33398 6.33398 2.00098 11.001c4 30 6 51.333 6 64c0 50.667 -12.5 89.167 -37.5 115.5s-62.167 40.5 -111.5 42.5v84h383c0 -46 5.83301 -94.5 17.5 -145.5
s35.167 -123.5 70.5 -217.5l248 -667l268 713c22 58 37.833 107.833 47.5 149.5s14.5 80.5 14.5 116.5c0 6 -0.333008 13 -1 21s-1.66699 18 -3 30h403l-1 -84c-52.667 -1.33301 -91.667 -13 -117 -35s-38 -55.333 -38 -100c0 -18.667 1.16699 -39.5 3.5 -62.5
s5.5 -46.5 9.5 -70.5l118 -789c12 -80.667 31.667 -135.834 59 -165.501s69.666 -47.5 126.999 -53.5l1 -90h-598v90c67.333 8.66699 114.5 25.334 141.5 50.001s40.5 63.334 40.5 116.001c0 10 -0.666992 22.667 -2 38s-4 38 -8 68l-105 725l-334 -884
c-12.667 -32.667 -23 -66 -31 -100s-14 -68.333 -18 -103h-106c-8 52 -18.667 104.333 -32 157s-28 101.334 -44 146.001l-285 774l-86 -483c-10.667 -58 -18.667 -113.333 -24 -166s-8 -98.334 -8 -137.001c0 -68.667 11.167 -116.667 33.5 -144s63.5 -46.333 123.5 -57
v-90h-471z" />
    <glyph glyph-name="N" unicode="N" horiz-adv-x="1636" 
d="M86 0v90h23c68 0 116.667 20.667 146 62s44 110 44 206v834c-33.333 52.667 -70 93.834 -110 123.501s-82 46.5 -126 50.5v84h338l854 -1092v768c0 93.333 -14.333 155.333 -43 186s-84.667 48.667 -168 54v84h523v-84
c-80.667 -14.667 -135.334 -37.834 -164.001 -69.501s-43 -92.5 -43 -182.5v-881c0 -51.333 1.33301 -98.333 4 -141s6.66699 -83 12 -121h-114c-24 37.333 -51.5 77.166 -82.5 119.499s-78.167 102.833 -141.5 181.5l-637 803v-717c0 -99.333 13.333 -169.166 40 -209.499
s72.334 -60.5 137.001 -60.5c8.66699 0 15.5 0.166992 20.5 0.5s9.5 0.833008 13.5 1.5v-90h-526z" />
    <glyph glyph-name="O" unicode="O" horiz-adv-x="1571" 
d="M336 778c0 -219.333 41.999 -393.333 125.999 -522s196.333 -193 337 -193c138 0 245.5 55.5 322.5 166.5s115.5 266.5 115.5 466.5c0 208 -43.667 375.833 -131 503.5s-200.666 191.5 -339.999 191.5c-134.667 0 -240 -54 -316 -162s-114 -258.333 -114 -451z
M781.999 -29c-101.333 0 -196.667 19.833 -286 59.5s-168 97.167 -236 172.5c-58 63.333 -102.167 138.333 -132.5 225s-45.5 181.667 -45.5 285c0 102.667 15.333 198.667 46 288s75.334 167.333 134.001 234c68.667 78.667 149 139 241 181s190 63 294 63
c91.333 0 177.5 -17 258.5 -51s154.5 -84 220.5 -150c71.333 -71.333 124.666 -151.5 159.999 -240.5s53 -187.833 53 -296.5c0 -94.667 -14.167 -185 -42.5 -271s-68.833 -162 -121.5 -228c-72 -90 -153.5 -157.667 -244.5 -203s-190.5 -68 -298.5 -68z" />
    <glyph glyph-name="P" unicode="P" horiz-adv-x="1276" 
d="M70 0l0.000976562 89.9971c79.333 9.33301 132.5 28 159.5 56s40.5 85 40.5 171v816c0 95.333 -13.833 158 -41.5 188s-79.167 45 -154.5 45v84h551c203.333 0 353.5 -31 450.5 -93s145.5 -158 145.5 -288c0 -118 -46.5 -215.333 -139.5 -292s-213.167 -115 -360.5 -115
c-56.667 0 -93.334 4.16699 -110.001 12.5s-25 24.5 -25 48.5c0 16 3.16699 27.167 9.5 33.5s19.5 9.5 39.5 9.5c4 0 10.167 -0.333008 18.5 -1s14.5 -1 18.5 -1c87.333 0 158.666 28.333 213.999 85s83 130 83 220c0 90.667 -29.167 161.834 -87.5 213.501
s-139.166 77.5 -242.499 77.5c-58 0 -95.333 -4.66699 -112 -14s-25 -33.333 -25 -72v-53v-904c0 -85.333 13.667 -142.166 41 -170.499s81.333 -47.166 162 -56.499v-90h-635z" />
    <glyph glyph-name="Q" unicode="Q" horiz-adv-x="1571" 
d="M1538 -365l-22.001 -0.00195312c-72.667 0 -148.667 9.5 -228 28.5s-163.333 47.833 -252 86.5c-45.333 20 -99.666 51 -162.999 93c-9.33301 6 -16.333 10.667 -21 14c-104.667 68 -193.334 116 -266.001 144l-2 1l-26 12c-156 70.667 -268.333 150 -337 238
c-44 56 -78.167 124.167 -102.5 204.5s-36.5 165.833 -36.5 256.5c0 102.667 15.333 198.334 46 287.001s75.334 167 134.001 235c68.667 78.667 149 139 241 181s190 63 294 63c91.333 0 177.5 -17 258.5 -51s154.5 -84 220.5 -150
c71.333 -71.333 124.666 -151.5 159.999 -240.5s53 -187.833 53 -296.5c0 -166.667 -40.167 -313 -120.5 -439s-197.166 -225.333 -350.499 -298c68 -59.333 145 -109.166 231 -149.499s182.333 -72.5 289 -96.5v-123zM335.999 777.998
c0 -219.333 41.999 -393.333 125.999 -522s196.333 -193 337 -193c138 0 245.5 55.5 322.5 166.5s115.5 266.5 115.5 466.5c0 208 -43.667 375.833 -131 503.5s-200.666 191.5 -339.999 191.5c-134.667 0 -240 -54 -316 -162s-114 -258.333 -114 -451z" />
    <glyph glyph-name="R" unicode="R" horiz-adv-x="1432" 
d="M496 793c16 -2.66699 32.334 -4.5 49.001 -5.5s37.667 -1.5 63 -1.5c104 0 185.667 26.5 245 79.5s89 124.833 89 215.5c0 84.667 -30.833 153 -92.5 205s-142.834 78 -243.501 78c-45.333 0 -75 -4.5 -89 -13.5s-21 -30.5 -21 -64.5v-63v-430zM76.001 0v89.9951
c70.667 8.66699 119.667 28.834 147 60.501s41 88.834 41 171.501v794c0 106.667 -12.333 172.834 -37 198.501s-75 42.834 -151 51.501v84h508c202 0 352.833 -30.167 452.5 -90.5s149.5 -151.833 149.5 -274.5c0 -96 -29.833 -175 -89.5 -237
s-148.834 -106.333 -267.501 -133c28.667 -23.333 55.667 -47.333 81 -72s48.333 -49.334 69 -74.001l293 -346c1.33301 -1.33301 3.33301 -3.66602 6 -6.99902c70.667 -84 124.667 -126 162 -126h4v-90h-270l-457 549c-52.667 62.667 -92.167 102.5 -118.5 119.5
s-54.5 25.5 -84.5 25.5c-2 0 -5.33301 -0.333008 -10 -1s-8 -1 -10 -1v-364c0 -90.667 12.333 -151.167 37 -181.5s72.334 -49.166 143.001 -56.499v-90h-598z" />
    <glyph glyph-name="S" unicode="S" horiz-adv-x="1133" 
d="M154 96v342.002l79 -10c28.667 -119.333 72.834 -209.5 132.501 -270.5s133.167 -91.5 220.5 -91.5c68 0 124.167 22.333 168.5 67s66.5 100.667 66.5 168c0 58.667 -17.167 111.167 -51.5 157.5s-114.833 111.166 -241.5 194.499
c-155.333 102 -253.166 182 -293.499 240s-60.5 126.333 -60.5 205c0 113.333 36.5 204.5 109.5 273.5s169.5 103.5 289.5 103.5c58 0 119.167 -9.5 183.5 -28.5s133.833 -47.833 208.5 -86.5v-297h-86c-15.333 105.333 -48.833 185.166 -100.5 239.499
s-120.167 81.5 -205.5 81.5c-68 0 -123.5 -18.667 -166.5 -56s-64.5 -85.333 -64.5 -144c0 -33.333 5.83301 -64.166 17.5 -92.499s29.167 -53.5 52.5 -75.5c36 -34.667 111 -89.334 225 -164.001l141 -94c89.333 -61.333 152.666 -120.166 189.999 -176.499
s56 -119.833 56 -190.5c0 -127.333 -41.833 -229.833 -125.5 -307.5s-194.834 -116.5 -333.501 -116.5c-74 0 -145 10.667 -213 32s-134 53.666 -198 96.999z" />
    <glyph glyph-name="T" unicode="T" horiz-adv-x="1470" 
d="M410 0l-0.000976562 90c76.667 2 129.167 18.333 157.5 49s42.5 90 42.5 178v1041h-133c-102 0 -175 -16.5 -219 -49.5s-83.667 -94.5 -119 -184.5h-90l41 326h1278l53 -326l-92 2c-48.667 89.333 -97 150.333 -145 183s-111.667 49 -191 49h-145v-1041
c0 -88.667 13.333 -147.5 40 -176.5s77.334 -45.833 152.001 -50.5v-90h-630z" />
    <glyph glyph-name="U" unicode="U" horiz-adv-x="1583" 
d="M74 1366l0.000976562 83.9971h604v-84c-70.667 -10.667 -118 -30.667 -142 -60s-36 -92 -36 -188v-659c0 -119.333 30.167 -209.666 90.5 -270.999s149.5 -92 267.5 -92c62.667 0 119.667 11.333 171 34s93.333 55 126 97c23.333 28.667 39.833 63.834 49.5 105.501
s14.5 113.834 14.5 216.501v516c0 122.667 -14.667 202.667 -44 240s-84.333 57.666 -165 60.999v84h510v-84c-74.667 -10.667 -126.167 -35.167 -154.5 -73.5s-42.5 -114.166 -42.5 -227.499v-571c0 -93.333 -7.33301 -163.5 -22 -210.5s-39.334 -91.5 -74.001 -133.5
c-49.333 -59.333 -110.5 -104 -183.5 -134s-157.167 -45 -252.5 -45c-176 0 -306.833 41.5 -392.5 124.5s-128.5 209.5 -128.5 379.5v643c0 95.333 -13.167 158.5 -39.5 189.5s-78.5 50.5 -156.5 58.5z" />
    <glyph glyph-name="V" unicode="V" horiz-adv-x="1452" 
d="M698 -29l-445.997 1135c-0.666992 1.33301 -1.33398 3 -2.00098 5c-66.667 170 -134.334 255 -203.001 255h-10v84h538v-84h-10c-42.667 0 -74.834 -7 -96.501 -21s-32.5 -35 -32.5 -63c0 -8.66699 1.66699 -19.5 5 -32.5s8 -26.833 14 -41.5l350 -891l148 392
c124 322 186 507 186 555c0 31.333 -15 56.166 -45 74.499s-71.667 27.5 -125 27.5h-8v84h462v-84h-4c-77.333 0 -153.333 -102.333 -228 -307l-5 -14l-231 -611.5c-96 -247 -150.667 -401.167 -164 -462.5h-93z" />
    <glyph glyph-name="W" unicode="W" horiz-adv-x="2017" 
d="M705 -29c-16.667 50.667 -36.667 105.166 -60 163.499s-56 135.833 -98 232.5l-373 831c-0.666992 2 -2.33398 6 -5.00098 12c-41.333 90.667 -86 142.667 -134 156v84h459v-84c-29.333 -11.333 -50.666 -25.5 -63.999 -42.5s-20 -37.5 -20 -61.5c0 -12 2 -25.333 6 -40
s10.667 -33.667 20 -57l377 -852l94 194l78 163l-235 538c-22.667 52 -46.167 89.5 -70.5 112.5s-54.833 38.167 -91.5 45.5v84h477v-84c-27.333 -9.33301 -48.166 -23 -62.499 -41s-21.5 -39.667 -21.5 -65c0 -12.667 3 -30.167 9 -52.5s14 -44.5 24 -66.5l94 -215
c48 100.667 82.5 177.667 103.5 231s31.5 90.333 31.5 111c0 24 -7.16699 43.667 -21.5 59s-37.833 28.333 -70.5 39v84h371v-84c-76.667 -14.667 -173 -151 -289 -409l-70 -154l217 -486l149 392c123.333 322 185 507 185 555c0 24.667 -9.83301 45.834 -29.5 63.501
s-48.167 30.5 -85.5 38.5v84h404v-84h-4c-77.333 0 -153.333 -102 -228 -306l-6 -16l-233 -614c-96 -245.333 -150.667 -398.333 -164 -459h-82l-84.5 212c-23.667 57.333 -42.5 101.333 -56.5 132l-103 232c-72.667 -142.667 -128.834 -260.5 -168.501 -353.5
s-65.167 -167.167 -76.5 -222.5h-92z" />
    <glyph glyph-name="X" unicode="X" horiz-adv-x="1583" 
d="M47 0l-0.000976562 90c70.667 2.66699 130.334 18.5 179.001 47.5s100.334 82.167 155.001 159.5l291 410l-361 489c-46.667 63.333 -89.667 107.333 -129 132s-84 37.334 -134 38.001l-1 84h645v-84c-4 0.666992 -8.5 1.16699 -13.5 1.5s-12.833 0.5 -23.5 0.5
c-32.667 0 -58.167 -6.16699 -76.5 -18.5s-27.5 -29.5 -27.5 -51.5c0 -24.667 17.333 -61.334 52 -110.001c1.33301 -2 2.33301 -3.33301 3 -4l205 -285l168 238c22.667 32 39.167 59.5 49.5 82.5s15.5 43.833 15.5 62.5c0 29.333 -9.16699 50.666 -27.5 63.999
s-47.833 20 -88.5 20h-27v84h520v-84c-120.667 -9.33301 -265.667 -135 -435 -377l-7 -10l-113 -160l330 -448c0.666992 -1.33301 2 -3.33301 4 -6c136 -183.333 242 -275 318 -275h18v-90h-653v90c49.333 2 86.166 10.333 110.499 25s36.5 35.667 36.5 63
c0 10.667 -2.33301 21.834 -7 33.501s-11.667 24.167 -21 37.5l-271 372l-246 -363c-10 -14 -17.833 -26.833 -23.5 -38.5s-8.5 -20.5 -8.5 -26.5c0 -34 14.333 -59.167 43 -75.5s75 -25.5 139 -27.5v-90h-588z" />
    <glyph glyph-name="Y" unicode="Y" horiz-adv-x="1473" 
d="M418 0v89.999c75.333 8 126.5 26.333 153.5 55s40.5 82 40.5 160v318l-276 452l-16 26c-106 172.667 -193.667 261 -263 265v84h598v-84h-26c-42 0 -74 -7 -96 -21s-33 -34.333 -33 -61c0 -13.333 4.33301 -31.666 13 -54.999s20.667 -48 36 -74l246 -422l108 181
c112 184.667 168 295 168 331s-14.5 64.333 -43.5 85s-71.167 33 -126.5 37v83h512v-84c-45.333 -9.33301 -86 -27.833 -122 -55.5s-70.333 -66.5 -103 -116.5c-26 -40 -77.667 -124.667 -155 -254l-193 -319v-318c0 -74 15.5 -128 46.5 -162s80.167 -51 147.5 -51v-90h-616
z" />
    <glyph glyph-name="Z" unicode="Z" horiz-adv-x="1360" 
d="M66 0l-0.000976562 76.001l874 1284h-342c-97.333 0 -168.666 -15.5 -213.999 -46.5s-87.333 -91.167 -126 -180.5l-84 -9l14 326h1031v-76l-859 -1280h320c123.333 0 222.5 19.167 297.5 57.5s145.833 105.166 212.5 200.499l100 6l-108 -358h-1116z" />
    <glyph glyph-name="bracketleft" unicode="[" horiz-adv-x="692" 
d="M612 -383h-450v1829h450v-80h-90c-78.667 0 -129.334 -10.333 -152.001 -31s-34 -66.334 -34 -137.001v-1337c0 -38 1.33301 -65.167 4 -81.5s7.33398 -28.166 14.001 -35.499c8.66699 -10 24.5 -17.333 47.5 -22s57.833 -7 104.5 -7h106v-98z" />
    <glyph glyph-name="backslash" unicode="\" horiz-adv-x="569" 
d="M72 1479l530 -1669h-104l-533 1669h107z" />
    <glyph glyph-name="bracketright" unicode="]" horiz-adv-x="692" 
d="M80 -383l-0.000976562 97.999h106c35.333 0 62.833 1.33301 82.5 4s36.5 7 50.5 13c14 5.33301 23.667 15.5 29 30.5s8 45.167 8 90.5v45v1300c0 70.667 -11.167 116.334 -33.5 137.001s-73.166 31 -152.499 31h-90v80h450v-1829h-450z" />
    <glyph glyph-name="asciicircum" unicode="^" horiz-adv-x="2048" 
d="M934 1462h178l520 -565h-92l-518 436l-520 -436h-90z" />
    <glyph glyph-name="underscore" unicode="_" 
d="M0 -365h1024v-118h-1024v118z" />
    <glyph glyph-name="grave" unicode="`" 
d="M688 1087h-67l-330 205c-20.667 13.333 -36.167 27 -46.5 41s-15.5 28.333 -15.5 43c0 21.333 6.83301 38.333 20.5 51s31.5 19 53.5 19c13.333 0 26.833 -4 40.5 -12s32.167 -24 55.5 -48z" />
    <glyph glyph-name="a" unicode="a" horiz-adv-x="915" 
d="M883 80c-23.333 -33.333 -49.335 -58.834 -78.002 -76.501s-58 -26.5 -88 -26.5c-32 0 -60 11.333 -84 34s-42.333 55.334 -55 98.001c-45.333 -40.667 -90.666 -71 -135.999 -91s-90.333 -30 -135 -30c-68 0 -124.167 20 -168.5 60s-66.5 90.333 -66.5 151
c0 86 39 158.333 117 217s207.667 111.667 389 159v136c0 58 -14.333 102.833 -43 134.5s-69 47.5 -121 47.5c-44.667 0 -80.167 -9 -106.5 -27s-39.5 -41.667 -39.5 -71c0 -20.667 6.83301 -44.167 20.5 -70.5s20.5 -41.833 20.5 -46.5c0 -11.333 -17 -25.833 -51 -43.5
s-66 -26.5 -96 -26.5c-16 0 -29.667 13.333 -41 40s-17 60 -17 100c0 65.333 36.167 119.833 108.5 163.5s163.833 65.5 274.5 65.5c97.333 0 166.833 -19 208.5 -57s62.5 -101.667 62.5 -191v-504c0 -32.667 3 -55.5 9 -68.5s16 -19.5 30 -19.5c13.333 0 27.333 2.5 42 7.5
s29.334 11.833 44.001 20.5v-85zM577.998 478.999c-110.667 -30 -190.666 -62.667 -239.999 -98s-74 -77 -74 -125c0 -36 13.167 -65.833 39.5 -89.5s59.5 -35.5 99.5 -35.5c33.333 0 64.166 7.5 92.499 22.5s55.833 38.167 82.5 69.5v256z" />
    <glyph glyph-name="b" unicode="b" horiz-adv-x="1114" 
d="M166 1270l-137 64.999v56l276 88h51v-633c61.333 46.667 115.666 80.167 162.999 100.5s93.333 30.5 138 30.5c104 0 189.833 -41.333 257.5 -124s101.5 -189.667 101.5 -321c0 -56 -7.33301 -110.333 -22 -163s-36 -102.667 -64 -150
c-44.667 -73.333 -98.5 -130.166 -161.5 -170.499s-129.5 -60.5 -199.5 -60.5c-58.667 0 -122.167 8.33301 -190.5 25s-139.166 41 -212.499 73v1184zM356 755.999l-0.000976562 -424.001c0 -87.333 18.667 -152.833 56 -196.5s93.333 -65.5 168 -65.5
s133.834 32.833 177.501 98.5s65.5 154.834 65.5 267.501c0 118 -24 212.667 -72 284s-111.333 107 -190 107c-31.333 0 -62.333 -5.16699 -93 -15.5s-68 -28.833 -112 -55.5z" />
    <glyph glyph-name="c" unicode="c" horiz-adv-x="909" 
d="M872 213c-54 -76 -113.666 -133.503 -178.999 -172.503s-134 -58.5 -206 -58.5c-122 0 -220.333 44.5 -295 133.5s-112 207.5 -112 355.5c0 146 44.5 266.5 133.5 361.5s202.167 142.5 339.5 142.5c86.667 0 160.167 -21.5 220.5 -64.5s90.5 -93.167 90.5 -150.5
c0 -25.333 -10.5 -46.666 -31.5 -63.999s-46.5 -26 -76.5 -26c-32 0 -58.333 27 -79 81c-8 20 -14.667 35.333 -20 46c-14 28.667 -34.5 50.834 -61.5 66.501s-58.167 23.5 -93.5 23.5c-76.667 0 -137.5 -29 -182.5 -87s-67.5 -136.333 -67.5 -235
c0 -117.333 28.833 -213.5 86.5 -288.5s131.167 -112.5 220.5 -112.5c43.333 0 87.166 8.83301 131.499 26.5s85.833 42.834 124.5 75.501z" />
    <glyph glyph-name="d" unicode="d" horiz-adv-x="1139" 
d="M772 1270l-137.001 65v56l276 88h52v-1223c0 -60.667 7 -100 21 -118s41 -27 81 -27c10 0 17.833 0.166992 23.5 0.5s10.834 0.5 15.501 0.5v-79l-336 -51v129c-64 -46.667 -119.5 -79.834 -166.5 -99.501s-92.5 -29.5 -136.5 -29.5c-104 0 -189.833 41.333 -257.5 124
s-101.5 189.334 -101.5 320.001c0 152.667 46.167 282.667 138.5 390s203.5 161 333.5 161c26.667 0 56.167 -5.16699 88.5 -15.5s67.5 -25.833 105.5 -46.5v355zM767.999 203v424c0 86 -19.167 151.167 -57.5 195.5s-94.166 66.5 -167.499 66.5
c-74.667 0 -134.334 -33 -179.001 -99s-67 -155.333 -67 -268c0 -117.333 24.333 -211.833 73 -283.5s112.334 -107.5 191.001 -107.5c30 0 60.167 5 90.5 15s69.166 29 116.499 57z" />
    <glyph glyph-name="e" unicode="e" horiz-adv-x="909" 
d="M250 678h407.001c-4 64.667 -24.167 116 -60.5 154s-82.833 57 -139.5 57c-50.667 0 -93.834 -18.167 -129.501 -54.5s-61.5 -88.5 -77.5 -156.5zM872.001 211c-54 -80 -111.001 -138.501 -171.001 -175.501s-127.667 -55.5 -203 -55.5c-128 0 -231.333 44.333 -310 133
s-118 205.334 -118 350.001c0 147.333 40.833 270.166 122.5 368.499s183.5 147.5 305.5 147.5c102 0 189 -36.5 261 -109.5s112.667 -166.833 122 -281.5h-535c-45.333 0 -72.666 -2.66699 -81.999 -8s-14 -17.666 -14 -36.999c0 -105.333 30.333 -196.5 91 -273.5
s132.667 -115.5 216 -115.5c44 0 87.667 9.16699 131 27.5s87 46.5 131 84.5z" />
    <glyph glyph-name="f" unicode="f" horiz-adv-x="651" 
d="M72 0v90.001c57.333 3.33301 98.166 19.833 122.499 49.5s36.5 78.167 36.5 145.5v581h-159v92h159v19c0 165.333 37.333 293.666 112 384.999s179.334 137 314.001 137c59.333 0 107.333 -12.5 144 -37.5s55 -56.833 55 -95.5c0 -24 -9.83301 -45.333 -29.5 -64
s-42.5 -28 -68.5 -28c-18 0 -47 20.833 -87 62.5s-74.667 62.5 -104 62.5c-50 0 -87.333 -22.167 -112 -66.5s-37 -110.833 -37 -199.5v-175h213v-92h-213v-573c0 -70.667 13.5 -122.167 40.5 -154.5s70.167 -48.5 129.5 -48.5h18v-90h-534z" />
    <glyph glyph-name="g" unicode="g" horiz-adv-x="1020" 
d="M301 12c-31.333 -30 -54.833 -58.166 -70.5 -84.499s-23.5 -50.5 -23.5 -72.5c0 -38.667 24.5 -70.167 73.5 -94.5s113.167 -36.5 192.5 -36.5c92.667 0 172.5 19 239.5 57s100.5 82.333 100.5 133c0 38.667 -20 65.667 -60 81s-118.333 23 -235 23
c-65.333 0 -112.333 -0.333008 -141 -1s-54 -2.33398 -76 -5.00098zM313 682.001c0 -78 16.333 -140.168 49 -186.501s76.667 -69.5 132 -69.5c48 0 86.167 16.833 114.5 50.5s42.5 78.834 42.5 135.501c0 88 -15.667 156.5 -47 205.5s-75 73.5 -131 73.5
c-50.667 0 -90 -18.167 -118 -54.5s-42 -87.833 -42 -154.5zM197 35c-26.667 21.333 -46.665 42.332 -59.998 62.999s-20 40.667 -20 60c0 26 12.167 57.167 36.5 93.5s62.5 80.166 114.5 131.499c-51.333 36.667 -90 77.334 -116 122.001s-39 93.334 -39 146.001
c0 96.667 33.167 175.5 99.5 236.5s152.5 91.5 258.5 91.5c44.667 0 108.667 -9.83301 192 -29.5s146.333 -29.5 189 -29.5h149v-134c-8 2 -17 3.33301 -27 4s-24.667 1 -44 1c-20.667 -0.666992 -38.667 -1.66699 -54 -3s-30 -4 -44 -8c6 -22 10.5 -42.833 13.5 -62.5
s4.5 -38.167 4.5 -55.5c0 -104 -33.667 -184 -101 -240s-163.333 -84 -288 -84c-14 0 -29.5 1.16699 -46.5 3.5s-34.167 5.83301 -51.5 10.5c-26 -26 -44.167 -46.5 -54.5 -61.5s-15.5 -28.5 -15.5 -40.5c0 -18.667 7.66699 -31.5 23 -38.5s52.666 -10.5 111.999 -10.5h45
c18 0 46.333 0.333008 85 1s67.667 1 87 1c105.333 0 182.5 -18.667 231.5 -56s73.5 -95.333 73.5 -174c0 -106 -51.333 -193.833 -154 -263.5s-234.334 -104.5 -395.001 -104.5c-102 0 -184.833 21.167 -248.5 63.5s-95.5 97.5 -95.5 165.5c0 34 11.167 67 33.5 99
s57.833 66 106.5 102z" />
    <glyph glyph-name="h" unicode="h" horiz-adv-x="1186" 
d="M74 0l0.000976562 90.001c56 2.66699 94.833 17 116.5 43s32.5 72.333 32.5 139v998l-137 65v56l274 88h52v-635c54 44 107.833 77.167 161.5 99.5s106.167 33.5 157.5 33.5c88 0 152.333 -25.833 193 -77.5s61 -133.834 61 -246.501v-381
c0 -70.667 9.16699 -117.667 27.5 -141s52.166 -37 101.499 -41v-90h-461l1 90c54.667 4 92.167 17.833 112.5 41.5s30.5 70.5 30.5 140.5v385c0 72 -10 120.167 -30 144.5s-56 36.5 -108 36.5c-37.333 0 -75.833 -7.16699 -115.5 -21.5s-83.5 -36.5 -131.5 -66.5v-478
c0 -70 10 -116.833 30 -140.5s57.667 -37.5 113 -41.5v-90h-481z" />
    <glyph glyph-name="i" unicode="i" horiz-adv-x="631" 
d="M211 1364c0 32.667 11.333 60.667 34 84s50.334 35 83.001 35s60.167 -11.667 82.5 -35s33.5 -51.333 33.5 -84s-11.167 -60.334 -33.5 -83.001s-49.833 -34 -82.5 -34s-60.334 11.333 -83.001 34s-34 50.334 -34 83.001zM233 766l-137 65v56l275 90h51v-705
c0 -70 10 -116.833 30 -140.5s57.667 -37.5 113 -41.5v-90h-481v90c56 2.66699 94.833 17 116.5 43s32.5 72.333 32.5 139v494z" />
    <glyph glyph-name="j" unicode="j" horiz-adv-x="578" 
d="M223 766l-137 64.999v56l274 90h52v-922c0 -78.667 -20 -151.5 -60 -218.5s-109 -141.5 -207 -223.5l-61 57c49.333 56.667 84.833 112.334 106.5 167.001s32.5 128.667 32.5 222v707zM201 1364c0 32.667 11.3311 60.667 33.998 84s50 35 82 35
c32.667 0 60.334 -11.667 83.001 -35s34 -51.333 34 -84s-11.167 -60.334 -33.5 -83.001s-50.166 -34 -83.499 -34c-32.667 0 -60.167 11.333 -82.5 34s-33.5 50.334 -33.5 83.001z" />
    <glyph glyph-name="k" unicode="k" horiz-adv-x="1126" 
d="M74 0l0.00195312 90c56 2.66699 94.833 17 116.5 43s32.5 72.333 32.5 139v998l-137 65v56l274 88h52v-928c0 -15.333 0.666992 -24.666 2 -27.999s3.33301 -5 6 -5c2 0 5.66699 1.83301 11 5.5s11.333 8.83398 18 15.501l139 139c28.667 29.333 49.167 53.833 61.5 73.5
s18.5 38.167 18.5 55.5c0 21.333 -7.16699 37.666 -21.5 48.999s-42.833 22.333 -85.5 33v67h469v-67c-36.667 -4.66699 -72.167 -16.834 -106.5 -36.501s-72.5 -49.834 -114.5 -90.501l-174 -172c-8.66699 -8.66699 -15.334 -16.167 -20.001 -22.5s-7 -11.166 -7 -14.499
c0 -4.66699 2.5 -10.667 7.5 -18s12.833 -16.333 23.5 -27l428 -428v-80h-184l-439 442c-4.66699 4.66699 -9.33398 8.66699 -14.001 12s-8 5 -10 5c-2.66699 0 -4.66699 -2 -6 -6s-2 -15 -2 -33v-148c0 -70 10 -116.833 30 -140.5s57.667 -37.5 113 -41.5v-90h-481z" />
    <glyph glyph-name="l" unicode="l" horiz-adv-x="610" 
d="M63 0l-0.000976562 90c56.667 2.66699 95.834 17 117.501 43s32.5 72.333 32.5 139v998l-137 65v56l276 88h51v-1207c0 -70.667 10 -117.667 30 -141s57 -37 111 -41l1 -90h-482z" />
    <glyph glyph-name="m" unicode="m" horiz-adv-x="1733" 
d="M74 0l-0.00683594 89.998c56.667 4 95.667 18.833 117 44.5s32 71.5 32 137.5v494l-137 65v56l274 90h52v-137c54.667 45.333 108.834 79.5 162.501 102.5s105.834 34.5 156.501 34.5c54.667 0 101.834 -11.667 141.501 -35s68.167 -56 85.5 -98
c54.667 44 108.5 77.167 161.5 99.5s105.167 33.5 156.5 33.5c88 0 152.667 -26 194 -78s62 -134 62 -246v-381c0 -72 8.83301 -119.167 26.5 -141.5s51.167 -35.833 100.5 -40.5v-90h-459v90c54.667 4.66699 91.834 18.334 111.501 41.001s29.5 69.667 29.5 141v385
c0 72.667 -9.66699 121 -29 145s-54.666 36 -105.999 36c-48 0 -91 -7.66699 -129 -23s-68 -37 -90 -65v-478c0 -72 8.83301 -119.167 26.5 -141.5s51.167 -35.833 100.5 -40.5v-90h-459l1 90c54.667 4.66699 91.834 18.334 111.501 41.001s29.5 69.667 29.5 141v385
c0 72 -10 120.167 -30 144.5s-56 36.5 -108 36.5c-36.667 0 -74.5 -7 -113.5 -21s-82.833 -36.333 -131.5 -67v-478c0 -70.667 9.83301 -117.667 29.5 -141s56.834 -37 111.501 -41v-90h-481z" />
    <glyph glyph-name="n" unicode="n" horiz-adv-x="1186" 
d="M74 0l0.000976562 90.001c56 2.66699 94.833 17 116.5 43s32.5 72.333 32.5 139v494l-137 65v56l274 90h52v-133c54 44 107.833 77.167 161.5 99.5s106.167 33.5 157.5 33.5c88 0 152.333 -25.833 193 -77.5s61 -133.834 61 -246.501v-381
c0 -70.667 9.16699 -117.667 27.5 -141s52.166 -37 101.499 -41v-90h-461l1 90c54.667 4 92.167 17.833 112.5 41.5s30.5 70.5 30.5 140.5v385c0 72 -10 120.167 -30 144.5s-56 36.5 -108 36.5c-37.333 0 -75.833 -7.16699 -115.5 -21.5s-83.5 -36.5 -131.5 -66.5v-478
c0 -70 10 -116.833 30 -140.5s57.667 -37.5 113 -41.5v-90h-481z" />
    <glyph glyph-name="o" unicode="o" horiz-adv-x="1042" 
d="M274 559c0 -147.333 25.168 -267.168 75.501 -359.501s114.166 -138.5 191.499 -138.5c74 0 130.333 28.833 169 86.5s58 142.167 58 253.5c0 148.667 -25 268.167 -75 358.5s-115 135.5 -195 135.5c-71.333 0 -126.5 -29.167 -165.5 -87.5
s-58.5 -141.166 -58.5 -248.499zM522.001 -18.002c-128 0 -235.333 47.001 -322 141.001s-130 211.333 -130 352c0 146 42.5 265.833 127.5 359.5s193.167 140.5 324.5 140.5c128.667 0 236 -47.333 322 -142s129 -213.334 129 -356.001c0 -144 -42.333 -262.5 -127 -355.5
s-192.667 -139.5 -324 -139.5z" />
    <glyph glyph-name="p" unicode="p" horiz-adv-x="1110" 
d="M371 756v-424.001c0 -89.333 18 -155.333 54 -198s91 -64 165 -64c74.667 0 134.334 32.833 179.001 98.5s67 154.834 67 267.501c0 118 -24.5 212.667 -73.5 284s-112.833 107 -191.5 107c-32.667 0 -64.334 -5.33301 -95.001 -16s-65.667 -29 -105 -55zM31 -389.001
l-0.000976562 82c55.333 6 94 22.5 116 49.5s33 73.167 33 138.5v885l-137 65v56l276 90h52v-131c56 45.333 107.833 78.5 155.5 99.5s94.834 31.5 141.501 31.5c104 0 189.667 -41.333 257 -124s101 -189.667 101 -321c0 -151.333 -45.333 -280.166 -136 -386.499
s-199.667 -159.5 -327 -159.5c-30.667 0 -62.167 4.16699 -94.5 12.5s-64.833 21.166 -97.5 38.499v-156c0 -65.333 10.833 -111.5 32.5 -138.5s60.5 -43.5 116.5 -49.5v-82h-489z" />
    <glyph glyph-name="q" unicode="q" horiz-adv-x="1090" 
d="M932 -119c0 -65.333 10.999 -111.501 32.999 -138.501s60.667 -43.5 116 -49.5v-82h-491v82c55.333 5.33301 94 21.5 116 48.5s33 73.5 33 139.5v234c-55.333 -45.333 -107.166 -78.5 -155.499 -99.5s-95.5 -31.5 -141.5 -31.5c-104 0 -189.667 41.333 -257 124
s-101 189.334 -101 320.001c0 152.667 45.333 282 136 388s200.334 159 329.001 159c41.333 0 83.666 -6.16699 126.999 -18.5s89 -31.5 137 -57.5l41 78h78v-1096zM738.999 204.999l-0.00195312 424c0 88 -18.167 153.333 -54.5 196s-91.833 64 -166.5 64
s-134 -32.667 -178 -98s-66 -154.333 -66 -267c0 -118 24.167 -212.667 72.5 -284s111.833 -107 190.5 -107c32.667 0 64.834 5.5 96.501 16.5s66.834 29.5 105.501 55.5z" />
    <glyph glyph-name="r" unicode="r" horiz-adv-x="801" 
d="M66 0l-0.00390625 89.999c54.667 0 92.834 14 114.501 42s32.5 80.333 32.5 157v477l-141 65v56l274 90h51v-166c50.667 58 95 100.833 133 128.5s71.667 41.5 101 41.5c38.667 0 73.834 -13.5 105.501 -40.5s47.5 -57.833 47.5 -92.5
c0 -31.333 -10.833 -61.666 -32.5 -90.999s-42.167 -44 -61.5 -44c-14.667 0 -36 17.667 -64 53s-51.667 53 -71 53c-25.333 0 -51.666 -12 -78.999 -36s-53.666 -58.333 -78.999 -103v-426c0 -58.667 12 -101 36 -127s62.667 -39 116 -39c4 0 9.83301 0.333008 17.5 1
s13.5 1 17.5 1v-90h-518z" />
    <glyph glyph-name="s" unicode="s" horiz-adv-x="801" 
d="M96 90l-0.00195312 245.999h84c14.667 -90.667 39.834 -157 75.501 -199s84.167 -63 145.5 -63c48 0 86.333 12.667 115 38s43 59 43 101c0 65.333 -60 130 -180 194c-40.667 22 -72.667 40 -96 54c-70.667 40.667 -122.5 82.834 -155.5 126.501s-49.5 91.5 -49.5 143.5
c0 72.667 29.167 132.834 87.5 180.501s132.833 71.5 223.5 71.5c43.333 0 87.333 -6.33301 132 -19s93 -32.334 145 -59.001v-217h-62c-15.333 69.333 -42.166 122.166 -80.499 158.499s-86.5 54.5 -144.5 54.5c-41.333 0 -73.5 -9.66699 -96.5 -29
s-34.5 -45.666 -34.5 -78.999c0 -60 63.333 -124.667 190 -194c22.667 -12 39.667 -21.333 51 -28c88.667 -49.333 151.167 -97.166 187.5 -143.499s54.5 -99.5 54.5 -159.5c0 -78.667 -32.833 -146.334 -98.5 -203.001s-145.5 -85 -239.5 -85
c-48.667 0 -97.167 8.83301 -145.5 26.5s-98.833 45.5 -151.5 83.5z" />
    <glyph glyph-name="t" unicode="t" horiz-adv-x="688" 
d="M653 41c-47.333 -21.333 -92.165 -37.333 -134.498 -48s-83.5 -16 -123.5 -16c-68 0 -116 18.167 -144 54.5s-42 103.5 -42 201.5v637h-137v56c42.667 15.333 86.167 40.166 130.5 74.499s90.833 79.166 139.5 134.499h47v-177h246v-88h-246v-618
c0 -59.333 7 -98.5 21 -117.5s40.333 -28.5 79 -28.5c13.333 0.666992 33.166 2.33398 59.499 5.00098s61.166 7.33398 104.499 14.001v-84z" />
    <glyph glyph-name="u" unicode="u" horiz-adv-x="1137" 
d="M55 889l0.000976562 69.0029l318 19v-666c0 -62.667 11.833 -108.334 35.5 -137.001s61.5 -43 113.5 -43c44 0 85.667 7.83301 125 23.5s75.666 38.5 108.999 68.5v510c0 65.333 -9.83301 107.666 -29.5 126.999s-59.167 30.333 -118.5 33v65l332 19v-721
c0 -60 7.33301 -99.167 22 -117.5s42 -27.5 82 -27.5c10.667 0 18.667 0.166992 24 0.5s10.333 0.5 15 0.5v-79l-327 -49v135c-69.333 -48 -129 -82.5 -179 -103.5s-96.333 -31.5 -139 -31.5c-81.333 0 -144.333 27.833 -189 83.5s-67 135.5 -67 239.5v432
c0 59.333 -7.5 99.166 -22.5 119.499s-42.833 30.5 -83.5 30.5h-21z" />
    <glyph glyph-name="v" unicode="v" 
d="M563 250l153.998 415.998c10 26 18 51 24 75s9 42 9 54c0 25.333 -10.167 45.666 -30.5 60.999s-50.5 25 -90.5 29v73h354v-73c-37.333 -13.333 -69.166 -37.166 -95.499 -71.499s-57.166 -97.166 -92.499 -188.499l-168 -426c-13.333 -32 -26.5 -65.5 -39.5 -100.5
l-38.5 -108.5h-74c-20 57.333 -35.5 100.333 -46.5 129l-31.5 80l-231 573c-18.667 46 -36 76.333 -52 91s-37 22 -63 22h-10v73h430v-73c-35.333 -1.33301 -61.5 -7.66602 -78.5 -18.999s-25.5 -28.333 -25.5 -51c0 -11.333 1.33301 -23.833 4 -37.5
s6.66699 -27.167 12 -40.5z" />
    <glyph glyph-name="w" unicode="w" horiz-adv-x="1448" 
d="M410 -18c-11.333 38.667 -22.667 75.165 -34 109.498s-22.666 66.5 -33.999 96.5l-195 545c-18.667 54 -36.334 90.667 -53.001 110s-37.667 31.333 -63 36v79h397v-79h-6c-32 0 -57.167 -6.5 -75.5 -19.5s-27.5 -30.5 -27.5 -52.5c0 -13.333 8.33301 -43.333 25 -90
c1.33301 -4.66699 2.66602 -8.66699 3.99902 -12l158 -449l184 416l-33 90c-19.333 50.667 -35.333 83.167 -48 97.5s-28.667 21.5 -48 21.5c-6.66699 0 -11.667 -0.166992 -15 -0.5s-6.33301 -0.833008 -9 -1.5v79h426v-79h-9c-36.667 0 -64.5 -6.83301 -83.5 -20.5
s-28.5 -33.5 -28.5 -59.5c0 -11.333 1.66699 -24.333 5 -39s7.66602 -29 12.999 -43l172 -432l160 444c4 11.333 7 22.166 9 32.499s3 20.833 3 31.5c0 24.667 -9 43.5 -27 56.5s-48.667 22.833 -92 29.5v79h332v-79c-27.333 0 -51.5 -14.167 -72.5 -42.5
s-48.5 -88.166 -82.5 -179.499l-181 -481c-14 -36.667 -26.167 -71.167 -36.5 -103.5s-19.166 -62.5 -26.499 -90.5h-74c-9.33301 34.667 -19.5 68.834 -30.5 102.501s-22.5 66.834 -34.5 99.501l-148 377l-182 -395c-12.667 -28 -24.667 -57.167 -36 -87.5
s-22.666 -62.5 -33.999 -96.5h-69z" />
    <glyph glyph-name="x" unicode="x" 
d="M35 0l-0.00195312 86c24 0 50.5 9 79.5 27s57.167 43 84.5 75l188 224c8.66699 9.33301 15.334 17.833 20.001 25.5s7 14.167 7 19.5c0 4 -2.16699 9.5 -6.5 16.5s-10.5 15.833 -18.5 26.5l-164 227c-32 44.667 -64 79.667 -96 105s-63.333 40.333 -94 45v81h450v-81
c-26 -1.33301 -46.833 -7.5 -62.5 -18.5s-23.5 -25.5 -23.5 -43.5c0 -12 7 -30.833 21 -56.5s32.333 -51.834 55 -78.501l76 -88l114 128c11.333 12.667 20.333 27 27 43s10 30 10 42c0 24 -7.5 41.667 -22.5 53s-38.833 17.666 -71.5 18.999v81h346v-81
c-46 -2.66699 -91.667 -31.667 -137 -87c-3.33301 -4 -6 -7.33301 -8 -10l-174 -215l-2 -2c-18 -22 -27 -35.667 -27 -41c0 -2 1.66699 -5.66699 5 -11s10.666 -16 21.999 -32l188 -258c37.333 -49.333 68 -84.5 92 -105.5s45.333 -31.5 64 -31.5
c1.33301 0 3.33301 0.333008 6 1s4.66699 1 6 1v-86h-465v86c1.33301 0 3.66602 -0.333008 6.99902 -1c14 -2 24 -3 30 -3c22.667 0 40.334 4.83301 53.001 14.5s19 23.167 19 40.5c0 10 -2.66699 21.167 -8 33.5s-13.666 26.5 -24.999 42.5l-127 166l-104 -119
c-17.333 -20.667 -30.666 -40 -39.999 -58s-14 -34 -14 -48c0 -21.333 8.66699 -37.666 26 -48.999s42 -17.666 74 -18.999l1 -86h-381z" />
    <glyph glyph-name="y" unicode="y" horiz-adv-x="1020" 
d="M51 877v84.002h418v-84h-12c-27.333 0 -48.833 -5.66699 -64.5 -17s-23.5 -26.333 -23.5 -45c0 -16.667 3.5 -37.334 10.5 -62.001s17.167 -51.667 30.5 -81l188 -418l152 420c10 29.333 16.833 51.166 20.5 65.499s5.5 25.833 5.5 34.5
c0 27.333 -10.167 50.666 -30.5 69.999s-46.166 30.333 -77.499 33v84h356v-84c-40 -8.66699 -73 -26.167 -99 -52.5s-50.333 -68.5 -73 -126.5l-281 -727c-56.667 -147.333 -108.5 -247.333 -155.5 -300s-104.167 -79 -171.5 -79c-50 0 -90.167 11.167 -120.5 33.5
s-45.5 51.5 -45.5 87.5c0 26.667 8.66699 49.834 26 69.501s38 29.5 62 29.5c20 0 44.667 -12.667 74 -38s53.666 -38 72.999 -38c31.333 0 60.833 18.667 88.5 56s52.167 91 73.5 161l21 61l-305 698l-11 25c-35.333 83.333 -78.333 130 -129 140z" />
    <glyph glyph-name="z" unicode="z" horiz-adv-x="909" 
d="M61 0l0.00195312 76l588 805h-203c-77.333 0 -132.5 -10.833 -165.5 -32.5s-63.167 -58.834 -90.5 -111.501l-71 -6l18 252h30c5.33301 -10.667 14.5 -18.167 27.5 -22.5s43.167 -6.5 90.5 -6.5h592v-65l-592 -813h180c93.333 0 164.166 15.833 212.499 47.5
s89.5 88.167 123.5 169.5l76 -19c-8.66699 -28.667 -15.834 -55.167 -21.501 -79.5s-10.167 -48.166 -13.5 -71.499l-21 -123h-760z" />
    <glyph glyph-name="braceleft" unicode="{" 
d="M846 1516l0.00195312 -51c-94.667 -1.33301 -159.334 -19.833 -194.001 -55.5s-52 -105.5 -52 -209.5v-143c0 -150.667 -20.333 -253.5 -61 -308.5s-116 -92.833 -226 -113.5c110 -20.667 185.333 -58.5 226 -113.5s61 -157.833 61 -308.5v-143
c0 -104 17.167 -173.5 51.5 -208.5s99.166 -53.167 194.499 -54.5v-51h-10c-144.667 0 -244 24.5 -298 73.5s-81 139.833 -81 272.5v213c0 105.333 -19.667 178 -59 218s-113.333 64.333 -222 73v60c110 10 184.333 34.667 223 74s58 111.333 58 216v213
c0 133.333 27 224.5 81 273.5s153.333 73.5 298 73.5h10z" />
    <glyph glyph-name="bar" unicode="|" 
d="M449 1565h126v-2048h-126v2048z" />
    <glyph glyph-name="braceright" unicode="}" 
d="M178 1516h10.002c144 0 243.167 -24.667 297.5 -74s81.5 -140.333 81.5 -273v-213c0 -104.667 19.333 -176.667 58 -216s113 -64 223 -74v-60c-108.667 -8.66699 -182.667 -33 -222 -73s-59 -112.667 -59 -218v-213c0 -132 -27.167 -222.667 -81.5 -272
s-153.5 -74 -297.5 -74h-10v51c95.333 1.33301 160.166 19.5 194.499 54.5s51.5 104.5 51.5 208.5v143c0 150.667 20.333 253.5 61 308.5s116 92.833 226 113.5c-110 20.667 -185.333 58.5 -226 113.5s-61 157.833 -61 308.5v143c0 104 -17.333 173.833 -52 209.5
s-99.334 54.167 -194.001 55.5v51z" />
    <glyph glyph-name="asciitilde" unicode="~" horiz-adv-x="1706" 
d="M1530 758l-0.00195312 -130.999c-67.333 -48 -133.166 -84 -197.499 -108s-127.5 -36 -189.5 -36c-28.667 0 -58.834 3 -90.501 9s-65.167 14.667 -100.5 26c-20 6.66699 -49 17 -87 31c-134.667 48 -235.334 72 -302.001 72c-55.333 0 -113.166 -12.5 -173.499 -37.5
s-130.833 -65.833 -211.5 -122.5v133c70 48.667 137.333 85 202 109s126.334 36 185.001 36c37.333 0 76.166 -4.16699 116.499 -12.5s98.5 -25.833 174.5 -52.5c8 -2.66699 19.667 -7 35 -13c109.333 -39.333 194 -59 254 -59c56.667 0 115.334 12.167 176.001 36.5
s130.334 64.166 209.001 119.499z" />
    <glyph glyph-name="nonbreakingspace" unicode="&#xa0;" horiz-adv-x="1020" 
 />
    <glyph glyph-name="exclamdown" unicode="&#xa1;" horiz-adv-x="688" 
d="M213 1348c0 36.667 12.667 67.667 38 93s56.333 38 93 38s67.667 -12.667 93 -38s38 -56.333 38 -93s-12.833 -68.167 -38.5 -94.5s-56.5 -39.5 -92.5 -39.5c-36.667 0 -67.667 13 -93 39s-38 57.667 -38 95zM381 1032l68 -950v-21c0 -32 -8 -54.333 -24 -67
s-44.333 -19 -85 -19c-36.667 0 -63.667 7.16699 -81 21.5s-26 36.5 -26 66.5v17l74 952h74z" />
    <glyph glyph-name="cent" unicode="&#xa2;" horiz-adv-x="1020" 
d="M877 213c-56 -76.667 -116.001 -134.333 -180.001 -173s-131.667 -58 -203 -58c-15.333 0 -33.166 1.5 -53.499 4.5s-45.5 8.16699 -75.5 15.5l-113 -225l-74 28l111 234c-70 48.667 -121.667 108 -155 178s-50 154.667 -50 254c0 148 44.667 268.667 134 362
s204.333 140 345 140c24 0 49 -2.5 75 -7.5s54.333 -12.833 85 -23.5l123 254l76 -29l-129 -268c26 -24 45 -47 57 -69s18 -44.667 18 -68c0 -29.333 -7.66699 -52.333 -23 -69s-36.333 -25 -63 -25c-15.333 0 -29.333 3 -42 9s-26 16 -40 30l-249 -519
c22 -9.33301 41.167 -16 57.5 -20s31.166 -6 44.499 -6c46.667 0 91.334 8.33301 134.001 25s86.667 43 132 79zM656.999 805.001c-18.667 28 -40.668 48.668 -66.001 62.001s-55 20 -89 20c-75.333 0 -135.166 -29.333 -179.499 -88s-66.5 -138 -66.5 -238
c0 -64.667 11 -125.334 33 -182.001s54 -106 96 -148z" />
    <glyph glyph-name="sterling" unicode="&#xa3;" horiz-adv-x="1020" 
d="M57 682l-0.00292969 100.002h164c-12 48.667 -21.167 91.667 -27.5 129s-9.5 69.666 -9.5 96.999c0 126.667 39.833 231 119.5 313s181.167 123 304.5 123c92.667 0 172.834 -21.5 240.501 -64.5s101.5 -91.833 101.5 -146.5c0 -28.667 -8.16699 -52.167 -24.5 -70.5
s-36.833 -27.5 -61.5 -27.5c-22 0 -40.667 6.16699 -56 18.5s-31.333 35.5 -48 69.5c-27.333 54.667 -53.333 90.167 -78 106.5s-56 24.5 -94 24.5c-64 0 -113.5 -27.5 -148.5 -82.5s-52.5 -132.833 -52.5 -233.5c0 -40.667 2.83301 -82.334 8.5 -125.001
s14.5 -86.334 26.5 -131.001h248v-100h-234c16.667 -57.333 29 -109.166 37 -155.499s12 -87.5 12 -123.5c0 -20 -1.16699 -42 -3.5 -66s-5.83301 -48.667 -10.5 -74c44.667 -28.667 85.334 -50 122.001 -64s69.667 -21 99 -21c41.333 0 80.333 11.667 117 35
s73 59.666 109 108.999l61 -48c-35.333 -98 -78.333 -170.167 -129 -216.5s-112 -69.5 -184 -69.5c-44.667 0 -86 10.833 -124 32.5s-76.667 56.5 -116 104.5c-28 -46.667 -58.833 -81.167 -92.5 -103.5s-71.167 -33.5 -112.5 -33.5c-56.667 0 -101.167 16.333 -133.5 49
s-48.5 77.667 -48.5 135c0 54 17.5 98.833 52.5 134.5s78.167 53.5 129.5 53.5c20.667 0 43.167 -3.16699 67.5 -9.5s48.833 -15.833 73.5 -28.5c0.666992 2 1.33398 4.83301 2.00098 8.5s1 8.83398 1 15.501c0 36 -21.667 109 -65 219l-44 117h-199zM337.997 213.002
c-22.667 18.667 -43.667 32.499 -63 41.499s-37.333 13.5 -54 13.5c-24.667 0 -45.834 -9.16699 -63.501 -27.5s-26.5 -41.166 -26.5 -68.499s7.83301 -49.5 23.5 -66.5s35.834 -25.5 60.501 -25.5c27.333 0 51.333 11 72 33s37.667 55.333 51 100z" />
    <glyph glyph-name="currency" unicode="&#xa4;" horiz-adv-x="1241" 
d="M623 1200c-86.667 0 -160.667 -30.667 -222 -92s-92 -135 -92 -221c0 -87.333 30.5 -161.833 91.5 -223.5s135.167 -92.5 222.5 -92.5c86 0 159.667 31 221 93s92 136.333 92 223c0 86 -30.5 159.667 -91.5 221s-134.833 92 -221.5 92zM158 1419l207 -207.002
c40 30.667 80.833 53.5 122.5 68.5s86.167 22.5 133.5 22.5s92.5 -7.5 135.5 -22.5s84.5 -37.833 124.5 -68.5l204 207l72 -73l-205 -205c28.667 -38 50.167 -78.333 64.5 -121s21.5 -87.667 21.5 -135s-7.16699 -92.5 -21.5 -135.5s-35.833 -83.167 -64.5 -120.5l205 -205
l-72 -74l-204 207c-38 -29.333 -78.5 -51.333 -121.5 -66s-89.167 -22 -138.5 -22s-94.833 7.16699 -136.5 21.5s-81.5 36.5 -119.5 66.5l-207 -207l-72 74l207 205c-29.333 38.667 -51.333 79.334 -66 122.001s-22 87.334 -22 134.001c0 46 7.33301 90.5 22 133.5
s36.667 83.833 66 122.5l-207 205z" />
    <glyph glyph-name="yen" unicode="&#xa5;" horiz-adv-x="1452" 
d="M815 604l0.000976562 -309.001c0 -72 14.333 -124.5 43 -157.5s74.334 -49.5 137.001 -49.5v-88h-559l1 88c69.333 8 116.5 25.667 141.5 53s37.5 79.333 37.5 156v307h-532v82h487l-110 174h-377v82h328l-62 103c-2.66699 4 -6.33398 10 -11.001 18
c-103.333 172 -188.333 259.333 -255 262v84h549v-84h-27c-40 0 -70.5 -6.66699 -91.5 -20s-31.5 -32.666 -31.5 -57.999c0 -12.667 4.33301 -30.834 13 -54.501s20 -47.834 34 -72.501l238 -413c116 188.667 189.667 313.334 221 374.001s47 103 47 127
c0 35.333 -13.333 62.833 -40 82.5s-66.334 31.167 -119.001 34.5v84h485v-84c-86.667 -19.333 -171 -95.666 -253 -228.999l-9 -15l-86 -139h348v-84h-395l-109 -172h504v-82h-547z" />
    <glyph glyph-name="brokenbar" unicode="&#xa6;" 
d="M449 408h126v-758h-126v758zM449 1432h126v-758h-126v758z" />
    <glyph glyph-name="section" unicode="&#xa7;" horiz-adv-x="1020" 
d="M489 1384c-29.333 0 -53.335 -8.5 -72.002 -25.5s-28 -39.167 -28 -66.5c0 -48.667 42 -141.334 126 -278.001c41.333 -67.333 73 -120.666 95 -159.999c94.667 -170 160 -307 196 -411s54 -201 54 -291c0 -166 -37.667 -296.333 -113 -391s-179.666 -142 -312.999 -142
c-71.333 0 -129.833 13.833 -175.5 41.5s-68.5 62.167 -68.5 103.5c0 27.333 9.83301 50 29.5 68s44.834 27 75.501 27c17.333 0 33 -4.16699 47 -12.5s32.333 -26.166 55 -53.499c22.667 -28 43.334 -47 62.001 -57s40.334 -15 65.001 -15c31.333 0 57 10.667 77 32
s30 49 30 83c0 58 -45.667 168.667 -137 332l-25 45c-4 6.66699 -9.66699 16.667 -17 30c-194.667 344.667 -292 599.667 -292 765c0 141.333 38.333 255.833 115 343.5s176 131.5 298 131.5c78 0 139.5 -12.667 184.5 -38s67.5 -59.333 67.5 -102
c0 -26.667 -9 -48.334 -27 -65.001s-41.667 -25 -71 -25c-20 0 -38.5 4 -55.5 12s-39.5 24.667 -67.5 50c-4.66699 4 -10.334 9.33301 -17.001 16c-38.667 35.333 -71.334 53 -98.001 53zM714.998 -86c14 30.667 24.333 62.667 31 96s10 69 10 107c0 76 -12 153.333 -36 232
s-77 195.667 -159 351l-100 189c-96 179.333 -150 294.666 -162 345.999c-14 -34 -24.333 -66.333 -31 -97s-10 -59.667 -10 -87c0 -66 11.833 -138.333 35.5 -217s62.5 -173.667 116.5 -285c23.333 -49.333 61 -120.666 113 -213.999
c101.333 -184 165.333 -324.333 192 -421z" />
    <glyph glyph-name="dieresis" unicode="&#xa8;" 
d="M588 1243c0 26.667 10 49.667 30 69s43.333 29 70 29s49.667 -9.66699 69 -29s29 -42.333 29 -69c0 -28.667 -9.33301 -52.5 -28 -71.5s-42 -28.5 -70 -28.5s-51.667 9.66699 -71 29s-29 43 -29 71zM238 1243c0 26.667 9.66699 49.667 29 69s42.333 29 69 29
s50 -9.66699 70 -29s30 -42.333 30 -69c0 -28 -9.66699 -51.667 -29 -71s-43 -29 -71 -29s-51.333 9.5 -70 28.5s-28 42.833 -28 71.5z" />
    <glyph glyph-name="copyright" unicode="&#xa9;" horiz-adv-x="1683" 
d="M1120 1096l35.0049 -0.000976562l2 -314h-41c-22.667 91.333 -57.334 160 -104.001 206s-105.334 69 -176.001 69c-82 0 -143.833 -31.5 -185.5 -94.5s-62.5 -155.833 -62.5 -278.5c0 -126 22.333 -221 67 -285s111 -96 199 -96c57.333 0 109.333 14.333 156 43
s89 72.334 127 131.001l34 -24c-38.667 -70 -86.334 -122.333 -143.001 -157s-123 -52 -199 -52c-111.333 0 -206.333 41 -285 123s-118 181 -118 297c0 124 38.667 228 116 312s172.333 126 285 126c49.333 0 98.666 -11.333 147.999 -34s76.666 -34 81.999 -34
c18 0 32 4.83301 42 14.5s17 25.5 21 47.5zM844.005 1303c-82 0 -161.169 -16.167 -237.502 -48.5s-143.166 -77.833 -200.499 -136.5c-58.667 -59.333 -103.5 -126.833 -134.5 -202.5s-46.5 -154.834 -46.5 -237.501c0 -83.333 15.667 -162.833 47 -238.5
s76.666 -142.834 135.999 -201.501c58.667 -59.333 124.834 -104.333 198.501 -135s152.167 -46 235.5 -46c84 0 162.833 15.333 236.5 46s139.5 75.667 197.5 135c58.667 60 103.667 127.667 135 203s47 154.333 47 237s-15.833 162.834 -47.5 240.501
s-75.834 144.834 -132.501 201.501c-57.333 58 -124.166 103 -200.499 135s-154.166 48 -233.499 48zM844.003 1382c91.333 0 180.165 -17.833 266.498 -53.5s161.833 -85.834 226.5 -150.501c65.333 -64.667 116.166 -140.834 152.499 -228.501s54.5 -178.167 54.5 -271.5
s-17.667 -182.666 -53 -267.999s-86.666 -162 -153.999 -230c-65.333 -66.667 -140.333 -117.5 -225 -152.5s-174.667 -52.5 -270 -52.5s-185 17.5 -269 52.5s-159.667 85.833 -227 152.5s-118.666 142.334 -153.999 227.001s-53 175 -53 271
c0 93.333 17.667 182.833 53 268.5s86 162.167 152 229.5c65.333 66 141.333 116.833 228 152.5s177.334 53.5 272.001 53.5z" />
    <glyph glyph-name="ordfeminine" unicode="&#xaa;" horiz-adv-x="686" 
d="M662 836c-17.333 -23.333 -36.668 -41.166 -58.001 -53.499s-43 -18.5 -65 -18.5c-24.667 0 -46 7.83301 -64 23.5s-31.667 38.5 -41 68.5c-34 -28 -67.833 -49 -101.5 -63s-67.5 -21 -101.5 -21c-51.333 0 -93.833 14 -127.5 42s-50.5 63.333 -50.5 106
c0 60 29.5 110.5 88.5 151.5s156.5 78.5 292.5 112.5v94c0 40.667 -10.667 72 -32 94s-51.666 33 -90.999 33c-33.333 0 -60 -6.16699 -80 -18.5s-30 -28.833 -30 -49.5c0 -14.667 5 -31.167 15 -49.5s15 -29.166 15 -32.499c0 -8 -12.667 -18.167 -38 -30.5
s-49.333 -18.5 -72 -18.5c-12 0 -22.167 9.5 -30.5 28.5s-12.5 42.5 -12.5 70.5c0 45.333 27.167 83.166 81.5 113.499s123.5 45.5 207.5 45.5c72 0 123.667 -13.333 155 -40s47 -71.334 47 -134.001v-352c0 -22.667 2.33301 -38.5 7 -47.5s12 -13.5 22 -13.5
c11.333 0 22.333 1.66699 33 5s21 8.33301 31 15v-61zM433.998 1116c-83.333 -21.333 -143.331 -44.168 -179.998 -68.501s-55 -53.166 -55 -86.499c0 -26 9.66699 -47.333 29 -64s44.333 -25 75 -25c25.333 0 48.666 5.16699 69.999 15.5s41.666 26.5 60.999 48.5v180z" />
    <glyph glyph-name="guillemotleft" unicode="&#xab;" horiz-adv-x="887" 
d="M324 96c-32.667 66 -70.333 132.166 -113 198.499s-89.667 132.166 -141 197.499c52 62 99 125 141 189s79.667 130 113 198h137c-27.333 -71.333 -59.833 -139.166 -97.5 -203.499s-81.167 -125.5 -130.5 -183.5c44.667 -59.333 86 -122.166 124 -188.499
s72.667 -135.5 104 -207.5h-137zM678.001 95.999c-33.333 68 -71.167 135.166 -113.5 201.499s-88.5 131.166 -138.5 194.499c50.667 60 96.834 122 138.501 186s79.5 131 113.5 201h137c-27.333 -71.333 -59.833 -139.166 -97.5 -203.499s-80.834 -125.5 -129.501 -183.5
c44 -59.333 85 -122.166 123 -188.499s72.667 -135.5 104 -207.5h-137z" />
    <glyph glyph-name="logicalnot" unicode="&#xac;" horiz-adv-x="1706" 
d="M254 858h1198v-502h-115v385h-1083v117z" />
    <glyph glyph-name="sfthyphen" unicode="&#xad;" horiz-adv-x="682" 
d="M94 408v170h494v-170h-494z" />
    <glyph glyph-name="registered" unicode="&#xae;" horiz-adv-x="1683" 
d="M729 719c10.667 -0.666992 21.334 -1.16797 32.001 -1.50098s22 -0.5 34 -0.5c74.667 0 132.5 15.167 173.5 45.5s61.5 73.166 61.5 128.499c0 48.667 -17.667 87.834 -53 117.501s-83 44.5 -143 44.5c-34.667 0 -60.834 -6.16699 -78.501 -18.5
s-26.5 -30.166 -26.5 -53.499v-262zM469 1092l393 -0.000976562c98 0 175.5 -18.167 232.5 -54.5s85.5 -85.166 85.5 -146.499c0 -50.667 -23.167 -92 -69.5 -124s-118.833 -57 -217.5 -75c62 -19.333 109.333 -45.166 142 -77.499s56.334 -76.833 71.001 -133.5
c4 -14.667 7.66699 -35.667 11 -63c8.66699 -58.667 28.334 -88 59.001 -88c21.333 0 37.833 11.333 49.5 34s17.5 55.667 17.5 99h43v-12c0 -58.667 -13.5 -103.167 -40.5 -133.5s-66.833 -45.5 -119.5 -45.5c-30.667 0 -56.834 5.66699 -78.501 17
s-37.834 27.666 -48.501 48.999c-12 26.667 -19 64.5 -21 113.5s-5 80.833 -9 95.5c-13.333 45.333 -36.833 78.833 -70.5 100.5s-79.167 32.5 -136.5 32.5h-33v-248c0 -36 8.83301 -61.167 26.5 -75.5s50.5 -22.833 98.5 -25.5v-40h-385v40c48 2 81.167 10.167 99.5 24.5
s27.5 39.833 27.5 76.5v516c0 36.667 -8.66699 62 -26 76s-51 22.333 -101 25v43zM844 1303c-81.333 0 -160.002 -15.9971 -236.002 -47.9971s-143.333 -77.667 -202 -137s-103.5 -126.833 -134.5 -202.5s-46.5 -154.834 -46.5 -237.501
c0 -84.667 15.5 -164.334 46.5 -239.001s76.5 -141.667 136.5 -201c58.667 -59.333 124.834 -104.333 198.501 -135s152.167 -46 235.5 -46c84 0 162.833 15.333 236.5 46s139.5 75.667 197.5 135c58.667 60 103.667 127.667 135 203s47 154.333 47 237
s-15.833 163.167 -47.5 241.5s-75.834 145.166 -132.501 200.499c-57.333 58 -124.166 103 -200.499 135s-154.166 48 -233.499 48zM843.998 1382c92 0 181.499 -18.001 268.499 -54.001s163.167 -86.667 228.5 -152c64.667 -64.667 114.667 -140.667 150 -228
s53 -178 53 -272c0 -91.333 -18.5 -180.5 -55.5 -267.5s-89.5 -164.5 -157.5 -232.5c-66 -66 -140.833 -116 -224.5 -150s-173.834 -51 -270.501 -51c-91.333 0 -179 17.5 -263 52.5s-159.667 85.833 -227 152.5s-118.666 142.334 -153.999 227.001s-53 175 -53 271
c0 93.333 17.667 182.833 53 268.5s86 162.167 152 229.5c65.333 66 141.333 116.833 228 152.5s177.334 53.5 272.001 53.5z" />
    <glyph glyph-name="macron" unicode="&#xaf;" 
d="M254 1180v125h516v-125h-516z" />
    <glyph glyph-name="degree" unicode="&#xb0;" horiz-adv-x="674" 
d="M338 1372c-56 0 -103.833 -19.5 -143.5 -58.5s-59.5 -86.5 -59.5 -142.5s19.833 -103.667 59.5 -143s87.5 -59 143.5 -59s103.5 19.667 142.5 59s58.5 87 58.5 143s-19.5 103.5 -58.5 142.5s-86.5 58.5 -142.5 58.5zM338 1454c78 0 144.668 -27.6689 200.001 -83.002
s83 -122 83 -200c0 -77.333 -27.833 -143.666 -83.5 -198.999s-122.834 -83 -201.501 -83s-145.167 27.333 -199.5 82s-81.5 121.334 -81.5 200.001c0 79.333 27.5 146.333 82.5 201s121.833 82 200.5 82z" />
    <glyph glyph-name="plusminus" unicode="&#xb1;" horiz-adv-x="1706" 
d="M254 158h1198v-117h-1198v117zM795 1180h118v-344h539v-117h-539v-344h-118v344h-541v117h541v344z" />
    <glyph glyph-name="twosuperior" unicode="&#xb2;" horiz-adv-x="674" 
d="M53 565v58c139.333 140 240.833 255 304.5 345s95.5 163.333 95.5 220c0 42 -15.5 77.333 -46.5 106s-68.833 43 -113.5 43c-32 0 -62.833 -7.16699 -92.5 -21.5s-58.167 -35.833 -85.5 -64.5l-33 33c41.333 49.333 83.333 85.5 126 108.5s89.334 34.5 140.001 34.5
c70 0 127.167 -18.333 171.5 -55s66.5 -83.667 66.5 -141c0 -56.667 -28.5 -125.167 -85.5 -205.5s-162.5 -196.833 -316.5 -349.5h258c40.667 0 68.667 4.66699 84 14s31.666 26.333 48.999 51l28 -6c5.33301 -2 9.5 -4 12.5 -6s4.83301 -4 5.5 -6l-13 -25l-61 -133h-494z
" />
    <glyph glyph-name="threesuperior" unicode="&#xb3;" horiz-adv-x="674" 
d="M158 963l1.99609 60.999c83.333 14.667 148.833 38.834 196.5 72.501s71.5 72.167 71.5 115.5c0 42.667 -12.667 76.667 -38 102s-59.666 38 -102.999 38c-20.667 0 -42 -5.16699 -64 -15.5s-52.667 -30.5 -92 -60.5l-39 18c33.333 46.667 70.333 81.334 111 104.001
s86.334 34 137.001 34c61.333 0 112.833 -17.333 154.5 -52s62.5 -77 62.5 -127c0 -36 -12.333 -70.5 -37 -103.5s-60.667 -62.5 -108 -88.5c62.667 -24.667 109.667 -54.667 141 -90s47 -76.333 47 -123c0 -86.667 -38.667 -157.167 -116 -211.5s-180 -81.5 -308 -81.5
c-32 0 -57 4.83301 -75 14.5s-27 23.167 -27 40.5c0 15.333 6.33301 27.833 19 37.5s29.334 14.5 50.001 14.5c14 0 40.5 -3.5 79.5 -10.5s70.5 -10.5 94.5 -10.5c50 0 89.5 13.5 118.5 40.5s43.5 63.5 43.5 109.5c0 57.333 -21.667 100.666 -65 129.999
s-107.666 44 -192.999 44c-6.66699 0 -17 -0.333008 -31 -1s-24.667 -1 -32 -1z" />
    <glyph glyph-name="acute" unicode="&#xb4;" 
d="M336 1087l289 299c23.333 24 41.833 40 55.5 48s27.167 12 40.5 12c22 0 39.833 -6.33301 53.5 -19s20.5 -29.667 20.5 -51c0 -14.667 -5.16699 -29 -15.5 -43s-25.833 -27.667 -46.5 -41l-330 -205h-67z" />
    <glyph glyph-name="mu" unicode="&#xb5;" horiz-adv-x="1120" 
d="M164 193c-18 -90.667 -35.3301 -203.666 -51.9971 -338.999c-22.667 -181.333 -60 -272 -112 -272c-24.667 0 -44.167 7.83301 -58.5 23.5s-21.5 37.167 -21.5 64.5c0 26.667 21.5 117.834 64.5 273.501s78.167 298.167 105.5 427.5l109 514h147l-104 -492
c-4 -20 -7.16699 -39.5 -9.5 -58.5s-3.5 -36.833 -3.5 -53.5c0 -55.333 14 -98.333 42 -129s67.333 -46 118 -46c65.333 0 119.833 22.833 163.5 68.5s75.167 112.5 94.5 200.5l111 510h149l-114 -531c-8.66699 -39.333 -14.334 -68.5 -17.001 -87.5s-4 -35.5 -4 -49.5
c0 -32 8.66699 -58 26 -78s39.333 -30 66 -30c23.333 0 45.166 6 65.499 18s37.5 29 51.5 51s27.667 53.167 41 93.5s26.333 60.5 39 60.5c8 0 14.333 -3.33301 19 -10s7 -15.667 7 -27c0 -16.667 -3.66699 -38.834 -11 -66.501s-17 -55.5 -29 -83.5
c-25.333 -54.667 -57 -95.5 -95 -122.5s-83 -40.5 -135 -40.5c-45.333 0 -81.5 17 -108.5 51s-40.5 80.333 -40.5 139v23c-30.667 -73.333 -69.334 -128 -116.001 -164s-101.667 -54 -165 -54c-64 0 -114.833 18.167 -152.5 54.5s-61.167 90.166 -70.5 161.499z" />
    <glyph glyph-name="paragraph" unicode="&#xb6;" 
d="M948 1479l-0.00195312 -78h-125v-1401h-94v1401h-182v-1401h-96v782c-115.333 5.33301 -206.666 39.5 -273.999 102.5s-101 144.833 -101 245.5c0 104.667 35.833 189 107.5 253s166.834 96 285.501 96h479z" />
    <glyph glyph-name="periodcentered" unicode="&#xb7;" horiz-adv-x="510" 
d="M125 707c0 36.667 12.667 67.6689 38 93.002s56.333 38 93 38s67.667 -12.667 93 -38s38 -56.333 38 -93s-12.833 -67.834 -38.5 -93.501s-56.5 -38.5 -92.5 -38.5c-36.667 0 -67.667 12.667 -93 38s-38 56.666 -38 93.999z" />
    <glyph glyph-name="cedilla" unicode="&#xb8;" 
d="M244 -371l35.002 78.002c40 -22.667 79.5 -40.334 118.5 -53.001s73.833 -19 104.5 -19c42.667 0 73.834 7.5 93.501 22.5s29.5 38.5 29.5 70.5c0 27.333 -9.83301 48.833 -29.5 64.5s-46.834 23.5 -81.501 23.5c-10 0 -20.5 -0.5 -31.5 -1.5s-22.167 -2.5 -33.5 -4.5
v190h63v-112c10.667 1.33301 21.167 2.5 31.5 3.5s20.166 1.83301 29.499 2.5c58 0 103 -14.5 135 -43.5s48 -69.167 48 -120.5c0 -54.667 -19.5 -97.667 -58.5 -129s-92.5 -47 -160.5 -47c-36.667 0 -77.334 5.66699 -122.001 17s-101.667 30.666 -171 57.999z" />
    <glyph glyph-name="onesuperior" unicode="&#xb9;" horiz-adv-x="672" 
d="M147 565l0.000976562 52.998h19c41.333 0 70 7.33301 86 22s24 40.334 24 77.001v506c0 42.667 -8.33301 70.334 -25 83.001s-51.334 19 -104.001 19v43l252 59v-706c0 -36.667 8.5 -63 25.5 -79s45.5 -24 85.5 -24h16v-53h-379z" />
    <glyph glyph-name="ordmasculine" unicode="&#xba;" horiz-adv-x="782" 
d="M207 1171c0 -102.667 18.833 -186.333 56.5 -251s85.167 -97 142.5 -97c55.333 0 97.333 20.167 126 60.5s43 99.5 43 177.5c0 104 -18.667 187.667 -56 251s-86 95 -146 95c-53.333 0 -94.333 -20.333 -123 -61s-43 -99 -43 -175zM391 768.001
c-96 0 -176.333 32.834 -241 98.501s-97 147.5 -97 245.5c0 102.667 31.667 186.667 95 252s144.333 98 243 98c97.333 0 178 -32.833 242 -98.5s96 -148.834 96 -249.501c0 -101.333 -31.667 -184.333 -95 -249s-144.333 -97 -243 -97z" />
    <glyph glyph-name="guillemotright" unicode="&#xbb;" horiz-adv-x="887" 
d="M563 96l-137 0.000976562c31.333 72 66 141.167 104 207.5s79 129.166 123 188.499c-48.667 58 -91.834 119.167 -129.501 183.5s-70.167 132.166 -97.5 203.499h137c34 -70 71.833 -137 113.5 -201s87.834 -126 138.501 -186c-50 -63.333 -96 -128.166 -138 -194.499
s-80 -133.5 -114 -201.5zM209 96.001l-137.004 -0.00195312c32 74.667 66.833 144.834 104.5 210.501s77.834 127.5 120.501 185.5c-48 56.667 -90.667 117 -128 181s-69.666 132.667 -96.999 206h137c34 -70 71.833 -137 113.5 -201s87.834 -126 138.501 -186
c-50 -63.333 -96.167 -128.166 -138.5 -194.499s-80.166 -133.5 -113.499 -201.5z" />
    <glyph glyph-name="onequarter" unicode="&#xbc;" horiz-adv-x="1626" 
d="M1343 -14v235h-331v78l393 506h57v-496h140v-88h-140v-235h-119zM1343 309v336l-253 -336h253zM299 -25l911 1461h119l-913 -1461h-117zM141 621v51.001h19c39.333 0 66.5 6.5 81.5 19.5s22.5 36.5 22.5 70.5v473c0 40 -7.66699 65.667 -23 77s-48.333 17.666 -99 18.999
l-1 39l242 55v-659c0 -34 8 -58.167 24 -72.5s42.667 -21.5 80 -21.5h15v-51h-361z" />
    <glyph glyph-name="onehalf" unicode="&#xbd;" horiz-adv-x="1626" 
d="M1036 0l-0.00195312 52.999c131.333 129.333 227.666 236.5 288.999 321.5s92 154.167 92 207.5c0 38.667 -14.5 71.5 -43.5 98.5s-64.833 40.5 -107.5 40.5c-31.333 0 -61.166 -6.66699 -89.499 -20s-55.166 -33.333 -80.499 -60l-33 31c40 46 80.5 79.667 121.5 101
s85.833 32 134.5 32c65.333 0 119.166 -17.5 161.499 -52.5s63.5 -78.833 63.5 -131.5s-27.167 -116.5 -81.5 -191.5s-154.833 -184.167 -301.5 -327.5h246c38.667 0 65.334 4.66699 80.001 14s30.334 26 47.001 50l24 -8c6 -1.33301 10.667 -3 14 -5s5 -4 5 -6
c-2.66699 -5.33301 -6 -12.666 -10 -21.999l-60 -125h-471zM298.998 -25.001l911 1461h119l-913 -1461h-117zM140.998 620.999v51.001h19c39.333 0 66.5 6.5 81.5 19.5s22.5 36.5 22.5 70.5v473c0 40 -7.66699 65.667 -23 77s-48.333 17.666 -99 18.999l-1 39l242 55v-659
c0 -34 8 -58.167 24 -72.5s42.667 -21.5 80 -21.5h15v-51h-361z" />
    <glyph glyph-name="threequarters" unicode="&#xbe;" horiz-adv-x="1626" 
d="M1343 -14v235h-331v78l393 506h57v-496h140v-88h-140v-235h-119zM1343 309v336l-253 -336h253zM299 -25l911 1461h119l-913 -1461h-117zM150 991l2.00098 58.001c80.667 13.333 143.5 35.5 188.5 66.5s67.5 67.5 67.5 109.5c0 39.333 -12.167 70.666 -36.5 93.999
s-56.833 35 -97.5 35c-21.333 0 -43.333 -5.16699 -66 -15.5s-50.334 -28.5 -83.001 -54.5l-37 16c32 44.667 67.167 77.5 105.5 98.5s82.5 31.5 132.5 31.5c57.333 0 106 -16.333 146 -49s60 -71.667 60 -117c0 -34 -11.833 -66.5 -35.5 -97.5
s-58.167 -58.833 -103.5 -83.5c60 -23.333 105 -51.666 135 -84.999s45 -71 45 -113c0 -81.333 -36.667 -147.166 -110 -197.499s-171.666 -75.5 -294.999 -75.5c-30.667 0 -54.667 4.66699 -72 14s-26 22 -26 38c0 13.333 6.16699 24.5 18.5 33.5s28.5 13.5 48.5 13.5
c13.333 0 38.666 -3.5 75.999 -10.5s67.333 -10.5 90 -10.5c47.333 0 84.833 12.667 112.5 38s41.5 59.666 41.5 102.999c0 53.333 -20.833 93.666 -62.5 120.999s-102.834 41 -183.501 41c-6.66699 0 -16.667 -0.333008 -30 -1s-23.666 -1 -30.999 -1z" />
    <glyph glyph-name="questiondown" unicode="&#xbf;" horiz-adv-x="909" 
d="M500 1081l54.998 4h8c18.667 0 28 -9.33301 28 -28c0.666992 -6 1 -11 1 -15l22 -294c-180 -58 -293.167 -105.333 -339.5 -142s-69.5 -84.334 -69.5 -143.001c0 -84.667 29.5 -159.167 88.5 -223.5s128.5 -96.5 208.5 -96.5c23.333 0 53.333 5.16699 90 15.5
s61.334 15.5 74.001 15.5c25.333 0 45.666 -7.83301 60.999 -23.5s23 -36.5 23 -62.5c0 -34 -14.5 -61.333 -43.5 -82s-67.167 -31 -114.5 -31c-46.667 0 -95.667 11.333 -147 34s-100 54.334 -146 95.001c-75.333 66 -132.666 138.833 -171.999 218.5
s-59 161.834 -59 246.501c0 40.667 6.83301 78.667 20.5 114s34.167 67 61.5 95c20.667 22 80.334 53 179.001 93l64 26c46.667 18 76.5 36 89.5 54s19.5 46.333 19.5 85c0 11.333 -0.166992 20.166 -0.5 26.499s-0.833008 12.5 -1.5 18.5zM687.998 1346
c0 -37.333 -12.667 -68.666 -38 -93.999s-56.333 -38 -93 -38s-67.667 12.667 -93 38s-38 56.666 -38 93.999c0 36.667 12.833 68 38.5 94s56.5 39 92.5 39c36.667 0 67.667 -13 93 -39s38 -57.333 38 -94z" />
    <glyph glyph-name="Agrave" unicode="&#xc0;" horiz-adv-x="1475" 
d="M483 702h379l-186 545zM55 0l0.00195312 89.999c46 8.66699 82.667 27.5 110 56.5s57.666 90.167 90.999 183.5l354 999c0.666992 1.33301 2 4.33301 4 9c10 26 15 45.667 15 59c0 9.33301 -1.83301 18.333 -5.5 27s-8.83398 17.334 -15.501 26.001h217l412 -1141
c26.667 -76 54.334 -130.167 83.001 -162.5s63.667 -51.166 105 -56.499v-90h-557v90c56.667 6.66699 95.5 17.5 116.5 32.5s31.5 38.5 31.5 70.5c0 16.667 -1.83301 34.667 -5.5 54s-8.83398 38 -15.501 56l-98 285h-453l-71 -244c-5.33301 -18.667 -9.5 -37.5 -12.5 -56.5
s-4.5 -36.167 -4.5 -51.5c0 -41.333 11.5 -72.833 34.5 -94.5s62.833 -38.834 119.5 -51.501v-90h-455zM913.002 1589h-67l-330 205c-20.667 13.333 -36.167 27 -46.5 41s-15.5 28.333 -15.5 43c0 21.333 6.83301 38.333 20.5 51s31.5 19 53.5 19
c13.333 0 26.833 -4 40.5 -12s32.167 -24 55.5 -48z" />
    <glyph glyph-name="Aacute" unicode="&#xc1;" horiz-adv-x="1475" 
d="M483 702h379l-186 545zM55 0l0.00195312 89.999c46 8.66699 82.667 27.5 110 56.5s57.666 90.167 90.999 183.5l354 999c0.666992 1.33301 2 4.33301 4 9c10 26 15 45.667 15 59c0 9.33301 -1.83301 18.333 -5.5 27s-8.83398 17.334 -15.501 26.001h217l412 -1141
c26.667 -76 54.334 -130.167 83.001 -162.5s63.667 -51.166 105 -56.499v-90h-557v90c56.667 6.66699 95.5 17.5 116.5 32.5s31.5 38.5 31.5 70.5c0 16.667 -1.83301 34.667 -5.5 54s-8.83398 38 -15.501 56l-98 285h-453l-71 -244c-5.33301 -18.667 -9.5 -37.5 -12.5 -56.5
s-4.5 -36.167 -4.5 -51.5c0 -41.333 11.5 -72.833 34.5 -94.5s62.833 -38.834 119.5 -51.501v-90h-455zM561.002 1589l289 299c23.333 24 41.833 40 55.5 48s27.167 12 40.5 12c22 0 39.833 -6.33301 53.5 -19s20.5 -29.667 20.5 -51c0 -14.667 -5.16699 -29 -15.5 -43
s-25.833 -27.667 -46.5 -41l-330 -205h-67z" />
    <glyph glyph-name="Acircumflex" unicode="&#xc2;" horiz-adv-x="1475" 
d="M483 702h379l-186 545zM55 0l0.00195312 89.999c46 8.66699 82.667 27.5 110 56.5s57.666 90.167 90.999 183.5l354 999c0.666992 1.33301 2 4.33301 4 9c10 26 15 45.667 15 59c0 9.33301 -1.83301 18.333 -5.5 27s-8.83398 17.334 -15.501 26.001h217l412 -1141
c26.667 -76 54.334 -130.167 83.001 -162.5s63.667 -51.166 105 -56.499v-90h-557v90c56.667 6.66699 95.5 17.5 116.5 32.5s31.5 38.5 31.5 70.5c0 16.667 -1.83301 34.667 -5.5 54s-8.83398 38 -15.501 56l-98 285h-453l-71 -244c-5.33301 -18.667 -9.5 -37.5 -12.5 -56.5
s-4.5 -36.167 -4.5 -51.5c0 -41.333 11.5 -72.833 34.5 -94.5s62.833 -38.834 119.5 -51.501v-90h-455zM446.002 1589l232 349h118l232 -349h-58l-233 211l-233 -211h-58z" />
    <glyph glyph-name="Atilde" unicode="&#xc3;" horiz-adv-x="1475" 
d="M483 702h379l-186 545zM55 0l0.00195312 89.999c46 8.66699 82.667 27.5 110 56.5s57.666 90.167 90.999 183.5l354 999c0.666992 1.33301 2 4.33301 4 9c10 26 15 45.667 15 59c0 9.33301 -1.83301 18.333 -5.5 27s-8.83398 17.334 -15.501 26.001h217l412 -1141
c26.667 -76 54.334 -130.167 83.001 -162.5s63.667 -51.166 105 -56.499v-90h-557v90c56.667 6.66699 95.5 17.5 116.5 32.5s31.5 38.5 31.5 70.5c0 16.667 -1.83301 34.667 -5.5 54s-8.83398 38 -15.501 56l-98 285h-453l-71 -244c-5.33301 -18.667 -9.5 -37.5 -12.5 -56.5
s-4.5 -36.167 -4.5 -51.5c0 -41.333 11.5 -72.833 34.5 -94.5s62.833 -38.834 119.5 -51.501v-90h-455zM1024 1886c-13.333 -68.667 -36.166 -119.833 -68.499 -153.5s-74.5 -50.5 -126.5 -50.5c-10 0 -21 0.833008 -33 2.5s-25.667 4.16699 -41 7.5l-109 29
c-8 2 -16 3.5 -24 4.5s-16 1.5 -24 1.5c-26 0 -46.167 -6.66699 -60.5 -20s-26.5 -36.666 -36.5 -69.999h-51c12.667 70 35.167 122.167 67.5 156.5s75.5 51.5 129.5 51.5c17.333 0 30.166 -0.333008 38.499 -1s16.833 -2.33398 25.5 -5.00098l109 -28
c16 -4 28.167 -6.83301 36.5 -8.5s14.833 -2.5 19.5 -2.5c24 0 43.333 6.83301 58 20.5s26.667 35.5 36 65.5h54z" />
    <glyph glyph-name="Adieresis" unicode="&#xc4;" horiz-adv-x="1475" 
d="M483 702h379l-186 545zM55 0l0.00195312 89.999c46 8.66699 82.667 27.5 110 56.5s57.666 90.167 90.999 183.5l354 999c0.666992 1.33301 2 4.33301 4 9c10 26 15 45.667 15 59c0 9.33301 -1.83301 18.333 -5.5 27s-8.83398 17.334 -15.501 26.001h217l412 -1141
c26.667 -76 54.334 -130.167 83.001 -162.5s63.667 -51.166 105 -56.499v-90h-557v90c56.667 6.66699 95.5 17.5 116.5 32.5s31.5 38.5 31.5 70.5c0 16.667 -1.83301 34.667 -5.5 54s-8.83398 38 -15.501 56l-98 285h-453l-71 -244c-5.33301 -18.667 -9.5 -37.5 -12.5 -56.5
s-4.5 -36.167 -4.5 -51.5c0 -41.333 11.5 -72.833 34.5 -94.5s62.833 -38.834 119.5 -51.501v-90h-455zM813.002 1745c0 26.667 10 49.667 30 69s43.333 29 70 29s49.667 -9.66699 69 -29s29 -42.333 29 -69c0 -28.667 -9.33301 -52.5 -28 -71.5s-42 -28.5 -70 -28.5
s-51.667 9.66699 -71 29s-29 43 -29 71zM463.002 1745c0 26.667 9.66699 49.667 29 69s42.333 29 69 29s50 -9.66699 70 -29s30 -42.333 30 -69c0 -28 -9.66699 -51.667 -29 -71s-43 -29 -71 -29s-51.333 9.5 -70 28.5s-28 42.833 -28 71.5z" />
    <glyph glyph-name="Aring" unicode="&#xc5;" horiz-adv-x="1475" 
d="M582 1737c0 -41.333 14 -76 42 -104s62.333 -42 103 -42s75 14.167 103 42.5s42 62.833 42 103.5s-14.167 75.334 -42.5 104.001s-62.5 43 -102.5 43c-40.667 0 -75 -14.333 -103 -43s-42 -63.334 -42 -104.001zM492 1737c0 65.333 22.833 120.833 68.5 166.5
s101.167 68.5 166.5 68.5c66 0 121.833 -22.667 167.5 -68s68.5 -101 68.5 -167s-23 -121.833 -69 -167.5s-101.667 -68.5 -167 -68.5s-120.833 22.833 -166.5 68.5s-68.5 101.5 -68.5 167.5zM483 702h379l-186 545zM55 0v90.002c46 8.66699 82.5 27 109.5 55
s57.5 89.667 91.5 185l350 982l1 3c12 30.667 18 53 18 67c0 10 -1.66699 19.167 -5 27.5s-8.66602 17.166 -15.999 26.499h227l406 -1127c26.667 -74.667 54.167 -128.167 82.5 -160.5s63.5 -51.833 105.5 -58.5v-90h-557v90c56.667 6.66699 95.5 17.5 116.5 32.5
s31.5 38.5 31.5 70.5c0 16.667 -1.83301 34.667 -5.5 54s-8.83398 38 -15.501 56l-98 285h-453l-71 -244c-5.33301 -18.667 -9.5 -37.5 -12.5 -56.5s-4.5 -36.167 -4.5 -51.5c0 -41.333 11.5 -72.833 34.5 -94.5s62.833 -38.834 119.5 -51.501v-90h-455z" />
    <glyph glyph-name="AE" unicode="&#xc6;" horiz-adv-x="2034" 
d="M55 0l-0.00195312 90.0029c46.667 8.66699 83.667 27.667 111 57s57.333 90.333 90 183l307 872c8 22 13.5 39.167 16.5 51.5s4.5 23.166 4.5 32.499c0 28 -9.16699 48.333 -27.5 61s-47.5 19 -87.5 19h-27v84h1135l94 -301l-86 -14
c-48.667 85.333 -104 144.833 -166 178.5s-155.333 50.5 -280 50.5h-170c-28.667 0 -47.5 -2.16699 -56.5 -6.5s-13.5 -12.5 -13.5 -24.5c0 -4 0.833008 -9.33301 2.5 -16s4.16699 -15.334 7.5 -26.001l172 -509h168c76.667 0 129.334 8.16699 158.001 24.5
s43 45.166 43 86.499c0 11.333 -1.33301 25.666 -4 42.999s-6.66699 38.333 -12 63h92l164 -483h-93c-27.333 64.667 -61.333 109.5 -102 134.5s-100.667 37.5 -180 37.5h-203l133 -395c29.333 -87.333 59.833 -143.666 91.5 -168.999s79.834 -38 144.501 -38
c90.667 0 165.667 20.833 225 62.5s123.333 121.167 192 238.5l87 -14l-84 -373h-1033v90c55.333 6.66699 93.833 17.334 115.5 32.001s32.5 36.667 32.5 66c0 14.667 -2.16699 32.167 -6.5 52.5s-10.5 41.166 -18.5 62.499l-96 285h-440l-72 -205
c-12 -35.333 -20.5 -64.333 -25.5 -87s-7.5 -42 -7.5 -58c0 -38 13.333 -69.333 40 -94s66.667 -42.667 120 -54v-90h-455zM495.998 702.003h366l-178 527z" />
    <glyph glyph-name="Ccedilla" unicode="&#xc7;" horiz-adv-x="1364" 
d="M1219 406h89.999l-37 -310c-91.333 -42.667 -177.166 -74.5 -257.499 -95.5s-157.833 -31.5 -232.5 -31.5c-104.667 0 -199.667 18 -285 54s-163 91 -233 165c-65.333 70 -113.666 147.333 -144.999 232s-47 181 -47 289c0 104.667 13.5 198.667 40.5 282
s68.833 158.666 125.5 225.999c69.333 84 153.333 149 252 195s203.667 69 315 69c66.667 0 136.667 -9.66699 210 -29s152 -48.666 236 -87.999l39 -299l-88 -8c-30.667 106.667 -84 189.334 -160 248.001s-168 88 -276 88c-138.667 0 -246.334 -54 -323.001 -162
s-115 -260.333 -115 -457c0 -218.667 42 -391.834 126 -519.501s197 -191.5 339 -191.5c101.333 0 187 28.167 257 84.5s126.333 142.5 169 258.5zM501.999 -371l35.002 78.002c40 -22.667 79.5 -40.334 118.5 -53.001s73.833 -19 104.5 -19
c42.667 0 73.834 7.5 93.501 22.5s29.5 38.5 29.5 70.5c0 27.333 -9.83301 48.833 -29.5 64.5s-46.834 23.5 -81.501 23.5c-10 0 -20.5 -0.5 -31.5 -1.5s-22.167 -2.5 -33.5 -4.5v190h63v-112c10.667 1.33301 21.167 2.5 31.5 3.5s20.166 1.83301 29.499 2.5
c58 0 103 -14.5 135 -43.5s48 -69.167 48 -120.5c0 -54.667 -19.5 -97.667 -58.5 -129s-92.5 -47 -160.5 -47c-36.667 0 -77.334 5.66699 -122.001 17s-101.667 30.666 -171 57.999z" />
    <glyph glyph-name="Egrave" unicode="&#xc8;" horiz-adv-x="1352" 
d="M82 0l0.000976562 90.001c80 9.33301 133.5 28 160.5 56s40.5 85 40.5 171v830c0 86 -13.5 143 -40.5 171s-80.5 46.667 -160.5 56v76h1151l10 -307h-86c-23.333 82 -65.5 139.667 -126.5 173s-160.167 50 -297.5 50h-147c-32 0 -52 -3.83301 -60 -11.5
s-12 -27.167 -12 -58.5v-481h164c124.667 0 207.667 14 249 42s62.666 78.667 63.999 152l88 1v-488l-88 1c-2 75.333 -24 127.166 -66 155.499s-124.333 42.5 -247 42.5h-164v-422c0 -80 18.833 -135.167 56.5 -165.5s107.5 -45.5 209.5 -45.5
c100 0 185.167 23.333 255.5 70s129.833 119.667 178.5 219l91 -23l-88 -354h-1135zM852.001 1589h-67l-330 205c-20.667 13.333 -36.167 27 -46.5 41s-15.5 28.333 -15.5 43c0 21.333 6.83301 38.333 20.5 51s31.5 19 53.5 19c13.333 0 26.833 -4 40.5 -12
s32.167 -24 55.5 -48z" />
    <glyph glyph-name="Eacute" unicode="&#xc9;" horiz-adv-x="1352" 
d="M82 0l0.000976562 90.001c80 9.33301 133.5 28 160.5 56s40.5 85 40.5 171v830c0 86 -13.5 143 -40.5 171s-80.5 46.667 -160.5 56v76h1151l10 -307h-86c-23.333 82 -65.5 139.667 -126.5 173s-160.167 50 -297.5 50h-147c-32 0 -52 -3.83301 -60 -11.5
s-12 -27.167 -12 -58.5v-481h164c124.667 0 207.667 14 249 42s62.666 78.667 63.999 152l88 1v-488l-88 1c-2 75.333 -24 127.166 -66 155.499s-124.333 42.5 -247 42.5h-164v-422c0 -80 18.833 -135.167 56.5 -165.5s107.5 -45.5 209.5 -45.5
c100 0 185.167 23.333 255.5 70s129.833 119.667 178.5 219l91 -23l-88 -354h-1135zM500.001 1589l289 299c23.333 24 41.833 40 55.5 48s27.167 12 40.5 12c22 0 39.833 -6.33301 53.5 -19s20.5 -29.667 20.5 -51c0 -14.667 -5.16699 -29 -15.5 -43
s-25.833 -27.667 -46.5 -41l-330 -205h-67z" />
    <glyph glyph-name="Ecircumflex" unicode="&#xca;" horiz-adv-x="1352" 
d="M82 0l0.000976562 90.001c80 9.33301 133.5 28 160.5 56s40.5 85 40.5 171v830c0 86 -13.5 143 -40.5 171s-80.5 46.667 -160.5 56v76h1151l10 -307h-86c-23.333 82 -65.5 139.667 -126.5 173s-160.167 50 -297.5 50h-147c-32 0 -52 -3.83301 -60 -11.5
s-12 -27.167 -12 -58.5v-481h164c124.667 0 207.667 14 249 42s62.666 78.667 63.999 152l88 1v-488l-88 1c-2 75.333 -24 127.166 -66 155.499s-124.333 42.5 -247 42.5h-164v-422c0 -80 18.833 -135.167 56.5 -165.5s107.5 -45.5 209.5 -45.5
c100 0 185.167 23.333 255.5 70s129.833 119.667 178.5 219l91 -23l-88 -354h-1135zM385.001 1589l232 349h118l232 -349h-58l-233 211l-233 -211h-58z" />
    <glyph glyph-name="Edieresis" unicode="&#xcb;" horiz-adv-x="1352" 
d="M82 0l0.000976562 90.001c80 9.33301 133.5 28 160.5 56s40.5 85 40.5 171v830c0 86 -13.5 143 -40.5 171s-80.5 46.667 -160.5 56v76h1151l10 -307h-86c-23.333 82 -65.5 139.667 -126.5 173s-160.167 50 -297.5 50h-147c-32 0 -52 -3.83301 -60 -11.5
s-12 -27.167 -12 -58.5v-481h164c124.667 0 207.667 14 249 42s62.666 78.667 63.999 152l88 1v-488l-88 1c-2 75.333 -24 127.166 -66 155.499s-124.333 42.5 -247 42.5h-164v-422c0 -80 18.833 -135.167 56.5 -165.5s107.5 -45.5 209.5 -45.5
c100 0 185.167 23.333 255.5 70s129.833 119.667 178.5 219l91 -23l-88 -354h-1135zM752.001 1745c0 26.667 10 49.667 30 69s43.333 29 70 29s49.667 -9.66699 69 -29s29 -42.333 29 -69c0 -28.667 -9.33301 -52.5 -28 -71.5s-42 -28.5 -70 -28.5s-51.667 9.66699 -71 29
s-29 43 -29 71zM402.001 1745c0 26.667 9.66699 49.667 29 69s42.333 29 69 29s50 -9.66699 70 -29s30 -42.333 30 -69c0 -28 -9.66699 -51.667 -29 -71s-43 -29 -71 -29s-51.333 9.5 -70 28.5s-28 42.833 -28 71.5z" />
    <glyph glyph-name="Igrave" unicode="&#xcc;" horiz-adv-x="797" 
d="M80 0l0.000976562 90c80 9.33301 133.5 28 160.5 56s40.5 85 40.5 171v818c0 85.333 -13.5 141.833 -40.5 169.5s-80.5 46.167 -160.5 55.5v90h635v-90c-80.667 -9.33301 -134.334 -27.833 -161.001 -55.5s-40 -84.167 -40 -169.5v-818c0 -86 13.5 -143 40.5 -171
s80.5 -46.667 160.5 -56v-90h-635zM575.001 1589h-67l-330 205c-20.667 13.333 -36.167 27 -46.5 41s-15.5 28.333 -15.5 43c0 21.333 6.83301 38.333 20.5 51s31.5 19 53.5 19c13.333 0 26.833 -4 40.5 -12s32.167 -24 55.5 -48z" />
    <glyph glyph-name="Iacute" unicode="&#xcd;" horiz-adv-x="797" 
d="M80 0l0.000976562 90c80 9.33301 133.5 28 160.5 56s40.5 85 40.5 171v818c0 85.333 -13.5 141.833 -40.5 169.5s-80.5 46.167 -160.5 55.5v90h635v-90c-80.667 -9.33301 -134.334 -27.833 -161.001 -55.5s-40 -84.167 -40 -169.5v-818c0 -86 13.5 -143 40.5 -171
s80.5 -46.667 160.5 -56v-90h-635zM223.001 1589l289 299c23.333 24 41.833 40 55.5 48s27.167 12 40.5 12c22 0 39.833 -6.33301 53.5 -19s20.5 -29.667 20.5 -51c0 -14.667 -5.16699 -29 -15.5 -43s-25.833 -27.667 -46.5 -41l-330 -205h-67z" />
    <glyph glyph-name="Icircumflex" unicode="&#xce;" horiz-adv-x="797" 
d="M80 0l0.000976562 90c80 9.33301 133.5 28 160.5 56s40.5 85 40.5 171v818c0 85.333 -13.5 141.833 -40.5 169.5s-80.5 46.167 -160.5 55.5v90h635v-90c-80.667 -9.33301 -134.334 -27.833 -161.001 -55.5s-40 -84.167 -40 -169.5v-818c0 -86 13.5 -143 40.5 -171
s80.5 -46.667 160.5 -56v-90h-635zM108.001 1589l232 349h118l232 -349h-58l-233 211l-233 -211h-58z" />
    <glyph glyph-name="Idieresis" unicode="&#xcf;" horiz-adv-x="797" 
d="M80 0l0.000976562 90c80 9.33301 133.5 28 160.5 56s40.5 85 40.5 171v818c0 85.333 -13.5 141.833 -40.5 169.5s-80.5 46.167 -160.5 55.5v90h635v-90c-80.667 -9.33301 -134.334 -27.833 -161.001 -55.5s-40 -84.167 -40 -169.5v-818c0 -86 13.5 -143 40.5 -171
s80.5 -46.667 160.5 -56v-90h-635zM475.001 1745c0 26.667 10 49.667 30 69s43.333 29 70 29s49.667 -9.66699 69 -29s29 -42.333 29 -69c0 -28.667 -9.33301 -52.5 -28 -71.5s-42 -28.5 -70 -28.5s-51.667 9.66699 -71 29s-29 43 -29 71zM125.001 1745
c0 26.667 9.66699 49.667 29 69s42.333 29 69 29s50 -9.66699 70 -29s30 -42.333 30 -69c0 -28 -9.66699 -51.667 -29 -71s-43 -29 -71 -29s-51.333 9.5 -70 28.5s-28 42.833 -28 71.5z" />
    <glyph glyph-name="Eth" unicode="&#xd0;" horiz-adv-x="1669" 
d="M518 344c0 -102.667 17.666 -170 52.999 -202s103 -48 203 -48c164 0 296.167 57.667 396.5 173s150.5 268 150.5 458c0 204 -55.667 361.833 -167 473.5s-269.333 167.5 -474 167.5c-39.333 0 -72.666 -2 -99.999 -6s-44 -8.66699 -50 -14
c-4 -4.66699 -7 -11.167 -9 -19.5s-3 -20.5 -3 -36.5v-63v-428h410v-101h-410v-354zM85.999 0l0.000976562 89.999c80 9.33301 133.5 28 160.5 56s40.5 85 40.5 171v381h-277v101h277v336c0 85.333 -13.5 141.833 -40.5 169.5s-80.5 46.167 -160.5 55.5v90h530
c154.667 0 277.667 -9.16699 369 -27.5s174.666 -48.166 249.999 -89.499c110 -60.667 195.167 -143.167 255.5 -247.5s90.5 -221.833 90.5 -352.5c0 -220 -78.667 -397.167 -236 -531.5s-366 -201.5 -626 -201.5h-633z" />
    <glyph glyph-name="Ntilde" unicode="&#xd1;" horiz-adv-x="1636" 
d="M86 0v90h23c68 0 116.667 20.667 146 62s44 110 44 206v834c-33.333 52.667 -70 93.834 -110 123.501s-82 46.5 -126 50.5v84h338l854 -1092v768c0 93.333 -14.333 155.333 -43 186s-84.667 48.667 -168 54v84h523v-84
c-80.667 -14.667 -135.334 -37.834 -164.001 -69.501s-43 -92.5 -43 -182.5v-881c0 -51.333 1.33301 -98.333 4 -141s6.66699 -83 12 -121h-114c-24 37.333 -51.5 77.166 -82.5 119.499s-78.167 102.833 -141.5 181.5l-637 803v-717c0 -99.333 13.333 -169.166 40 -209.499
s72.334 -60.5 137.001 -60.5c8.66699 0 15.5 0.166992 20.5 0.5s9.5 0.833008 13.5 1.5v-90h-526zM1092 1886c-13.333 -68.667 -36.166 -119.833 -68.499 -153.5s-74.5 -50.5 -126.5 -50.5c-10 0 -21 0.833008 -33 2.5s-25.667 4.16699 -41 7.5l-109 29
c-8 2 -16 3.5 -24 4.5s-16 1.5 -24 1.5c-26 0 -46.167 -6.66699 -60.5 -20s-26.5 -36.666 -36.5 -69.999h-51c12.667 70 35.167 122.167 67.5 156.5s75.5 51.5 129.5 51.5c17.333 0 30.166 -0.333008 38.499 -1s16.833 -2.33398 25.5 -5.00098l109 -28
c16 -4 28.167 -6.83301 36.5 -8.5s14.833 -2.5 19.5 -2.5c24 0 43.333 6.83301 58 20.5s26.667 35.5 36 65.5h54z" />
    <glyph glyph-name="Ograve" unicode="&#xd2;" horiz-adv-x="1571" 
d="M336 778c0 -219.333 41.999 -393.333 125.999 -522s196.333 -193 337 -193c138 0 245.5 55.5 322.5 166.5s115.5 266.5 115.5 466.5c0 208 -43.667 375.833 -131 503.5s-200.666 191.5 -339.999 191.5c-134.667 0 -240 -54 -316 -162s-114 -258.333 -114 -451z
M781.999 -29c-101.333 0 -196.667 19.833 -286 59.5s-168 97.167 -236 172.5c-58 63.333 -102.167 138.333 -132.5 225s-45.5 181.667 -45.5 285c0 102.667 15.333 198.667 46 288s75.334 167.333 134.001 234c68.667 78.667 149 139 241 181s190 63 294 63
c91.333 0 177.5 -17 258.5 -51s154.5 -84 220.5 -150c71.333 -71.333 124.666 -151.5 159.999 -240.5s53 -187.833 53 -296.5c0 -94.667 -14.167 -185 -42.5 -271s-68.833 -162 -121.5 -228c-72 -90 -153.5 -157.667 -244.5 -203s-190.5 -68 -298.5 -68zM961.998 1589h-67
l-330 205c-20.667 13.333 -36.167 27 -46.5 41s-15.5 28.333 -15.5 43c0 21.333 6.83301 38.333 20.5 51s31.5 19 53.5 19c13.333 0 26.833 -4 40.5 -12s32.167 -24 55.5 -48z" />
    <glyph glyph-name="Oacute" unicode="&#xd3;" horiz-adv-x="1571" 
d="M336 778c0 -219.333 41.999 -393.333 125.999 -522s196.333 -193 337 -193c138 0 245.5 55.5 322.5 166.5s115.5 266.5 115.5 466.5c0 208 -43.667 375.833 -131 503.5s-200.666 191.5 -339.999 191.5c-134.667 0 -240 -54 -316 -162s-114 -258.333 -114 -451z
M781.999 -29c-101.333 0 -196.667 19.833 -286 59.5s-168 97.167 -236 172.5c-58 63.333 -102.167 138.333 -132.5 225s-45.5 181.667 -45.5 285c0 102.667 15.333 198.667 46 288s75.334 167.333 134.001 234c68.667 78.667 149 139 241 181s190 63 294 63
c91.333 0 177.5 -17 258.5 -51s154.5 -84 220.5 -150c71.333 -71.333 124.666 -151.5 159.999 -240.5s53 -187.833 53 -296.5c0 -94.667 -14.167 -185 -42.5 -271s-68.833 -162 -121.5 -228c-72 -90 -153.5 -157.667 -244.5 -203s-190.5 -68 -298.5 -68zM609.998 1589
l289 299c23.333 24 41.833 40 55.5 48s27.167 12 40.5 12c22 0 39.833 -6.33301 53.5 -19s20.5 -29.667 20.5 -51c0 -14.667 -5.16699 -29 -15.5 -43s-25.833 -27.667 -46.5 -41l-330 -205h-67z" />
    <glyph glyph-name="Ocircumflex" unicode="&#xd4;" horiz-adv-x="1571" 
d="M336 778c0 -219.333 41.999 -393.333 125.999 -522s196.333 -193 337 -193c138 0 245.5 55.5 322.5 166.5s115.5 266.5 115.5 466.5c0 208 -43.667 375.833 -131 503.5s-200.666 191.5 -339.999 191.5c-134.667 0 -240 -54 -316 -162s-114 -258.333 -114 -451z
M781.999 -29c-101.333 0 -196.667 19.833 -286 59.5s-168 97.167 -236 172.5c-58 63.333 -102.167 138.333 -132.5 225s-45.5 181.667 -45.5 285c0 102.667 15.333 198.667 46 288s75.334 167.333 134.001 234c68.667 78.667 149 139 241 181s190 63 294 63
c91.333 0 177.5 -17 258.5 -51s154.5 -84 220.5 -150c71.333 -71.333 124.666 -151.5 159.999 -240.5s53 -187.833 53 -296.5c0 -94.667 -14.167 -185 -42.5 -271s-68.833 -162 -121.5 -228c-72 -90 -153.5 -157.667 -244.5 -203s-190.5 -68 -298.5 -68zM494.998 1589
l232 349h118l232 -349h-58l-233 211l-233 -211h-58z" />
    <glyph glyph-name="Otilde" unicode="&#xd5;" horiz-adv-x="1571" 
d="M336 778c0 -219.333 41.999 -393.333 125.999 -522s196.333 -193 337 -193c138 0 245.5 55.5 322.5 166.5s115.5 266.5 115.5 466.5c0 208 -43.667 375.833 -131 503.5s-200.666 191.5 -339.999 191.5c-134.667 0 -240 -54 -316 -162s-114 -258.333 -114 -451z
M781.999 -29c-101.333 0 -196.667 19.833 -286 59.5s-168 97.167 -236 172.5c-58 63.333 -102.167 138.333 -132.5 225s-45.5 181.667 -45.5 285c0 102.667 15.333 198.667 46 288s75.334 167.333 134.001 234c68.667 78.667 149 139 241 181s190 63 294 63
c91.333 0 177.5 -17 258.5 -51s154.5 -84 220.5 -150c71.333 -71.333 124.666 -151.5 159.999 -240.5s53 -187.833 53 -296.5c0 -94.667 -14.167 -185 -42.5 -271s-68.833 -162 -121.5 -228c-72 -90 -153.5 -157.667 -244.5 -203s-190.5 -68 -298.5 -68zM1073 1886
c-13.333 -68.667 -36.166 -119.833 -68.499 -153.5s-74.5 -50.5 -126.5 -50.5c-10 0 -21 0.833008 -33 2.5s-25.667 4.16699 -41 7.5l-109 29c-8 2 -16 3.5 -24 4.5s-16 1.5 -24 1.5c-26 0 -46.167 -6.66699 -60.5 -20s-26.5 -36.666 -36.5 -69.999h-51
c12.667 70 35.167 122.167 67.5 156.5s75.5 51.5 129.5 51.5c17.333 0 30.166 -0.333008 38.499 -1s16.833 -2.33398 25.5 -5.00098l109 -28c16 -4 28.167 -6.83301 36.5 -8.5s14.833 -2.5 19.5 -2.5c24 0 43.333 6.83301 58 20.5s26.667 35.5 36 65.5h54z" />
    <glyph glyph-name="Odieresis" unicode="&#xd6;" horiz-adv-x="1571" 
d="M336 778c0 -219.333 41.999 -393.333 125.999 -522s196.333 -193 337 -193c138 0 245.5 55.5 322.5 166.5s115.5 266.5 115.5 466.5c0 208 -43.667 375.833 -131 503.5s-200.666 191.5 -339.999 191.5c-134.667 0 -240 -54 -316 -162s-114 -258.333 -114 -451z
M781.999 -29c-101.333 0 -196.667 19.833 -286 59.5s-168 97.167 -236 172.5c-58 63.333 -102.167 138.333 -132.5 225s-45.5 181.667 -45.5 285c0 102.667 15.333 198.667 46 288s75.334 167.333 134.001 234c68.667 78.667 149 139 241 181s190 63 294 63
c91.333 0 177.5 -17 258.5 -51s154.5 -84 220.5 -150c71.333 -71.333 124.666 -151.5 159.999 -240.5s53 -187.833 53 -296.5c0 -94.667 -14.167 -185 -42.5 -271s-68.833 -162 -121.5 -228c-72 -90 -153.5 -157.667 -244.5 -203s-190.5 -68 -298.5 -68zM861.998 1745
c0 26.667 10 49.667 30 69s43.333 29 70 29s49.667 -9.66699 69 -29s29 -42.333 29 -69c0 -28.667 -9.33301 -52.5 -28 -71.5s-42 -28.5 -70 -28.5s-51.667 9.66699 -71 29s-29 43 -29 71zM511.998 1745c0 26.667 9.66699 49.667 29 69s42.333 29 69 29s50 -9.66699 70 -29
s30 -42.333 30 -69c0 -28 -9.66699 -51.667 -29 -71s-43 -29 -71 -29s-51.333 9.5 -70 28.5s-28 42.833 -28 71.5z" />
    <glyph glyph-name="multiply" unicode="&#xd7;" horiz-adv-x="1706" 
d="M381 1169l477 -477l475 477l82 -82l-475 -477l475 -475l-82 -82l-475 475l-477 -475l-80 82l475 475l-475 477z" />
    <glyph glyph-name="Oslash" unicode="&#xd8;" horiz-adv-x="1571" 
d="M479 39l-153 -270.001l-70 30l156 277c-110.667 71.333 -193.334 159.833 -248.001 265.5s-82 229.5 -82 371.5c0 101.333 15.167 196 45.5 284s75.166 167.333 134.499 238c65.333 77.333 144.666 137.333 237.999 180s192.333 64 297 64
c57.333 0 114.5 -8.16699 171.5 -24.5s115.833 -41.166 176.5 -74.499l94 170l74 -41l-99 -176c92 -74.667 160.833 -161.167 206.5 -259.5s68.5 -209.166 68.5 -332.499c0 -94 -13.833 -183.5 -41.5 -268.5s-68.5 -161.833 -122.5 -230.5
c-71.333 -90.667 -155.166 -158.834 -251.499 -204.501s-204.833 -68.5 -325.5 -68.5c-39.333 0 -81.166 5.83301 -125.499 17.5s-92.166 29.167 -143.499 52.5zM1122 1171l-575.001 -1015c36 -32.667 74.167 -57 114.5 -73s83.5 -24 129.5 -24
c140.667 0 250.5 55.5 329.5 166.5s118.5 265.833 118.5 464.5c0 90.667 -9.66699 175.834 -29 255.501s-48.666 154.834 -87.999 225.501zM491.999 214.997l577 1032c-40 46.667 -86.667 82 -140 106s-111 36 -173 36c-132 0 -235.667 -55.833 -311 -167.5
s-113 -266.167 -113 -463.5c0 -113.333 13.5 -215.833 40.5 -307.5s66.833 -170.167 119.5 -235.5z" />
    <glyph glyph-name="Ugrave" unicode="&#xd9;" horiz-adv-x="1583" 
d="M74 1366l0.000976562 83.9971h604v-84c-70.667 -10.667 -118 -30.667 -142 -60s-36 -92 -36 -188v-659c0 -119.333 30.167 -209.666 90.5 -270.999s149.5 -92 267.5 -92c62.667 0 119.667 11.333 171 34s93.333 55 126 97c23.333 28.667 39.833 63.834 49.5 105.501
s14.5 113.834 14.5 216.501v516c0 122.667 -14.667 202.667 -44 240s-84.333 57.666 -165 60.999v84h510v-84c-74.667 -10.667 -126.167 -35.167 -154.5 -73.5s-42.5 -114.166 -42.5 -227.499v-571c0 -93.333 -7.33301 -163.5 -22 -210.5s-39.334 -91.5 -74.001 -133.5
c-49.333 -59.333 -110.5 -104 -183.5 -134s-157.167 -45 -252.5 -45c-176 0 -306.833 41.5 -392.5 124.5s-128.5 209.5 -128.5 379.5v643c0 95.333 -13.167 158.5 -39.5 189.5s-78.5 50.5 -156.5 58.5zM1024 1589h-67l-330 205c-20.667 13.333 -36.167 27 -46.5 41
s-15.5 28.333 -15.5 43c0 21.333 6.83301 38.333 20.5 51s31.5 19 53.5 19c13.333 0 26.833 -4 40.5 -12s32.167 -24 55.5 -48z" />
    <glyph glyph-name="Uacute" unicode="&#xda;" horiz-adv-x="1583" 
d="M74 1366l0.000976562 83.9971h604v-84c-70.667 -10.667 -118 -30.667 -142 -60s-36 -92 -36 -188v-659c0 -119.333 30.167 -209.666 90.5 -270.999s149.5 -92 267.5 -92c62.667 0 119.667 11.333 171 34s93.333 55 126 97c23.333 28.667 39.833 63.834 49.5 105.501
s14.5 113.834 14.5 216.501v516c0 122.667 -14.667 202.667 -44 240s-84.333 57.666 -165 60.999v84h510v-84c-74.667 -10.667 -126.167 -35.167 -154.5 -73.5s-42.5 -114.166 -42.5 -227.499v-571c0 -93.333 -7.33301 -163.5 -22 -210.5s-39.334 -91.5 -74.001 -133.5
c-49.333 -59.333 -110.5 -104 -183.5 -134s-157.167 -45 -252.5 -45c-176 0 -306.833 41.5 -392.5 124.5s-128.5 209.5 -128.5 379.5v643c0 95.333 -13.167 158.5 -39.5 189.5s-78.5 50.5 -156.5 58.5zM672.001 1589l289 299c23.333 24 41.833 40 55.5 48s27.167 12 40.5 12
c22 0 39.833 -6.33301 53.5 -19s20.5 -29.667 20.5 -51c0 -14.667 -5.16699 -29 -15.5 -43s-25.833 -27.667 -46.5 -41l-330 -205h-67z" />
    <glyph glyph-name="Ucircumflex" unicode="&#xdb;" horiz-adv-x="1583" 
d="M74 1366l0.000976562 83.9971h604v-84c-70.667 -10.667 -118 -30.667 -142 -60s-36 -92 -36 -188v-659c0 -119.333 30.167 -209.666 90.5 -270.999s149.5 -92 267.5 -92c62.667 0 119.667 11.333 171 34s93.333 55 126 97c23.333 28.667 39.833 63.834 49.5 105.501
s14.5 113.834 14.5 216.501v516c0 122.667 -14.667 202.667 -44 240s-84.333 57.666 -165 60.999v84h510v-84c-74.667 -10.667 -126.167 -35.167 -154.5 -73.5s-42.5 -114.166 -42.5 -227.499v-571c0 -93.333 -7.33301 -163.5 -22 -210.5s-39.334 -91.5 -74.001 -133.5
c-49.333 -59.333 -110.5 -104 -183.5 -134s-157.167 -45 -252.5 -45c-176 0 -306.833 41.5 -392.5 124.5s-128.5 209.5 -128.5 379.5v643c0 95.333 -13.167 158.5 -39.5 189.5s-78.5 50.5 -156.5 58.5zM557.001 1589l232 349h118l232 -349h-58l-233 211l-233 -211h-58z" />
    <glyph glyph-name="Udieresis" unicode="&#xdc;" horiz-adv-x="1583" 
d="M74 1366l0.000976562 83.9971h604v-84c-70.667 -10.667 -118 -30.667 -142 -60s-36 -92 -36 -188v-659c0 -119.333 30.167 -209.666 90.5 -270.999s149.5 -92 267.5 -92c62.667 0 119.667 11.333 171 34s93.333 55 126 97c23.333 28.667 39.833 63.834 49.5 105.501
s14.5 113.834 14.5 216.501v516c0 122.667 -14.667 202.667 -44 240s-84.333 57.666 -165 60.999v84h510v-84c-74.667 -10.667 -126.167 -35.167 -154.5 -73.5s-42.5 -114.166 -42.5 -227.499v-571c0 -93.333 -7.33301 -163.5 -22 -210.5s-39.334 -91.5 -74.001 -133.5
c-49.333 -59.333 -110.5 -104 -183.5 -134s-157.167 -45 -252.5 -45c-176 0 -306.833 41.5 -392.5 124.5s-128.5 209.5 -128.5 379.5v643c0 95.333 -13.167 158.5 -39.5 189.5s-78.5 50.5 -156.5 58.5zM924.001 1745c0 26.667 10 49.667 30 69s43.333 29 70 29
s49.667 -9.66699 69 -29s29 -42.333 29 -69c0 -28.667 -9.33301 -52.5 -28 -71.5s-42 -28.5 -70 -28.5s-51.667 9.66699 -71 29s-29 43 -29 71zM574.001 1745c0 26.667 9.66699 49.667 29 69s42.333 29 69 29s50 -9.66699 70 -29s30 -42.333 30 -69
c0 -28 -9.66699 -51.667 -29 -71s-43 -29 -71 -29s-51.333 9.5 -70 28.5s-28 42.833 -28 71.5z" />
    <glyph glyph-name="Yacute" unicode="&#xdd;" horiz-adv-x="1473" 
d="M418 0v89.999c75.333 8 126.5 26.333 153.5 55s40.5 82 40.5 160v318l-276 452l-16 26c-106 172.667 -193.667 261 -263 265v84h598v-84h-26c-42 0 -74 -7 -96 -21s-33 -34.333 -33 -61c0 -13.333 4.33301 -31.666 13 -54.999s20.667 -48 36 -74l246 -422l108 181
c112 184.667 168 295 168 331s-14.5 64.333 -43.5 85s-71.167 33 -126.5 37v83h512v-84c-45.333 -9.33301 -86 -27.833 -122 -55.5s-70.333 -66.5 -103 -116.5c-26 -40 -77.667 -124.667 -155 -254l-193 -319v-318c0 -74 15.5 -128 46.5 -162s80.167 -51 147.5 -51v-90h-616
zM561 1589l289 299c23.333 24 41.833 40 55.5 48s27.167 12 40.5 12c22 0 39.833 -6.33301 53.5 -19s20.5 -29.667 20.5 -51c0 -14.667 -5.16699 -29 -15.5 -43s-25.833 -27.667 -46.5 -41l-330 -205h-67z" />
    <glyph glyph-name="Thorn" unicode="&#xde;" horiz-adv-x="1280" 
d="M698 1450l-0.000976562 -84.0029h-14c-63.333 0 -109.5 -14.5 -138.5 -43.5s-43.5 -75.167 -43.5 -138.5v-23h123c202.667 0 352.667 -31.333 450 -94s146 -159 146 -289c0 -118 -46.5 -215 -139.5 -291s-213.167 -114 -360.5 -114c-55.333 0 -91.666 4 -108.999 12
s-26 23 -26 45c0 18.667 3 31.167 9 37.5s19.333 9.5 40 9.5c5.33301 0 12 -0.333008 20 -1s13.667 -1 17 -1c87.333 0 158.666 28.5 213.999 85.5s83 130.167 83 219.5c0 90.667 -29.167 161.834 -87.5 213.501s-139.166 77.5 -242.499 77.5c-58 0 -95.333 -4.5 -112 -13.5
s-25 -33.167 -25 -72.5v-53v-615c0 -85.333 13.667 -142.166 41 -170.499s81.333 -47.166 162 -56.499v-90h-635v90c79.333 9.33301 132.5 28 159.5 56s40.5 85 40.5 171v816c0 95.333 -13.833 158 -41.5 188s-79.167 45 -154.5 45v84h624z" />
    <glyph glyph-name="germandbls" unicode="&#xdf;" horiz-adv-x="1157" 
d="M399 272c0 -70.667 10.001 -117.667 30.001 -141s57 -37 111 -41l1 -90h-473v90c56 2.66699 94.833 17 116.5 43s32.5 72.333 32.5 139v607h-88v63l90 19v10c0 154 39.333 277.5 118 370.5s182 139.5 310 139.5c90 0 161.333 -23.333 214 -70s79 -109.334 79 -188.001
c0 -68 -20.5 -131 -61.5 -189s-101.833 -109.667 -182.5 -155c128 -13.333 226 -55.666 294 -126.999s102 -167 102 -287c0 -139.333 -29.333 -254 -88 -344s-132 -135 -220 -135c-50.667 0 -90.667 16.167 -120 48.5s-46 78.833 -50 139.5l82 6
c6.66699 -32 17 -55.667 31 -71s32.333 -23 55 -23c38 0 66.667 21.167 86 63.5s29 104.5 29 186.5c0 132 -31 237.333 -93 316s-148.333 122 -259 130v97c72.667 39.333 127.667 85.833 165 139.5s56 112.167 56 175.5c0 58 -14.5 104.167 -43.5 138.5
s-67.833 51.5 -116.5 51.5c-70.667 0 -122.834 -25.333 -156.501 -76s-50.5 -129.667 -50.5 -237v-799z" />
    <glyph glyph-name="agrave" unicode="&#xe0;" horiz-adv-x="915" 
d="M883 80c-23.333 -33.333 -49.335 -58.834 -78.002 -76.501s-58 -26.5 -88 -26.5c-32 0 -60 11.333 -84 34s-42.333 55.334 -55 98.001c-45.333 -40.667 -90.666 -71 -135.999 -91s-90.333 -30 -135 -30c-68 0 -124.167 20 -168.5 60s-66.5 90.333 -66.5 151
c0 86 39 158.333 117 217s207.667 111.667 389 159v136c0 58 -14.333 102.833 -43 134.5s-69 47.5 -121 47.5c-44.667 0 -80.167 -9 -106.5 -27s-39.5 -41.667 -39.5 -71c0 -20.667 6.83301 -44.167 20.5 -70.5s20.5 -41.833 20.5 -46.5c0 -11.333 -17 -25.833 -51 -43.5
s-66 -26.5 -96 -26.5c-16 0 -29.667 13.333 -41 40s-17 60 -17 100c0 65.333 36.167 119.833 108.5 163.5s163.833 65.5 274.5 65.5c97.333 0 166.833 -19 208.5 -57s62.5 -101.667 62.5 -191v-504c0 -32.667 3 -55.5 9 -68.5s16 -19.5 30 -19.5c13.333 0 27.333 2.5 42 7.5
s29.334 11.833 44.001 20.5v-85zM577.998 478.999c-110.667 -30 -190.666 -62.667 -239.999 -98s-74 -77 -74 -125c0 -36 13.167 -65.833 39.5 -89.5s59.5 -35.5 99.5 -35.5c33.333 0 64.166 7.5 92.499 22.5s55.833 38.167 82.5 69.5v256zM628.999 1087h-67l-330 205
c-20.667 13.333 -36.167 27 -46.5 41s-15.5 28.333 -15.5 43c0 21.333 6.83301 38.333 20.5 51s31.5 19 53.5 19c13.333 0 26.833 -4 40.5 -12s32.167 -24 55.5 -48z" />
    <glyph glyph-name="aacute" unicode="&#xe1;" horiz-adv-x="915" 
d="M883 80c-23.333 -33.333 -49.335 -58.834 -78.002 -76.501s-58 -26.5 -88 -26.5c-32 0 -60 11.333 -84 34s-42.333 55.334 -55 98.001c-45.333 -40.667 -90.666 -71 -135.999 -91s-90.333 -30 -135 -30c-68 0 -124.167 20 -168.5 60s-66.5 90.333 -66.5 151
c0 86 39 158.333 117 217s207.667 111.667 389 159v136c0 58 -14.333 102.833 -43 134.5s-69 47.5 -121 47.5c-44.667 0 -80.167 -9 -106.5 -27s-39.5 -41.667 -39.5 -71c0 -20.667 6.83301 -44.167 20.5 -70.5s20.5 -41.833 20.5 -46.5c0 -11.333 -17 -25.833 -51 -43.5
s-66 -26.5 -96 -26.5c-16 0 -29.667 13.333 -41 40s-17 60 -17 100c0 65.333 36.167 119.833 108.5 163.5s163.833 65.5 274.5 65.5c97.333 0 166.833 -19 208.5 -57s62.5 -101.667 62.5 -191v-504c0 -32.667 3 -55.5 9 -68.5s16 -19.5 30 -19.5c13.333 0 27.333 2.5 42 7.5
s29.334 11.833 44.001 20.5v-85zM577.998 478.999c-110.667 -30 -190.666 -62.667 -239.999 -98s-74 -77 -74 -125c0 -36 13.167 -65.833 39.5 -89.5s59.5 -35.5 99.5 -35.5c33.333 0 64.166 7.5 92.499 22.5s55.833 38.167 82.5 69.5v256zM276.999 1087l289 299
c23.333 24 41.833 40 55.5 48s27.167 12 40.5 12c22 0 39.833 -6.33301 53.5 -19s20.5 -29.667 20.5 -51c0 -14.667 -5.16699 -29 -15.5 -43s-25.833 -27.667 -46.5 -41l-330 -205h-67z" />
    <glyph glyph-name="acircumflex" unicode="&#xe2;" horiz-adv-x="915" 
d="M883 80c-23.333 -33.333 -49.335 -58.834 -78.002 -76.501s-58 -26.5 -88 -26.5c-32 0 -60 11.333 -84 34s-42.333 55.334 -55 98.001c-45.333 -40.667 -90.666 -71 -135.999 -91s-90.333 -30 -135 -30c-68 0 -124.167 20 -168.5 60s-66.5 90.333 -66.5 151
c0 86 39 158.333 117 217s207.667 111.667 389 159v136c0 58 -14.333 102.833 -43 134.5s-69 47.5 -121 47.5c-44.667 0 -80.167 -9 -106.5 -27s-39.5 -41.667 -39.5 -71c0 -20.667 6.83301 -44.167 20.5 -70.5s20.5 -41.833 20.5 -46.5c0 -11.333 -17 -25.833 -51 -43.5
s-66 -26.5 -96 -26.5c-16 0 -29.667 13.333 -41 40s-17 60 -17 100c0 65.333 36.167 119.833 108.5 163.5s163.833 65.5 274.5 65.5c97.333 0 166.833 -19 208.5 -57s62.5 -101.667 62.5 -191v-504c0 -32.667 3 -55.5 9 -68.5s16 -19.5 30 -19.5c13.333 0 27.333 2.5 42 7.5
s29.334 11.833 44.001 20.5v-85zM577.998 478.999c-110.667 -30 -190.666 -62.667 -239.999 -98s-74 -77 -74 -125c0 -36 13.167 -65.833 39.5 -89.5s59.5 -35.5 99.5 -35.5c33.333 0 64.166 7.5 92.499 22.5s55.833 38.167 82.5 69.5v256zM161.999 1087l232 349h118
l232 -349h-58l-233 211l-233 -211h-58z" />
    <glyph glyph-name="atilde" unicode="&#xe3;" horiz-adv-x="915" 
d="M883 80c-23.333 -33.333 -49.335 -58.834 -78.002 -76.501s-58 -26.5 -88 -26.5c-32 0 -60 11.333 -84 34s-42.333 55.334 -55 98.001c-45.333 -40.667 -90.666 -71 -135.999 -91s-90.333 -30 -135 -30c-68 0 -124.167 20 -168.5 60s-66.5 90.333 -66.5 151
c0 86 39 158.333 117 217s207.667 111.667 389 159v136c0 58 -14.333 102.833 -43 134.5s-69 47.5 -121 47.5c-44.667 0 -80.167 -9 -106.5 -27s-39.5 -41.667 -39.5 -71c0 -20.667 6.83301 -44.167 20.5 -70.5s20.5 -41.833 20.5 -46.5c0 -11.333 -17 -25.833 -51 -43.5
s-66 -26.5 -96 -26.5c-16 0 -29.667 13.333 -41 40s-17 60 -17 100c0 65.333 36.167 119.833 108.5 163.5s163.833 65.5 274.5 65.5c97.333 0 166.833 -19 208.5 -57s62.5 -101.667 62.5 -191v-504c0 -32.667 3 -55.5 9 -68.5s16 -19.5 30 -19.5c13.333 0 27.333 2.5 42 7.5
s29.334 11.833 44.001 20.5v-85zM577.998 478.999c-110.667 -30 -190.666 -62.667 -239.999 -98s-74 -77 -74 -125c0 -36 13.167 -65.833 39.5 -89.5s59.5 -35.5 99.5 -35.5c33.333 0 64.166 7.5 92.499 22.5s55.833 38.167 82.5 69.5v256zM739.999 1384
c-13.333 -68.667 -36.166 -119.833 -68.499 -153.5s-74.5 -50.5 -126.5 -50.5c-10 0 -21 0.833008 -33 2.5s-25.667 4.16699 -41 7.5l-109 29c-8 2 -16 3.5 -24 4.5s-16 1.5 -24 1.5c-26 0 -46.167 -6.66699 -60.5 -20s-26.5 -36.666 -36.5 -69.999h-51
c12.667 70 35.167 122.167 67.5 156.5s75.5 51.5 129.5 51.5c17.333 0 30.166 -0.333008 38.499 -1s16.833 -2.33398 25.5 -5.00098l109 -28c16 -4 28.167 -6.83301 36.5 -8.5s14.833 -2.5 19.5 -2.5c24 0 43.333 6.83301 58 20.5s26.667 35.5 36 65.5h54z" />
    <glyph glyph-name="adieresis" unicode="&#xe4;" horiz-adv-x="915" 
d="M883 80c-23.333 -33.333 -49.335 -58.834 -78.002 -76.501s-58 -26.5 -88 -26.5c-32 0 -60 11.333 -84 34s-42.333 55.334 -55 98.001c-45.333 -40.667 -90.666 -71 -135.999 -91s-90.333 -30 -135 -30c-68 0 -124.167 20 -168.5 60s-66.5 90.333 -66.5 151
c0 86 39 158.333 117 217s207.667 111.667 389 159v136c0 58 -14.333 102.833 -43 134.5s-69 47.5 -121 47.5c-44.667 0 -80.167 -9 -106.5 -27s-39.5 -41.667 -39.5 -71c0 -20.667 6.83301 -44.167 20.5 -70.5s20.5 -41.833 20.5 -46.5c0 -11.333 -17 -25.833 -51 -43.5
s-66 -26.5 -96 -26.5c-16 0 -29.667 13.333 -41 40s-17 60 -17 100c0 65.333 36.167 119.833 108.5 163.5s163.833 65.5 274.5 65.5c97.333 0 166.833 -19 208.5 -57s62.5 -101.667 62.5 -191v-504c0 -32.667 3 -55.5 9 -68.5s16 -19.5 30 -19.5c13.333 0 27.333 2.5 42 7.5
s29.334 11.833 44.001 20.5v-85zM577.998 478.999c-110.667 -30 -190.666 -62.667 -239.999 -98s-74 -77 -74 -125c0 -36 13.167 -65.833 39.5 -89.5s59.5 -35.5 99.5 -35.5c33.333 0 64.166 7.5 92.499 22.5s55.833 38.167 82.5 69.5v256zM528.999 1243
c0 26.667 10 49.667 30 69s43.333 29 70 29s49.667 -9.66699 69 -29s29 -42.333 29 -69c0 -28.667 -9.33301 -52.5 -28 -71.5s-42 -28.5 -70 -28.5s-51.667 9.66699 -71 29s-29 43 -29 71zM178.999 1243c0 26.667 9.66699 49.667 29 69s42.333 29 69 29s50 -9.66699 70 -29
s30 -42.333 30 -69c0 -28 -9.66699 -51.667 -29 -71s-43 -29 -71 -29s-51.333 9.5 -70 28.5s-28 42.833 -28 71.5z" />
    <glyph glyph-name="aring" unicode="&#xe5;" horiz-adv-x="915" 
d="M301 1274c0 -41.333 14 -76.333 42 -105s62.333 -43 103 -43s75.167 14.5 103.5 43.5s42.5 63.833 42.5 104.5s-14.167 75 -42.5 103s-62.833 42 -103.5 42s-75 -14 -103 -42s-42 -62.333 -42 -103zM211 1272c0 65.333 22.833 120.833 68.5 166.5
s101.167 68.5 166.5 68.5c66.667 0 122.667 -22.667 168 -68s68 -101 68 -167c0 -65.333 -22.833 -121 -68.5 -167s-101.5 -69 -167.5 -69c-65.333 0 -120.833 23 -166.5 69s-68.5 101.667 -68.5 167zM883 80c-23.333 -33.333 -49.335 -58.834 -78.002 -76.501
s-58 -26.5 -88 -26.5c-32 0 -60 11.333 -84 34s-42.333 55.334 -55 98.001c-45.333 -40.667 -90.666 -71 -135.999 -91s-90.333 -30 -135 -30c-68 0 -124.167 20 -168.5 60s-66.5 90.333 -66.5 151c0 86 39 158.333 117 217s207.667 111.667 389 159v136
c0 58 -14.333 102.833 -43 134.5s-69 47.5 -121 47.5c-44.667 0 -80.167 -9 -106.5 -27s-39.5 -41.667 -39.5 -71c0 -20.667 6.83301 -44.167 20.5 -70.5s20.5 -41.833 20.5 -46.5c0 -11.333 -17 -25.833 -51 -43.5s-66 -26.5 -96 -26.5c-16 0 -29.667 13.333 -41 40
s-17 60 -17 100c0 65.333 36.167 119.833 108.5 163.5s163.833 65.5 274.5 65.5c97.333 0 166.833 -19 208.5 -57s62.5 -101.667 62.5 -191v-504c0 -32.667 3 -55.5 9 -68.5s16 -19.5 30 -19.5c13.333 0 27.333 2.5 42 7.5s29.334 11.833 44.001 20.5v-85zM577.998 478.999
c-110.667 -30 -190.666 -62.667 -239.999 -98s-74 -77 -74 -125c0 -36 13.167 -65.833 39.5 -89.5s59.5 -35.5 99.5 -35.5c33.333 0 64.166 7.5 92.499 22.5s55.833 38.167 82.5 69.5v256z" />
    <glyph glyph-name="ae" unicode="&#xe6;" horiz-adv-x="1356" 
d="M758 504l0.000976562 -45.998c0.666992 -101.333 23.5 -180.5 68.5 -237.5s107.5 -85.5 187.5 -85.5c50.667 0 96.667 10.667 138 32s78.666 53.666 111.999 96.999l53 -53c-48.667 -78.667 -103.834 -137.334 -165.501 -176.001s-131.5 -58 -209.5 -58
c-68 0 -127.5 12.833 -178.5 38.5s-99.5 66.834 -145.5 123.501c-58 -52 -112.167 -90.167 -162.5 -114.5s-99.833 -36.5 -148.5 -36.5c-68 0 -124.167 20 -168.5 60s-66.5 90.333 -66.5 151c0 86 39 158.333 117 217s207.667 111.667 389 159v136
c0 58 -14.333 102.833 -43 134.5s-69 47.5 -121 47.5c-44.667 0 -80.167 -9 -106.5 -27s-39.5 -41.667 -39.5 -71c0 -20.667 6.83301 -44.167 20.5 -70.5s20.5 -41.833 20.5 -46.5c0 -11.333 -17 -25.833 -51 -43.5s-66 -26.5 -96 -26.5c-16 0 -29.667 13.333 -41 40
s-17 60 -17 100c0 65.333 36.167 119.833 108.5 163.5s163.833 65.5 274.5 65.5c62 0 112.667 -8 152 -24s66.666 -40 81.999 -72c32 27.333 67.833 48.166 107.5 62.499s82.167 21.5 127.5 21.5c92.667 0 169.334 -27.833 230.001 -83.5s102.334 -136.5 125.001 -242.5z
M578.001 479.002c-110.667 -30 -190.666 -62.667 -239.999 -98s-74 -77 -74 -125c0 -36 13.167 -65.833 39.5 -89.5s59.5 -35.5 99.5 -35.5c33.333 0 64.166 7.5 92.499 22.5s55.833 38.167 82.5 69.5v256zM760.002 604.002l340.001 74c-6.66699 64.667 -26.5 116 -59.5 154
s-73.167 57 -120.5 57c-50.667 0 -90.334 -21.833 -119.001 -65.5s-43 -104.5 -43 -182.5c0 -4 0.333008 -10.167 1 -18.5s1 -14.5 1 -18.5z" />
    <glyph glyph-name="ccedilla" unicode="&#xe7;" horiz-adv-x="909" 
d="M872 213c-54 -76 -113.666 -133.503 -178.999 -172.503s-134 -58.5 -206 -58.5c-122 0 -220.333 44.5 -295 133.5s-112 207.5 -112 355.5c0 146 44.5 266.5 133.5 361.5s202.167 142.5 339.5 142.5c86.667 0 160.167 -21.5 220.5 -64.5s90.5 -93.167 90.5 -150.5
c0 -25.333 -10.5 -46.666 -31.5 -63.999s-46.5 -26 -76.5 -26c-32 0 -58.333 27 -79 81c-8 20 -14.667 35.333 -20 46c-14 28.667 -34.5 50.834 -61.5 66.501s-58.167 23.5 -93.5 23.5c-76.667 0 -137.5 -29 -182.5 -87s-67.5 -136.333 -67.5 -235
c0 -117.333 28.833 -213.5 86.5 -288.5s131.167 -112.5 220.5 -112.5c43.333 0 87.166 8.83301 131.499 26.5s85.833 42.834 124.5 75.501zM213.001 -371.003l35.002 78.002c40 -22.667 79.5 -40.334 118.5 -53.001s73.833 -19 104.5 -19c42.667 0 73.834 7.5 93.501 22.5
s29.5 38.5 29.5 70.5c0 27.333 -9.83301 48.833 -29.5 64.5s-46.834 23.5 -81.501 23.5c-10 0 -20.5 -0.5 -31.5 -1.5s-22.167 -2.5 -33.5 -4.5v190h63v-112c10.667 1.33301 21.167 2.5 31.5 3.5s20.166 1.83301 29.499 2.5c58 0 103 -14.5 135 -43.5s48 -69.167 48 -120.5
c0 -54.667 -19.5 -97.667 -58.5 -129s-92.5 -47 -160.5 -47c-36.667 0 -77.334 5.66699 -122.001 17s-101.667 30.666 -171 57.999z" />
    <glyph glyph-name="egrave" unicode="&#xe8;" horiz-adv-x="909" 
d="M250 678h407.001c-4 64.667 -24.167 116 -60.5 154s-82.833 57 -139.5 57c-50.667 0 -93.834 -18.167 -129.501 -54.5s-61.5 -88.5 -77.5 -156.5zM872.001 211c-54 -80 -111.001 -138.501 -171.001 -175.501s-127.667 -55.5 -203 -55.5c-128 0 -231.333 44.333 -310 133
s-118 205.334 -118 350.001c0 147.333 40.833 270.166 122.5 368.499s183.5 147.5 305.5 147.5c102 0 189 -36.5 261 -109.5s112.667 -166.833 122 -281.5h-535c-45.333 0 -72.666 -2.66699 -81.999 -8s-14 -17.666 -14 -36.999c0 -105.333 30.333 -196.5 91 -273.5
s132.667 -115.5 216 -115.5c44 0 87.667 9.16699 131 27.5s87 46.5 131 84.5zM659 1087h-67l-330 205c-20.667 13.333 -36.167 27 -46.5 41s-15.5 28.333 -15.5 43c0 21.333 6.83301 38.333 20.5 51s31.5 19 53.5 19c13.333 0 26.833 -4 40.5 -12s32.167 -24 55.5 -48z" />
    <glyph glyph-name="eacute" unicode="&#xe9;" horiz-adv-x="909" 
d="M250 678h407.001c-4 64.667 -24.167 116 -60.5 154s-82.833 57 -139.5 57c-50.667 0 -93.834 -18.167 -129.501 -54.5s-61.5 -88.5 -77.5 -156.5zM872.001 211c-54 -80 -111.001 -138.501 -171.001 -175.501s-127.667 -55.5 -203 -55.5c-128 0 -231.333 44.333 -310 133
s-118 205.334 -118 350.001c0 147.333 40.833 270.166 122.5 368.499s183.5 147.5 305.5 147.5c102 0 189 -36.5 261 -109.5s112.667 -166.833 122 -281.5h-535c-45.333 0 -72.666 -2.66699 -81.999 -8s-14 -17.666 -14 -36.999c0 -105.333 30.333 -196.5 91 -273.5
s132.667 -115.5 216 -115.5c44 0 87.667 9.16699 131 27.5s87 46.5 131 84.5zM307 1087l289 299c23.333 24 41.833 40 55.5 48s27.167 12 40.5 12c22 0 39.833 -6.33301 53.5 -19s20.5 -29.667 20.5 -51c0 -14.667 -5.16699 -29 -15.5 -43s-25.833 -27.667 -46.5 -41
l-330 -205h-67z" />
    <glyph glyph-name="ecircumflex" unicode="&#xea;" horiz-adv-x="909" 
d="M250 678h407.001c-4 64.667 -24.167 116 -60.5 154s-82.833 57 -139.5 57c-50.667 0 -93.834 -18.167 -129.501 -54.5s-61.5 -88.5 -77.5 -156.5zM872.001 211c-54 -80 -111.001 -138.501 -171.001 -175.501s-127.667 -55.5 -203 -55.5c-128 0 -231.333 44.333 -310 133
s-118 205.334 -118 350.001c0 147.333 40.833 270.166 122.5 368.499s183.5 147.5 305.5 147.5c102 0 189 -36.5 261 -109.5s112.667 -166.833 122 -281.5h-535c-45.333 0 -72.666 -2.66699 -81.999 -8s-14 -17.666 -14 -36.999c0 -105.333 30.333 -196.5 91 -273.5
s132.667 -115.5 216 -115.5c44 0 87.667 9.16699 131 27.5s87 46.5 131 84.5zM192 1087l232 349h118l232 -349h-58l-233 211l-233 -211h-58z" />
    <glyph glyph-name="edieresis" unicode="&#xeb;" horiz-adv-x="909" 
d="M250 678h407.001c-4 64.667 -24.167 116 -60.5 154s-82.833 57 -139.5 57c-50.667 0 -93.834 -18.167 -129.501 -54.5s-61.5 -88.5 -77.5 -156.5zM872.001 211c-54 -80 -111.001 -138.501 -171.001 -175.501s-127.667 -55.5 -203 -55.5c-128 0 -231.333 44.333 -310 133
s-118 205.334 -118 350.001c0 147.333 40.833 270.166 122.5 368.499s183.5 147.5 305.5 147.5c102 0 189 -36.5 261 -109.5s112.667 -166.833 122 -281.5h-535c-45.333 0 -72.666 -2.66699 -81.999 -8s-14 -17.666 -14 -36.999c0 -105.333 30.333 -196.5 91 -273.5
s132.667 -115.5 216 -115.5c44 0 87.667 9.16699 131 27.5s87 46.5 131 84.5zM559 1243c0 26.667 10 49.667 30 69s43.333 29 70 29s49.667 -9.66699 69 -29s29 -42.333 29 -69c0 -28.667 -9.33301 -52.5 -28 -71.5s-42 -28.5 -70 -28.5s-51.667 9.66699 -71 29
s-29 43 -29 71zM209 1243c0 26.667 9.66699 49.667 29 69s42.333 29 69 29s50 -9.66699 70 -29s30 -42.333 30 -69c0 -28 -9.66699 -51.667 -29 -71s-43 -29 -71 -29s-51.333 9.5 -70 28.5s-28 42.833 -28 71.5z" />
    <glyph glyph-name="igrave" unicode="&#xec;" horiz-adv-x="631" 
d="M233 766l-137 65v56l275 90h51v-705c0 -70 10 -116.833 30 -140.5s57.667 -37.5 113 -41.5v-90h-481v90c56 2.66699 94.833 17 116.5 43s32.5 72.333 32.5 139v494zM485 1087h-67l-330 205c-20.667 13.333 -36.167 27 -46.5 41s-15.5 28.333 -15.5 43
c0 21.333 6.83301 38.333 20.5 51s31.5 19 53.5 19c13.333 0 26.833 -4 40.5 -12s32.167 -24 55.5 -48z" />
    <glyph glyph-name="iacute" unicode="&#xed;" horiz-adv-x="631" 
d="M233 766l-137 65v56l275 90h51v-705c0 -70 10 -116.833 30 -140.5s57.667 -37.5 113 -41.5v-90h-481v90c56 2.66699 94.833 17 116.5 43s32.5 72.333 32.5 139v494zM133 1087l289 299c23.333 24 41.833 40 55.5 48s27.167 12 40.5 12c22 0 39.833 -6.33301 53.5 -19
s20.5 -29.667 20.5 -51c0 -14.667 -5.16699 -29 -15.5 -43s-25.833 -27.667 -46.5 -41l-330 -205h-67z" />
    <glyph glyph-name="icircumflex" unicode="&#xee;" horiz-adv-x="631" 
d="M233 766l-137 65v56l275 90h51v-705c0 -70 10 -116.833 30 -140.5s57.667 -37.5 113 -41.5v-90h-481v90c56 2.66699 94.833 17 116.5 43s32.5 72.333 32.5 139v494zM18 1087l232 349h118l232 -349h-58l-233 211l-233 -211h-58z" />
    <glyph glyph-name="idieresis" unicode="&#xef;" horiz-adv-x="631" 
d="M233 766l-137 65v56l275 90h51v-705c0 -70 10 -116.833 30 -140.5s57.667 -37.5 113 -41.5v-90h-481v90c56 2.66699 94.833 17 116.5 43s32.5 72.333 32.5 139v494zM385 1243c0 26.667 10 49.667 30 69s43.333 29 70 29s49.667 -9.66699 69 -29s29 -42.333 29 -69
c0 -28.667 -9.33301 -52.5 -28 -71.5s-42 -28.5 -70 -28.5s-51.667 9.66699 -71 29s-29 43 -29 71zM35 1243c0 26.667 9.66699 49.667 29 69s42.333 29 69 29s50 -9.66699 70 -29s30 -42.333 30 -69c0 -28 -9.66699 -51.667 -29 -71s-43 -29 -71 -29s-51.333 9.5 -70 28.5
s-28 42.833 -28 71.5z" />
    <glyph glyph-name="eth" unicode="&#xf0;" horiz-adv-x="991" 
d="M553 944c-16 34.667 -34.501 67.665 -55.501 98.998s-44.167 61.333 -69.5 90l-256 -166l-47 77l246 160l-130.5 125.5c-40.333 37 -80.166 71.833 -119.499 104.5l39 45l165.5 -107.5l147.5 -103.5l287 180l49 -76l-252 -164
c118.667 -106.667 208.834 -222.167 270.501 -346.5s92.5 -253.166 92.5 -386.499c0 -144.667 -39.833 -263 -119.5 -355s-181.167 -138 -304.5 -138c-122.667 0 -224.334 46.5 -305.001 139.5s-121 211.5 -121 355.5c0 70 12 136.5 36 199.5s57.667 116.833 101 161.5
c38 38.667 78 68.334 120 89.001s84 31 126 31c12 0 25.667 -1 41 -3s35 -5.66699 59 -11zM472.999 882.998c-67.333 0 -119.334 -28.833 -156.001 -86.5s-55 -139.5 -55 -245.5c0 -144.667 23.833 -262.5 71.5 -353.5s107.834 -136.5 180.501 -136.5
c70 0 123 28.5 159 85.5s54 140.5 54 250.5c0 146 -23.5 263.5 -70.5 352.5s-108.167 133.5 -183.5 133.5z" />
    <glyph glyph-name="ntilde" unicode="&#xf1;" horiz-adv-x="1186" 
d="M74 0l0.000976562 90.001c56 2.66699 94.833 17 116.5 43s32.5 72.333 32.5 139v494l-137 65v56l274 90h52v-133c54 44 107.833 77.167 161.5 99.5s106.167 33.5 157.5 33.5c88 0 152.333 -25.833 193 -77.5s61 -133.834 61 -246.501v-381
c0 -70.667 9.16699 -117.667 27.5 -141s52.166 -37 101.499 -41v-90h-461l1 90c54.667 4 92.167 17.833 112.5 41.5s30.5 70.5 30.5 140.5v385c0 72 -10 120.167 -30 144.5s-56 36.5 -108 36.5c-37.333 0 -75.833 -7.16699 -115.5 -21.5s-83.5 -36.5 -131.5 -66.5v-478
c0 -70 10 -116.833 30 -140.5s57.667 -37.5 113 -41.5v-90h-481zM881.001 1384c-13.333 -68.667 -36.166 -119.833 -68.499 -153.5s-74.5 -50.5 -126.5 -50.5c-10 0 -21 0.833008 -33 2.5s-25.667 4.16699 -41 7.5l-109 29c-8 2 -16 3.5 -24 4.5s-16 1.5 -24 1.5
c-26 0 -46.167 -6.66699 -60.5 -20s-26.5 -36.666 -36.5 -69.999h-51c12.667 70 35.167 122.167 67.5 156.5s75.5 51.5 129.5 51.5c17.333 0 30.166 -0.333008 38.499 -1s16.833 -2.33398 25.5 -5.00098l109 -28c16 -4 28.167 -6.83301 36.5 -8.5s14.833 -2.5 19.5 -2.5
c24 0 43.333 6.83301 58 20.5s26.667 35.5 36 65.5h54z" />
    <glyph glyph-name="ograve" unicode="&#xf2;" horiz-adv-x="1042" 
d="M274 559c0 -147.333 25.168 -267.168 75.501 -359.501s114.166 -138.5 191.499 -138.5c74 0 130.333 28.833 169 86.5s58 142.167 58 253.5c0 148.667 -25 268.167 -75 358.5s-115 135.5 -195 135.5c-71.333 0 -126.5 -29.167 -165.5 -87.5
s-58.5 -141.166 -58.5 -248.499zM522.001 -18.002c-128 0 -235.333 47.001 -322 141.001s-130 211.333 -130 352c0 146 42.5 265.833 127.5 359.5s193.167 140.5 324.5 140.5c128.667 0 236 -47.333 322 -142s129 -213.334 129 -356.001c0 -144 -42.333 -262.5 -127 -355.5
s-192.667 -139.5 -324 -139.5zM698.001 1087h-67l-330 205c-20.667 13.333 -36.167 27 -46.5 41s-15.5 28.333 -15.5 43c0 21.333 6.83301 38.333 20.5 51s31.5 19 53.5 19c13.333 0 26.833 -4 40.5 -12s32.167 -24 55.5 -48z" />
    <glyph glyph-name="oacute" unicode="&#xf3;" horiz-adv-x="1042" 
d="M274 559c0 -147.333 25.168 -267.168 75.501 -359.501s114.166 -138.5 191.499 -138.5c74 0 130.333 28.833 169 86.5s58 142.167 58 253.5c0 148.667 -25 268.167 -75 358.5s-115 135.5 -195 135.5c-71.333 0 -126.5 -29.167 -165.5 -87.5
s-58.5 -141.166 -58.5 -248.499zM522.001 -18.002c-128 0 -235.333 47.001 -322 141.001s-130 211.333 -130 352c0 146 42.5 265.833 127.5 359.5s193.167 140.5 324.5 140.5c128.667 0 236 -47.333 322 -142s129 -213.334 129 -356.001c0 -144 -42.333 -262.5 -127 -355.5
s-192.667 -139.5 -324 -139.5zM346.001 1087l289 299c23.333 24 41.833 40 55.5 48s27.167 12 40.5 12c22 0 39.833 -6.33301 53.5 -19s20.5 -29.667 20.5 -51c0 -14.667 -5.16699 -29 -15.5 -43s-25.833 -27.667 -46.5 -41l-330 -205h-67z" />
    <glyph glyph-name="ocircumflex" unicode="&#xf4;" horiz-adv-x="1042" 
d="M274 559c0 -147.333 25.168 -267.168 75.501 -359.501s114.166 -138.5 191.499 -138.5c74 0 130.333 28.833 169 86.5s58 142.167 58 253.5c0 148.667 -25 268.167 -75 358.5s-115 135.5 -195 135.5c-71.333 0 -126.5 -29.167 -165.5 -87.5
s-58.5 -141.166 -58.5 -248.499zM522.001 -18.002c-128 0 -235.333 47.001 -322 141.001s-130 211.333 -130 352c0 146 42.5 265.833 127.5 359.5s193.167 140.5 324.5 140.5c128.667 0 236 -47.333 322 -142s129 -213.334 129 -356.001c0 -144 -42.333 -262.5 -127 -355.5
s-192.667 -139.5 -324 -139.5zM231.001 1087l232 349h118l232 -349h-58l-233 211l-233 -211h-58z" />
    <glyph glyph-name="otilde" unicode="&#xf5;" horiz-adv-x="1042" 
d="M274 559c0 -147.333 25.168 -267.168 75.501 -359.501s114.166 -138.5 191.499 -138.5c74 0 130.333 28.833 169 86.5s58 142.167 58 253.5c0 148.667 -25 268.167 -75 358.5s-115 135.5 -195 135.5c-71.333 0 -126.5 -29.167 -165.5 -87.5
s-58.5 -141.166 -58.5 -248.499zM522.001 -18.002c-128 0 -235.333 47.001 -322 141.001s-130 211.333 -130 352c0 146 42.5 265.833 127.5 359.5s193.167 140.5 324.5 140.5c128.667 0 236 -47.333 322 -142s129 -213.334 129 -356.001c0 -144 -42.333 -262.5 -127 -355.5
s-192.667 -139.5 -324 -139.5zM809.001 1384c-13.333 -68.667 -36.166 -119.833 -68.499 -153.5s-74.5 -50.5 -126.5 -50.5c-10 0 -21 0.833008 -33 2.5s-25.667 4.16699 -41 7.5l-109 29c-8 2 -16 3.5 -24 4.5s-16 1.5 -24 1.5c-26 0 -46.167 -6.66699 -60.5 -20
s-26.5 -36.666 -36.5 -69.999h-51c12.667 70 35.167 122.167 67.5 156.5s75.5 51.5 129.5 51.5c17.333 0 30.166 -0.333008 38.499 -1s16.833 -2.33398 25.5 -5.00098l109 -28c16 -4 28.167 -6.83301 36.5 -8.5s14.833 -2.5 19.5 -2.5c24 0 43.333 6.83301 58 20.5
s26.667 35.5 36 65.5h54z" />
    <glyph glyph-name="odieresis" unicode="&#xf6;" horiz-adv-x="1042" 
d="M274 559c0 -147.333 25.168 -267.168 75.501 -359.501s114.166 -138.5 191.499 -138.5c74 0 130.333 28.833 169 86.5s58 142.167 58 253.5c0 148.667 -25 268.167 -75 358.5s-115 135.5 -195 135.5c-71.333 0 -126.5 -29.167 -165.5 -87.5
s-58.5 -141.166 -58.5 -248.499zM522.001 -18.002c-128 0 -235.333 47.001 -322 141.001s-130 211.333 -130 352c0 146 42.5 265.833 127.5 359.5s193.167 140.5 324.5 140.5c128.667 0 236 -47.333 322 -142s129 -213.334 129 -356.001c0 -144 -42.333 -262.5 -127 -355.5
s-192.667 -139.5 -324 -139.5zM598.001 1243c0 26.667 10 49.667 30 69s43.333 29 70 29s49.667 -9.66699 69 -29s29 -42.333 29 -69c0 -28.667 -9.33301 -52.5 -28 -71.5s-42 -28.5 -70 -28.5s-51.667 9.66699 -71 29s-29 43 -29 71zM248.001 1243
c0 26.667 9.66699 49.667 29 69s42.333 29 69 29s50 -9.66699 70 -29s30 -42.333 30 -69c0 -28 -9.66699 -51.667 -29 -71s-43 -29 -71 -29s-51.333 9.5 -70 28.5s-28 42.833 -28 71.5z" />
    <glyph glyph-name="divide" unicode="&#xf7;" horiz-adv-x="1706" 
d="M854 365c31.333 0 58.333 -11.333 81 -34s34 -49.667 34 -81s-11.167 -58.333 -33.5 -81s-49.5 -34 -81.5 -34s-59.167 11.167 -81.5 33.5s-33.5 49.5 -33.5 81.5s11.333 59.167 34 81.5s49.667 33.5 81 33.5zM254 670h1198v-117h-1198v117zM854 1085
c32 0 59.167 -11.167 81.5 -33.5s33.5 -49.166 33.5 -80.499c0 -32 -11.167 -59.167 -33.5 -81.5s-49.5 -33.5 -81.5 -33.5c-32.667 0 -60 11.167 -82 33.5s-33 49.5 -33 81.5c0 31.333 11.333 58.166 34 80.499s49.667 33.5 81 33.5z" />
    <glyph glyph-name="oslash" unicode="&#xf8;" horiz-adv-x="1042" 
d="M707 729l-315.999 -592c22.667 -25.333 46.667 -44.333 72 -57s52.666 -19 81.999 -19c72 0 127.167 29.167 165.5 87.5s57.5 142.5 57.5 252.5c0 60.667 -5.16699 118.5 -15.5 173.5s-25.5 106.5 -45.5 154.5zM346.001 207l320.001 599.999
c-19.333 28.667 -43.333 50.5 -72 65.5s-61.334 22.5 -98.001 22.5c-69.333 0 -123.666 -29.667 -162.999 -89s-59 -141.666 -59 -246.999c0 -69.333 6.16699 -133.5 18.5 -192.5s30.166 -112.167 53.499 -159.5zM193.002 -238.001l-70.002 26.999l145 272
c-65.333 51.333 -114.666 111.5 -147.999 180.5s-50 145.5 -50 229.5c0 146 42.833 266.833 128.5 362.5s192.834 143.5 321.501 143.5c36.667 0 72 -4.66699 106 -14s67.667 -23 101 -41l125 237l66 -33l-127 -243c59.333 -47.333 104.5 -105.666 135.5 -174.999
s46.5 -147 46.5 -233c0 -146.667 -42.333 -265.5 -127 -356.5s-196 -136.5 -334 -136.5c-26 0 -54.167 3.5 -84.5 10.5s-62.833 17.833 -97.5 32.5z" />
    <glyph glyph-name="ugrave" unicode="&#xf9;" horiz-adv-x="1137" 
d="M55 889l0.000976562 69.0029l318 19v-666c0 -62.667 11.833 -108.334 35.5 -137.001s61.5 -43 113.5 -43c44 0 85.667 7.83301 125 23.5s75.666 38.5 108.999 68.5v510c0 65.333 -9.83301 107.666 -29.5 126.999s-59.167 30.333 -118.5 33v65l332 19v-721
c0 -60 7.33301 -99.167 22 -117.5s42 -27.5 82 -27.5c10.667 0 18.667 0.166992 24 0.5s10.333 0.5 15 0.5v-79l-327 -49v135c-69.333 -48 -129 -82.5 -179 -103.5s-96.333 -31.5 -139 -31.5c-81.333 0 -144.333 27.833 -189 83.5s-67 135.5 -67 239.5v432
c0 59.333 -7.5 99.166 -22.5 119.499s-42.833 30.5 -83.5 30.5h-21zM713.001 1087h-67l-330 205c-20.667 13.333 -36.167 27 -46.5 41s-15.5 28.333 -15.5 43c0 21.333 6.83301 38.333 20.5 51s31.5 19 53.5 19c13.333 0 26.833 -4 40.5 -12s32.167 -24 55.5 -48z" />
    <glyph glyph-name="uacute" unicode="&#xfa;" horiz-adv-x="1137" 
d="M55 889l0.000976562 69.0029l318 19v-666c0 -62.667 11.833 -108.334 35.5 -137.001s61.5 -43 113.5 -43c44 0 85.667 7.83301 125 23.5s75.666 38.5 108.999 68.5v510c0 65.333 -9.83301 107.666 -29.5 126.999s-59.167 30.333 -118.5 33v65l332 19v-721
c0 -60 7.33301 -99.167 22 -117.5s42 -27.5 82 -27.5c10.667 0 18.667 0.166992 24 0.5s10.333 0.5 15 0.5v-79l-327 -49v135c-69.333 -48 -129 -82.5 -179 -103.5s-96.333 -31.5 -139 -31.5c-81.333 0 -144.333 27.833 -189 83.5s-67 135.5 -67 239.5v432
c0 59.333 -7.5 99.166 -22.5 119.499s-42.833 30.5 -83.5 30.5h-21zM361.001 1087l289 299c23.333 24 41.833 40 55.5 48s27.167 12 40.5 12c22 0 39.833 -6.33301 53.5 -19s20.5 -29.667 20.5 -51c0 -14.667 -5.16699 -29 -15.5 -43s-25.833 -27.667 -46.5 -41l-330 -205
h-67z" />
    <glyph glyph-name="ucircumflex" unicode="&#xfb;" horiz-adv-x="1137" 
d="M55 889l0.000976562 69.0029l318 19v-666c0 -62.667 11.833 -108.334 35.5 -137.001s61.5 -43 113.5 -43c44 0 85.667 7.83301 125 23.5s75.666 38.5 108.999 68.5v510c0 65.333 -9.83301 107.666 -29.5 126.999s-59.167 30.333 -118.5 33v65l332 19v-721
c0 -60 7.33301 -99.167 22 -117.5s42 -27.5 82 -27.5c10.667 0 18.667 0.166992 24 0.5s10.333 0.5 15 0.5v-79l-327 -49v135c-69.333 -48 -129 -82.5 -179 -103.5s-96.333 -31.5 -139 -31.5c-81.333 0 -144.333 27.833 -189 83.5s-67 135.5 -67 239.5v432
c0 59.333 -7.5 99.166 -22.5 119.499s-42.833 30.5 -83.5 30.5h-21zM246.001 1087l232 349h118l232 -349h-58l-233 211l-233 -211h-58z" />
    <glyph glyph-name="udieresis" unicode="&#xfc;" horiz-adv-x="1137" 
d="M55 889l0.000976562 69.0029l318 19v-666c0 -62.667 11.833 -108.334 35.5 -137.001s61.5 -43 113.5 -43c44 0 85.667 7.83301 125 23.5s75.666 38.5 108.999 68.5v510c0 65.333 -9.83301 107.666 -29.5 126.999s-59.167 30.333 -118.5 33v65l332 19v-721
c0 -60 7.33301 -99.167 22 -117.5s42 -27.5 82 -27.5c10.667 0 18.667 0.166992 24 0.5s10.333 0.5 15 0.5v-79l-327 -49v135c-69.333 -48 -129 -82.5 -179 -103.5s-96.333 -31.5 -139 -31.5c-81.333 0 -144.333 27.833 -189 83.5s-67 135.5 -67 239.5v432
c0 59.333 -7.5 99.166 -22.5 119.499s-42.833 30.5 -83.5 30.5h-21zM613.001 1243c0 26.667 10 49.667 30 69s43.333 29 70 29s49.667 -9.66699 69 -29s29 -42.333 29 -69c0 -28.667 -9.33301 -52.5 -28 -71.5s-42 -28.5 -70 -28.5s-51.667 9.66699 -71 29s-29 43 -29 71z
M263.001 1243c0 26.667 9.66699 49.667 29 69s42.333 29 69 29s50 -9.66699 70 -29s30 -42.333 30 -69c0 -28 -9.66699 -51.667 -29 -71s-43 -29 -71 -29s-51.333 9.5 -70 28.5s-28 42.833 -28 71.5z" />
    <glyph glyph-name="yacute" unicode="&#xfd;" horiz-adv-x="1020" 
d="M51 877v84.002h418v-84h-12c-27.333 0 -48.833 -5.66699 -64.5 -17s-23.5 -26.333 -23.5 -45c0 -16.667 3.5 -37.334 10.5 -62.001s17.167 -51.667 30.5 -81l188 -418l152 420c10 29.333 16.833 51.166 20.5 65.499s5.5 25.833 5.5 34.5
c0 27.333 -10.167 50.666 -30.5 69.999s-46.166 30.333 -77.499 33v84h356v-84c-40 -8.66699 -73 -26.167 -99 -52.5s-50.333 -68.5 -73 -126.5l-281 -727c-56.667 -147.333 -108.5 -247.333 -155.5 -300s-104.167 -79 -171.5 -79c-50 0 -90.167 11.167 -120.5 33.5
s-45.5 51.5 -45.5 87.5c0 26.667 8.66699 49.834 26 69.501s38 29.5 62 29.5c20 0 44.667 -12.667 74 -38s53.666 -38 72.999 -38c31.333 0 60.833 18.667 88.5 56s52.167 91 73.5 161l21 61l-305 698l-11 25c-35.333 83.333 -78.333 130 -129 140zM334 1087l289 299
c23.333 24 41.833 40 55.5 48s27.167 12 40.5 12c22 0 39.833 -6.33301 53.5 -19s20.5 -29.667 20.5 -51c0 -14.667 -5.16699 -29 -15.5 -43s-25.833 -27.667 -46.5 -41l-330 -205h-67z" />
    <glyph glyph-name="thorn" unicode="&#xfe;" horiz-adv-x="1110" 
d="M371 332c0 -89.333 18 -155.334 54 -198.001s91 -64 165 -64c74.667 0 134.334 32.833 179.001 98.5s67 154.834 67 267.501c0 118 -24.5 212.667 -73.5 284s-112.833 107 -191.5 107c-32.667 0 -64.334 -5.33301 -95.001 -16s-65.667 -29 -105 -55v-424zM180 1270
l-136.999 65v56l276 88h52v-633c55.333 44.667 107.166 77.667 155.499 99s95.5 32 141.5 32c104 0 189.667 -41.333 257 -124s101 -189.667 101 -321c0 -151.333 -45.333 -280.166 -136 -386.499s-199.667 -159.5 -327 -159.5c-30.667 0 -62.167 4.16699 -94.5 12.5
s-64.833 21.166 -97.5 38.499v-156c0 -65.333 10.833 -111.5 32.5 -138.5s60.5 -43.5 116.5 -49.5v-82h-489v82c55.333 6 94 22.5 116 49.5s33 73.167 33 138.5v1389z" />
    <glyph glyph-name="ydieresis" unicode="&#xff;" horiz-adv-x="1020" 
d="M51 877v84.002h418v-84h-12c-27.333 0 -48.833 -5.66699 -64.5 -17s-23.5 -26.333 -23.5 -45c0 -16.667 3.5 -37.334 10.5 -62.001s17.167 -51.667 30.5 -81l188 -418l152 420c10 29.333 16.833 51.166 20.5 65.499s5.5 25.833 5.5 34.5
c0 27.333 -10.167 50.666 -30.5 69.999s-46.166 30.333 -77.499 33v84h356v-84c-40 -8.66699 -73 -26.167 -99 -52.5s-50.333 -68.5 -73 -126.5l-281 -727c-56.667 -147.333 -108.5 -247.333 -155.5 -300s-104.167 -79 -171.5 -79c-50 0 -90.167 11.167 -120.5 33.5
s-45.5 51.5 -45.5 87.5c0 26.667 8.66699 49.834 26 69.501s38 29.5 62 29.5c20 0 44.667 -12.667 74 -38s53.666 -38 72.999 -38c31.333 0 60.833 18.667 88.5 56s52.167 91 73.5 161l21 61l-305 698l-11 25c-35.333 83.333 -78.333 130 -129 140zM586 1243
c0 26.667 10 49.667 30 69s43.333 29 70 29s49.667 -9.66699 69 -29s29 -42.333 29 -69c0 -28.667 -9.33301 -52.5 -28 -71.5s-42 -28.5 -70 -28.5s-51.667 9.66699 -71 29s-29 43 -29 71zM236 1243c0 26.667 9.66699 49.667 29 69s42.333 29 69 29s50 -9.66699 70 -29
s30 -42.333 30 -69c0 -28 -9.66699 -51.667 -29 -71s-43 -29 -71 -29s-51.333 9.5 -70 28.5s-28 42.833 -28 71.5z" />
    <glyph glyph-name="Cacute" unicode="&#x106;" horiz-adv-x="1364" 
d="M1219 406h89.999l-37 -310c-91.333 -42.667 -177.166 -74.5 -257.499 -95.5s-157.833 -31.5 -232.5 -31.5c-104.667 0 -199.667 18 -285 54s-163 91 -233 165c-65.333 70 -113.666 147.333 -144.999 232s-47 181 -47 289c0 104.667 13.5 198.667 40.5 282
s68.833 158.666 125.5 225.999c69.333 84 153.333 149 252 195s203.667 69 315 69c66.667 0 136.667 -9.66699 210 -29s152 -48.666 236 -87.999l39 -299l-88 -8c-30.667 106.667 -84 189.334 -160 248.001s-168 88 -276 88c-138.667 0 -246.334 -54 -323.001 -162
s-115 -260.333 -115 -457c0 -218.667 42 -391.834 126 -519.501s197 -191.5 339 -191.5c101.333 0 187 28.167 257 84.5s126.333 142.5 169 258.5zM568.999 1589l289 299c23.333 24 41.833 40 55.5 48s27.167 12 40.5 12c22 0 39.833 -6.33301 53.5 -19
s20.5 -29.667 20.5 -51c0 -14.667 -5.16699 -29 -15.5 -43s-25.833 -27.667 -46.5 -41l-330 -205h-67z" />
    <glyph glyph-name="cacute" unicode="&#x107;" horiz-adv-x="909" 
d="M872 213c-54 -76 -113.666 -133.503 -178.999 -172.503s-134 -58.5 -206 -58.5c-122 0 -220.333 44.5 -295 133.5s-112 207.5 -112 355.5c0 146 44.5 266.5 133.5 361.5s202.167 142.5 339.5 142.5c86.667 0 160.167 -21.5 220.5 -64.5s90.5 -93.167 90.5 -150.5
c0 -25.333 -10.5 -46.666 -31.5 -63.999s-46.5 -26 -76.5 -26c-32 0 -58.333 27 -79 81c-8 20 -14.667 35.333 -20 46c-14 28.667 -34.5 50.834 -61.5 66.501s-58.167 23.5 -93.5 23.5c-76.667 0 -137.5 -29 -182.5 -87s-67.5 -136.333 -67.5 -235
c0 -117.333 28.833 -213.5 86.5 -288.5s131.167 -112.5 220.5 -112.5c43.333 0 87.166 8.83301 131.499 26.5s85.833 42.834 124.5 75.501zM344.001 1087l289 299c23.333 24 41.833 40 55.5 48s27.167 12 40.5 12c22 0 39.833 -6.33301 53.5 -19s20.5 -29.667 20.5 -51
c0 -14.667 -5.16699 -29 -15.5 -43s-25.833 -27.667 -46.5 -41l-330 -205h-67z" />
    <glyph glyph-name="Ccaron" unicode="&#x10c;" horiz-adv-x="1364" 
d="M1219 406h89.999l-37 -310c-91.333 -42.667 -177.166 -74.5 -257.499 -95.5s-157.833 -31.5 -232.5 -31.5c-104.667 0 -199.667 18 -285 54s-163 91 -233 165c-65.333 70 -113.666 147.333 -144.999 232s-47 181 -47 289c0 104.667 13.5 198.667 40.5 282
s68.833 158.666 125.5 225.999c69.333 84 153.333 149 252 195s203.667 69 315 69c66.667 0 136.667 -9.66699 210 -29s152 -48.666 236 -87.999l39 -299l-88 -8c-30.667 106.667 -84 189.334 -160 248.001s-168 88 -276 88c-138.667 0 -246.334 -54 -323.001 -162
s-115 -260.333 -115 -457c0 -218.667 42 -391.834 126 -519.501s197 -191.5 339 -191.5c101.333 0 187 28.167 257 84.5s126.333 142.5 169 258.5zM453.999 1938h58l233 -209l233 209h58l-232 -349h-118z" />
    <glyph glyph-name="ccaron" unicode="&#x10d;" horiz-adv-x="909" 
d="M872 213c-54 -76 -113.666 -133.503 -178.999 -172.503s-134 -58.5 -206 -58.5c-122 0 -220.333 44.5 -295 133.5s-112 207.5 -112 355.5c0 146 44.5 266.5 133.5 361.5s202.167 142.5 339.5 142.5c86.667 0 160.167 -21.5 220.5 -64.5s90.5 -93.167 90.5 -150.5
c0 -25.333 -10.5 -46.666 -31.5 -63.999s-46.5 -26 -76.5 -26c-32 0 -58.333 27 -79 81c-8 20 -14.667 35.333 -20 46c-14 28.667 -34.5 50.834 -61.5 66.501s-58.167 23.5 -93.5 23.5c-76.667 0 -137.5 -29 -182.5 -87s-67.5 -136.333 -67.5 -235
c0 -117.333 28.833 -213.5 86.5 -288.5s131.167 -112.5 220.5 -112.5c43.333 0 87.166 8.83301 131.499 26.5s85.833 42.834 124.5 75.501zM229.001 1436h58l233 -209l233 209h58l-232 -349h-118z" />
    <glyph glyph-name="dcroat" unicode="&#x111;" horiz-adv-x="1147" 
d="M772 1096h-283.002v88h283v86l-137 65v56l276 88h52v-295h176v-88h-176v-840c0 -62 7 -101.667 21 -119s41 -26 81 -26c10 0 17.833 0.166992 23.5 0.5s10.834 0.5 15.501 0.5v-79l-336 -51v129c-70 -50 -127.167 -84 -171.5 -102s-88.166 -27 -131.499 -27
c-103.333 0 -189 41.5 -257 124.5s-102 189.5 -102 319.5c0 152 46.333 281.833 139 389.5s203.667 161.5 333 161.5c28 0 57.5 -4.83301 88.5 -14.5s66.167 -25.5 105.5 -47.5v181zM767.998 203l-0.000976562 423.999c0 86 -19.167 151.167 -57.5 195.5
s-94.166 66.5 -167.499 66.5c-74.667 0 -134.334 -33 -179.001 -99s-67 -155.333 -67 -268c0 -117.333 24.333 -211.833 73 -283.5s112.334 -107.5 191.001 -107.5c29.333 0 58 4.33301 86 13s68.333 28.334 121 59.001z" />
    <glyph glyph-name="Gbreve" unicode="&#x11e;" horiz-adv-x="1538" 
d="M946 729l565.004 0.00390625v-76c-62 -9.33301 -104 -30.833 -126 -64.5s-33 -106.834 -33 -219.501v-336c-97.333 -23.333 -186.5 -40.833 -267.5 -52.5s-153.167 -17.5 -216.5 -17.5c-74.667 0 -145.5 8.33301 -212.5 25s-130.5 41.667 -190.5 75
c-122.667 69.333 -216.5 159.166 -281.5 269.499s-97.5 235.166 -97.5 374.499c0 102.667 17.667 199.5 53 290.5s87.333 172.833 156 245.5c76 80.667 162 140.5 258 179.5s204.667 58.5 326 58.5c75.333 0 149.666 -9.33301 222.999 -28s147 -47 221 -85l33 -305l-84 -4
c-34.667 113.333 -90 197.333 -166 252s-175 82 -297 82c-148.667 0 -263.667 -53.833 -345 -161.5s-122 -260.167 -122 -457.5c0 -222.667 42.167 -395 126.5 -517s203.166 -183 356.499 -183c57.333 0 110.666 4.66699 159.999 14s95.666 23.666 138.999 42.999v301
c0 90.667 -12.333 149.167 -37 175.5s-71.667 41.5 -141 45.5v76zM477.004 1899h50.998c11.333 -48.667 36.333 -84.5 75 -107.5s94.334 -34.5 167.001 -34.5s128 11.333 166 34s62.667 58.667 74 108h51c-13.333 -88.667 -44.666 -156 -93.999 -202s-115 -69 -197 -69
c-81.333 0 -147 23 -197 69s-82 113.333 -96 202z" />
    <glyph glyph-name="gbreve" unicode="&#x11f;" horiz-adv-x="1020" 
d="M301 12c-31.333 -30 -54.833 -58.166 -70.5 -84.499s-23.5 -50.5 -23.5 -72.5c0 -38.667 24.5 -70.167 73.5 -94.5s113.167 -36.5 192.5 -36.5c92.667 0 172.5 19 239.5 57s100.5 82.333 100.5 133c0 38.667 -20 65.667 -60 81s-118.333 23 -235 23
c-65.333 0 -112.333 -0.333008 -141 -1s-54 -2.33398 -76 -5.00098zM313 682.001c0 -78 16.333 -140.168 49 -186.501s76.667 -69.5 132 -69.5c48 0 86.167 16.833 114.5 50.5s42.5 78.834 42.5 135.501c0 88 -15.667 156.5 -47 205.5s-75 73.5 -131 73.5
c-50.667 0 -90 -18.167 -118 -54.5s-42 -87.833 -42 -154.5zM197 35c-26.667 21.333 -46.665 42.332 -59.998 62.999s-20 40.667 -20 60c0 26 12.167 57.167 36.5 93.5s62.5 80.166 114.5 131.499c-51.333 36.667 -90 77.334 -116 122.001s-39 93.334 -39 146.001
c0 96.667 33.167 175.5 99.5 236.5s152.5 91.5 258.5 91.5c44.667 0 108.667 -9.83301 192 -29.5s146.333 -29.5 189 -29.5h149v-134c-8 2 -17 3.33301 -27 4s-24.667 1 -44 1c-20.667 -0.666992 -38.667 -1.66699 -54 -3s-30 -4 -44 -8c6 -22 10.5 -42.833 13.5 -62.5
s4.5 -38.167 4.5 -55.5c0 -104 -33.667 -184 -101 -240s-163.333 -84 -288 -84c-14 0 -29.5 1.16699 -46.5 3.5s-34.167 5.83301 -51.5 10.5c-26 -26 -44.167 -46.5 -54.5 -61.5s-15.5 -28.5 -15.5 -40.5c0 -18.667 7.66699 -31.5 23 -38.5s52.666 -10.5 111.999 -10.5h45
c18 0 46.333 0.333008 85 1s67.667 1 87 1c105.333 0 182.5 -18.667 231.5 -56s73.5 -95.333 73.5 -174c0 -106 -51.333 -193.833 -154 -263.5s-234.334 -104.5 -395.001 -104.5c-102 0 -184.833 21.167 -248.5 63.5s-95.5 97.5 -95.5 165.5c0 34 11.167 67 33.5 99
s57.833 66 106.5 102zM217.002 1397h50.998c11.333 -48.667 36.333 -84.5 75 -107.5s94.334 -34.5 167.001 -34.5s128 11.333 166 34s62.667 58.667 74 108h51c-13.333 -88.667 -44.666 -156 -93.999 -202s-115 -69 -197 -69c-81.333 0 -147 23 -197 69s-82 113.333 -96 202
z" />
    <glyph glyph-name="Idotaccent" unicode="&#x130;" horiz-adv-x="797" 
d="M80 0l0.000976562 90c80 9.33301 133.5 28 160.5 56s40.5 85 40.5 171v818c0 85.333 -13.5 141.833 -40.5 169.5s-80.5 46.167 -160.5 55.5v90h635v-90c-80.667 -9.33301 -134.334 -27.833 -161.001 -55.5s-40 -84.167 -40 -169.5v-818c0 -86 13.5 -143 40.5 -171
s80.5 -46.667 160.5 -56v-90h-635zM299.001 1745c0 27.333 9.83301 50.833 29.5 70.5s43.167 29.5 70.5 29.5s50.833 -9.83301 70.5 -29.5s29.5 -43.167 29.5 -70.5s-9.83301 -50.833 -29.5 -70.5s-43.167 -29.5 -70.5 -29.5s-50.833 9.83301 -70.5 29.5
s-29.5 43.167 -29.5 70.5z" />
    <glyph glyph-name="dotlessi" unicode="&#x131;" horiz-adv-x="631" 
d="M233 766l-137 65v56l275 90h51v-705c0 -70 10 -116.833 30 -140.5s57.667 -37.5 113 -41.5v-90h-481v90c56 2.66699 94.833 17 116.5 43s32.5 72.333 32.5 139v494z" />
    <glyph glyph-name="Lslash" unicode="&#x141;" horiz-adv-x="1485" 
d="M123 0l-0.000976562 90.001c72.667 1.33301 125 17.333 157 48s48 81 48 151v258l-318 -215v121l318 215v520c0 63.333 -15.667 108.5 -47 135.5s-84 41.167 -158 42.5v84h645v-84c-69.333 0 -121.166 -15.167 -155.499 -45.5s-51.5 -75.833 -51.5 -136.5v-398l426 289
v-121l-426 -288v-344c0 -95.333 19.167 -158.833 57.5 -190.5s115.5 -47.5 231.5 -47.5c124 0 226.333 24.167 307 72.5s142.667 123.166 186 224.499l91 -25l-86 -356h-1225z" />
    <glyph glyph-name="lslash" unicode="&#x142;" horiz-adv-x="631" 
d="M74 0v90c56 2.66699 94.833 17 116.5 43s32.5 72.333 32.5 139v361l-223 -148v105l223 147v533l-137 65v56l274 88h52v-645l219 147v-104l-219 -148v-457c0 -70 10 -116.833 30 -140.5s57.667 -37.5 113 -41.5v-90h-481z" />
    <glyph glyph-name="OE" unicode="&#x152;" horiz-adv-x="2165" 
d="M2011 383l88.002 -11.9961l-86 -371h-1083c-148.667 0 -260.834 9.83301 -336.501 29.5s-144.5 52.167 -206.5 97.5c-90 65.333 -158.5 147.666 -205.5 246.999s-70.5 211.666 -70.5 336.999c0 126.667 24 242 72 346s117.333 190 208 258
c34.667 26 71.667 48.333 111 67s81 33 125 43c38.667 9.33301 79.167 16.166 121.5 20.499s91.166 6.5 146.499 6.5c16.667 0 40.834 -0.333008 72.501 -1s55.167 -1 70.5 -1h955l20 -299l-90 -6c-18.667 83.333 -53.834 141.333 -105.501 174s-140.834 49 -267.501 49
h-420c92 -69.333 162.333 -149 211 -239s79 -196.667 91 -320h157c63.333 0 111 16.167 143 48.5s48 80.166 48 143.499h88v-471l-90 1c-2.66699 66 -18.167 113.167 -46.5 141.5s-74.5 42.5 -138.5 42.5h-161c-4.66699 -129.333 -31 -245.333 -79 -348
s-116.667 -188.667 -206 -258h414c120 0 213.833 20.667 281.5 62s123.834 112 168.501 212zM352.002 776.004c0 -210 40.5 -377.168 121.5 -501.501s188.833 -186.5 323.5 -186.5c133.333 0 237 53.5 311 160.5s111 256.833 111 449.5
c0 198.667 -42.167 359.334 -126.5 482.001s-193.166 184 -326.499 184c-128.667 0 -229.834 -52 -303.501 -156s-110.5 -248 -110.5 -432z" />
    <glyph glyph-name="oe" unicode="&#x153;" horiz-adv-x="1610" 
d="M1579 588l-632.998 -0.000976562l2 -45c1.33301 -107.333 32.166 -199 92.499 -275s131.833 -114 214.5 -114c44.667 0 88.667 9.16699 132 27.5s87 46.5 131 84.5l53 -55c-53.333 -79.333 -110 -137.666 -170 -174.999s-127 -56 -201 -56c-66.667 0 -129.5 14 -188.5 42
s-108.167 67 -147.5 117c-48 -54 -99.5 -93.667 -154.5 -119s-117.5 -38 -187.5 -38c-128 0 -235.333 46.833 -322 140.5s-130 210.5 -130 350.5c0 146 42.167 266.167 126.5 360.5s190.833 141.5 319.5 141.5c72 0 137.667 -16 197 -48s109 -77.333 149 -136
c45.333 64 95.166 111.333 149.499 142s115.833 46 184.5 46c102 0 189.167 -36.5 261.5 -109.5s112.833 -166.833 121.5 -281.5zM948.002 673.999h406.998c-2.66699 65.333 -22.167 117.833 -58.5 157.5s-82.166 59.5 -137.499 59.5c-50.667 0 -94.667 -19.167 -132 -57.5
s-63.666 -91.5 -78.999 -159.5zM274 558.999c0 -147.333 25.168 -267.168 75.501 -359.501s114.166 -138.5 191.499 -138.5c74 0 130.333 28.833 169 86.5s58 142.167 58 253.5c0 148.667 -25 268.167 -75 358.5s-115 135.5 -195 135.5
c-71.333 0 -126.5 -29.167 -165.5 -87.5s-58.5 -141.166 -58.5 -248.499z" />
    <glyph glyph-name="Scedilla" unicode="&#x15e;" horiz-adv-x="1133" 
d="M154 96v342.002l79 -10c28.667 -119.333 72.834 -209.5 132.501 -270.5s133.167 -91.5 220.5 -91.5c68 0 124.167 22.333 168.5 67s66.5 100.667 66.5 168c0 58.667 -17.167 111.167 -51.5 157.5s-114.833 111.166 -241.5 194.499
c-155.333 102 -253.166 182 -293.499 240s-60.5 126.333 -60.5 205c0 113.333 36.5 204.5 109.5 273.5s169.5 103.5 289.5 103.5c58 0 119.167 -9.5 183.5 -28.5s133.833 -47.833 208.5 -86.5v-297h-86c-15.333 105.333 -48.833 185.166 -100.5 239.499
s-120.167 81.5 -205.5 81.5c-68 0 -123.5 -18.667 -166.5 -56s-64.5 -85.333 -64.5 -144c0 -33.333 5.83301 -64.166 17.5 -92.499s29.167 -53.5 52.5 -75.5c36 -34.667 111 -89.334 225 -164.001l141 -94c89.333 -61.333 152.666 -120.166 189.999 -176.499
s56 -119.833 56 -190.5c0 -127.333 -41.833 -229.833 -125.5 -307.5s-194.834 -116.5 -333.501 -116.5c-74 0 -145 10.667 -213 32s-134 53.666 -198 96.999zM299 -370.998l35.002 78.002c40 -22.667 79.5 -40.334 118.5 -53.001s73.833 -19 104.5 -19
c42.667 0 73.834 7.5 93.501 22.5s29.5 38.5 29.5 70.5c0 27.333 -9.83301 48.833 -29.5 64.5s-46.834 23.5 -81.501 23.5c-10 0 -20.5 -0.5 -31.5 -1.5s-22.167 -2.5 -33.5 -4.5v190h63v-112c10.667 1.33301 21.167 2.5 31.5 3.5s20.166 1.83301 29.499 2.5
c58 0 103 -14.5 135 -43.5s48 -69.167 48 -120.5c0 -54.667 -19.5 -97.667 -58.5 -129s-92.5 -47 -160.5 -47c-36.667 0 -77.334 5.66699 -122.001 17s-101.667 30.666 -171 57.999z" />
    <glyph glyph-name="scedilla" unicode="&#x15f;" horiz-adv-x="801" 
d="M96 90l-0.00195312 245.999h84c14.667 -90.667 39.834 -157 75.501 -199s84.167 -63 145.5 -63c48 0 86.333 12.667 115 38s43 59 43 101c0 65.333 -60 130 -180 194c-40.667 22 -72.667 40 -96 54c-70.667 40.667 -122.5 82.834 -155.5 126.501s-49.5 91.5 -49.5 143.5
c0 72.667 29.167 132.834 87.5 180.501s132.833 71.5 223.5 71.5c43.333 0 87.333 -6.33301 132 -19s93 -32.334 145 -59.001v-217h-62c-15.333 69.333 -42.166 122.166 -80.499 158.499s-86.5 54.5 -144.5 54.5c-41.333 0 -73.5 -9.66699 -96.5 -29
s-34.5 -45.666 -34.5 -78.999c0 -60 63.333 -124.667 190 -194c22.667 -12 39.667 -21.333 51 -28c88.667 -49.333 151.167 -97.166 187.5 -143.499s54.5 -99.5 54.5 -159.5c0 -78.667 -32.833 -146.334 -98.5 -203.001s-145.5 -85 -239.5 -85
c-48.667 0 -97.167 8.83301 -145.5 26.5s-98.833 45.5 -151.5 83.5zM132.998 -371.001l35.002 78.002c40 -22.667 79.5 -40.334 118.5 -53.001s73.833 -19 104.5 -19c42.667 0 73.834 7.5 93.501 22.5s29.5 38.5 29.5 70.5c0 27.333 -9.83301 48.833 -29.5 64.5
s-46.834 23.5 -81.501 23.5c-10 0 -20.5 -0.5 -31.5 -1.5s-22.167 -2.5 -33.5 -4.5v190h63v-112c10.667 1.33301 21.167 2.5 31.5 3.5s20.166 1.83301 29.499 2.5c58 0 103 -14.5 135 -43.5s48 -69.167 48 -120.5c0 -54.667 -19.5 -97.667 -58.5 -129s-92.5 -47 -160.5 -47
c-36.667 0 -77.334 5.66699 -122.001 17s-101.667 30.666 -171 57.999z" />
    <glyph glyph-name="Scaron" unicode="&#x160;" horiz-adv-x="1133" 
d="M154 96v342.002l79 -10c28.667 -119.333 72.834 -209.5 132.501 -270.5s133.167 -91.5 220.5 -91.5c68 0 124.167 22.333 168.5 67s66.5 100.667 66.5 168c0 58.667 -17.167 111.167 -51.5 157.5s-114.833 111.166 -241.5 194.499
c-155.333 102 -253.166 182 -293.499 240s-60.5 126.333 -60.5 205c0 113.333 36.5 204.5 109.5 273.5s169.5 103.5 289.5 103.5c58 0 119.167 -9.5 183.5 -28.5s133.833 -47.833 208.5 -86.5v-297h-86c-15.333 105.333 -48.833 185.166 -100.5 239.499
s-120.167 81.5 -205.5 81.5c-68 0 -123.5 -18.667 -166.5 -56s-64.5 -85.333 -64.5 -144c0 -33.333 5.83301 -64.166 17.5 -92.499s29.167 -53.5 52.5 -75.5c36 -34.667 111 -89.334 225 -164.001l141 -94c89.333 -61.333 152.666 -120.166 189.999 -176.499
s56 -119.833 56 -190.5c0 -127.333 -41.833 -229.833 -125.5 -307.5s-194.834 -116.5 -333.501 -116.5c-74 0 -145 10.667 -213 32s-134 53.666 -198 96.999zM276 1938h58l233 -209l233 209h58l-232 -349h-118z" />
    <glyph glyph-name="scaron" unicode="&#x161;" horiz-adv-x="801" 
d="M96 90l-0.00195312 245.999h84c14.667 -90.667 39.834 -157 75.501 -199s84.167 -63 145.5 -63c48 0 86.333 12.667 115 38s43 59 43 101c0 65.333 -60 130 -180 194c-40.667 22 -72.667 40 -96 54c-70.667 40.667 -122.5 82.834 -155.5 126.501s-49.5 91.5 -49.5 143.5
c0 72.667 29.167 132.834 87.5 180.501s132.833 71.5 223.5 71.5c43.333 0 87.333 -6.33301 132 -19s93 -32.334 145 -59.001v-217h-62c-15.333 69.333 -42.166 122.166 -80.499 158.499s-86.5 54.5 -144.5 54.5c-41.333 0 -73.5 -9.66699 -96.5 -29
s-34.5 -45.666 -34.5 -78.999c0 -60 63.333 -124.667 190 -194c22.667 -12 39.667 -21.333 51 -28c88.667 -49.333 151.167 -97.166 187.5 -143.499s54.5 -99.5 54.5 -159.5c0 -78.667 -32.833 -146.334 -98.5 -203.001s-145.5 -85 -239.5 -85
c-48.667 0 -97.167 8.83301 -145.5 26.5s-98.833 45.5 -151.5 83.5zM109.998 1436h58l233 -209l233 209h58l-232 -349h-118z" />
    <glyph glyph-name="Ydieresis" unicode="&#x178;" horiz-adv-x="1473" 
d="M418 0v89.999c75.333 8 126.5 26.333 153.5 55s40.5 82 40.5 160v318l-276 452l-16 26c-106 172.667 -193.667 261 -263 265v84h598v-84h-26c-42 0 -74 -7 -96 -21s-33 -34.333 -33 -61c0 -13.333 4.33301 -31.666 13 -54.999s20.667 -48 36 -74l246 -422l108 181
c112 184.667 168 295 168 331s-14.5 64.333 -43.5 85s-71.167 33 -126.5 37v83h512v-84c-45.333 -9.33301 -86 -27.833 -122 -55.5s-70.333 -66.5 -103 -116.5c-26 -40 -77.667 -124.667 -155 -254l-193 -319v-318c0 -74 15.5 -128 46.5 -162s80.167 -51 147.5 -51v-90h-616
zM813 1745c0 26.667 10 49.667 30 69s43.333 29 70 29s49.667 -9.66699 69 -29s29 -42.333 29 -69c0 -28.667 -9.33301 -52.5 -28 -71.5s-42 -28.5 -70 -28.5s-51.667 9.66699 -71 29s-29 43 -29 71zM463 1745c0 26.667 9.66699 49.667 29 69s42.333 29 69 29
s50 -9.66699 70 -29s30 -42.333 30 -69c0 -28 -9.66699 -51.667 -29 -71s-43 -29 -71 -29s-51.333 9.5 -70 28.5s-28 42.833 -28 71.5z" />
    <glyph glyph-name="Zcaron" unicode="&#x17d;" horiz-adv-x="1360" 
d="M66 0l-0.000976562 76.001l874 1284h-342c-97.333 0 -168.666 -15.5 -213.999 -46.5s-87.333 -91.167 -126 -180.5l-84 -9l14 326h1031v-76l-859 -1280h320c123.333 0 222.5 19.167 297.5 57.5s145.833 105.166 212.5 200.499l100 6l-108 -358h-1116zM388.999 1938h58
l233 -209l233 209h58l-232 -349h-118z" />
    <glyph glyph-name="zcaron" unicode="&#x17e;" horiz-adv-x="909" 
d="M61 0l0.00195312 76l588 805h-203c-77.333 0 -132.5 -10.833 -165.5 -32.5s-63.167 -58.834 -90.5 -111.501l-71 -6l18 252h30c5.33301 -10.667 14.5 -18.167 27.5 -22.5s43.167 -6.5 90.5 -6.5h592v-65l-592 -813h180c93.333 0 164.166 15.833 212.499 47.5
s89.5 88.167 123.5 169.5l76 -19c-8.66699 -28.667 -15.834 -55.167 -21.501 -79.5s-10.167 -48.166 -13.5 -71.499l-21 -123h-760zM164.002 1436h58l233 -209l233 209h58l-232 -349h-118z" />
    <glyph glyph-name="florin" unicode="&#x192;" horiz-adv-x="1020" 
d="M405 807l-221.003 -0.00195312v98h232c16.667 199.333 56.5 347.833 119.5 445.5s150.833 146.5 263.5 146.5c50 0 91.167 -12.333 123.5 -37s48.5 -55.334 48.5 -92.001c0 -24.667 -7.83301 -45.167 -23.5 -61.5s-35.167 -24.5 -58.5 -24.5
c-14.667 0 -28.667 3.5 -42 10.5s-24 16.5 -32 28.5c-3.33301 4.66699 -8 11.667 -14 21c-28 40.667 -52 61 -72 61c-37.333 0 -66.666 -40.667 -87.999 -122s-35.666 -206.666 -42.999 -375.999h246v-98h-252l-4 -40c-39.333 -460 -73.666 -743.667 -102.999 -851
c-25.333 -95.333 -66.833 -168.666 -124.5 -219.999s-127.167 -77 -208.5 -77c-54.667 0 -97.5 10.833 -128.5 32.5s-46.5 51.834 -46.5 90.501c0 27.333 8.16699 49.5 24.5 66.5s36.833 25.5 61.5 25.5c16.667 0 30.5 -3.5 41.5 -10.5s24.5 -24.5 40.5 -52.5
c14.667 -24.667 26.334 -40.5 35.001 -47.5s19 -10.5 31 -10.5c77.333 0 135.666 275 174.999 825z" />
    <glyph glyph-name="circumflex" unicode="&#x2c6;" 
d="M221 1087l232 349h118l232 -349h-58l-233 211l-233 -211h-58z" />
    <glyph glyph-name="caron" unicode="&#x2c7;" 
d="M221 1436h58l233 -209l233 209h58l-232 -349h-118z" />
    <glyph glyph-name="breve" unicode="&#x2d8;" 
d="M219 1397h50.998c11.333 -48.667 36.333 -84.5 75 -107.5s94.334 -34.5 167.001 -34.5s128 11.333 166 34s62.667 58.667 74 108h51c-13.333 -88.667 -44.666 -156 -93.999 -202s-115 -69 -197 -69c-81.333 0 -147 23 -197 69s-82 113.333 -96 202z" />
    <glyph glyph-name="dotaccent" unicode="&#x2d9;" 
d="M412 1243c0 27.333 9.83301 50.833 29.5 70.5s43.167 29.5 70.5 29.5s50.833 -9.83301 70.5 -29.5s29.5 -43.167 29.5 -70.5s-9.83301 -50.833 -29.5 -70.5s-43.167 -29.5 -70.5 -29.5s-50.833 9.83301 -70.5 29.5s-29.5 43.167 -29.5 70.5z" />
    <glyph glyph-name="ring" unicode="&#x2da;" 
d="M362 1311c0 -42.667 14.5 -78.667 43.5 -108s64.5 -44 106.5 -44s77.5 14.667 106.5 44s43.5 65.333 43.5 108c0 40.667 -14.833 75.667 -44.5 105s-64.834 44 -105.501 44c-41.333 0 -76.666 -14.5 -105.999 -43.5s-44 -64.167 -44 -105.5zM272 1309
c0 67.333 23.167 124.332 69.5 170.999s103.166 70 170.499 70s124.5 -23.333 171.5 -70s70.5 -103.667 70.5 -171s-23.333 -124.166 -70 -170.499s-104 -69.5 -172 -69.5c-67.333 0 -124.166 23 -170.499 69s-69.5 103 -69.5 171z" />
    <glyph glyph-name="ogonek" unicode="&#x2db;" 
d="M674 31c-60.667 -47.333 -105.835 -92.999 -135.502 -136.999s-44.5 -87.333 -44.5 -130c0 -36 9 -64.667 27 -86s42.333 -32 73 -32c26.667 0 49.834 5.83301 69.501 17.5s36.167 29.5 49.5 53.5l28 -18c-23.333 -48 -53.166 -84.667 -89.499 -110
s-76.833 -38 -121.5 -38c-46 0 -84 13.667 -114 41s-45 61.666 -45 102.999c0 58 20.833 114.5 62.5 169.5s105.5 110.5 191.5 166.5h49z" />
    <glyph glyph-name="tilde" unicode="&#x2dc;" 
d="M799 1384c-13.333 -68.667 -36.166 -119.833 -68.499 -153.5s-74.5 -50.5 -126.5 -50.5c-10 0 -21 0.833008 -33 2.5s-25.667 4.16699 -41 7.5l-109 29c-8 2 -16 3.5 -24 4.5s-16 1.5 -24 1.5c-26 0 -46.167 -6.66699 -60.5 -20s-26.5 -36.666 -36.5 -69.999h-51
c12.667 70 35.167 122.167 67.5 156.5s75.5 51.5 129.5 51.5c17.333 0 30.166 -0.333008 38.499 -1s16.833 -2.33398 25.5 -5.00098l109 -28c16 -4 28.167 -6.83301 36.5 -8.5s14.833 -2.5 19.5 -2.5c24 0 43.333 6.83301 58 20.5s26.667 35.5 36 65.5h54z" />
    <glyph glyph-name="hungarumlaut" unicode="&#x2dd;" 
d="M594 1087l143 279c16 29.333 31.167 50.333 45.5 63s29.833 19 46.5 19c18.667 0 34.667 -6.66699 48 -20s20 -29.333 20 -48c0 -10 -3.5 -21.5 -10.5 -34.5s-17.167 -26.5 -30.5 -40.5l-203 -218h-59zM319 1087l144 279c16 29.333 31.167 50.333 45.5 63
s29.833 19 46.5 19c18.667 0 34.667 -6.66699 48 -20s20 -29.333 20 -48c0 -10 -3.5 -21.5 -10.5 -34.5s-17.167 -26.5 -30.5 -40.5l-205 -218h-58z" />
    <glyph glyph-name="Omega" unicode="&#x3a9;" horiz-adv-x="1567" 
d="M1100 188l0.00195312 -25.999h313l66 203h61l-108 -365h-500c89.333 155.333 156.666 305.666 201.999 450.999s68 283 68 413c0 180.667 -35.833 319.334 -107.5 416.001s-174.5 145 -308.5 145s-237 -48.333 -309 -145s-108 -235.334 -108 -416.001
c0 -130 22.667 -267 68 -411s113.333 -295 204 -453h-500l-110 365h61l68 -203h311v26c-110 135.333 -188 255.833 -234 361.5s-69 214.834 -69 327.501c0 181.333 58.167 330 174.5 446s264.166 174 443.499 174s327 -58.167 443 -174.5s174 -264.833 174 -445.5
c0 -112.667 -23 -221.834 -69 -327.501s-124 -226.167 -234 -361.5z" />
    <glyph glyph-name="pi" unicode="&#x3c0;" horiz-adv-x="1354" 
d="M1329 885l-35.002 -162h-329c-22.667 -119.333 -40.667 -270 -54 -452c-15.333 -209.333 -55.333 -314 -120 -314c-25.333 0 -44.666 8.16699 -57.999 24.5s-20 39.5 -20 69.5c0 38.667 25.667 132.167 77 280.5s90.333 278.833 117 391.5h-375
c-22 -118 -39.667 -267.333 -53 -448c-16.667 -212 -57.667 -318 -123 -318c-24.667 0 -43.667 8.33301 -57 25s-20 40.334 -20 71.001c0 37.333 25.833 129.666 77.5 276.999s91.167 278.333 118.5 393h-133c-90.667 0 -150.667 -14.5 -180 -43.5
s-53.333 -86.167 -72 -171.5h-59c24.667 138 63.834 235.333 117.501 292s133.167 85 238.5 85h942z" />
    <glyph glyph-name="endash" unicode="&#x2013;" 
d="M0 426v125h1024v-125h-1024z" />
    <glyph glyph-name="emdash" unicode="&#x2014;" horiz-adv-x="2048" 
d="M0 551h2048v-125h-2048v125z" />
    <glyph glyph-name="quoteleft" unicode="&#x2018;" horiz-adv-x="510" 
d="M377 1483l41 -67.999c-69.333 -37.333 -120.833 -74.166 -154.5 -110.499s-50.5 -72.5 -50.5 -108.5c0 -24.667 28.333 -47.334 85 -68.001c2 -0.666992 3.66699 -1.33398 5 -2.00098c44.667 -15.333 76 -33 94 -53s27 -46 27 -78c0 -31.333 -13 -58.166 -39 -80.499
s-58 -33.5 -96 -33.5c-62 0 -111.667 22.5 -149 67.5s-56 104.833 -56 179.5c0 78.667 26.167 149.667 78.5 213s123.833 110.666 214.5 141.999z" />
    <glyph glyph-name="quoteright" unicode="&#x2019;" horiz-adv-x="510" 
d="M133 879l-40.999 66.999c69.333 38 120.5 74.667 153.5 110s49.5 71 49.5 107c0 14.667 -5.16699 26.834 -15.5 36.501s-35.166 21.5 -74.499 35.5c-45.333 16 -76.833 33.5 -94.5 52.5s-26.5 44.5 -26.5 76.5s13.167 59.5 39.5 82.5s58.166 34.5 95.499 34.5
c61.333 0 110.833 -22.833 148.5 -68.5s56.5 -106.167 56.5 -181.5c0 -78 -25.833 -148.5 -77.5 -211.5s-122.834 -109.833 -213.501 -140.5z" />
    <glyph glyph-name="quotesinglbase" unicode="&#x201a;" horiz-adv-x="510" 
d="M133 -215l-41.001 68c69.333 37.333 120.5 73.666 153.5 108.999s49.5 71.333 49.5 108c0 14.667 -5.16699 26.667 -15.5 36s-35.166 21 -74.499 35c-44.667 16 -76 33.833 -94 53.5s-27 45.5 -27 77.5s13 59.167 39 81.5s58 33.5 96 33.5c62 0 111.667 -22.5 149 -67.5
s56 -105.167 56 -180.5c0 -78 -26 -148.667 -78 -212s-123 -110.666 -213 -141.999z" />
    <glyph glyph-name="quotedblleft" unicode="&#x201c;" horiz-adv-x="950" 
d="M817 1479l41.001 -68.001c-69.333 -38 -120.833 -74.667 -154.5 -110s-50.5 -71 -50.5 -107c0 -14.667 5.16699 -26.667 15.5 -36s35.166 -21.333 74.499 -36c45.333 -15.333 76.833 -33 94.5 -53s26.5 -46 26.5 -78s-12.667 -59 -38 -81s-57 -33 -95 -33
c-62 0 -112 22.833 -150 68.5s-57 105.834 -57 180.501c0 78 26.167 148.5 78.5 211.5s123.833 110.167 214.5 141.5zM377.001 1479l41.001 -68.001c-70 -38 -121.667 -74.667 -155 -110s-50 -71 -50 -107c0 -14.667 5.16699 -26.667 15.5 -36s35.166 -21.333 74.499 -36
c44.667 -15.333 76 -33 94 -53s27 -46 27 -78s-12.833 -59 -38.5 -81s-57.167 -33 -94.5 -33c-62 0 -112 22.833 -150 68.5s-57 105.834 -57 180.501c0 78 26 148.5 78 211.5s123.667 110.167 215 141.5z" />
    <glyph glyph-name="quotedblright" unicode="&#x201d;" horiz-adv-x="950" 
d="M133 879l-41.001 66.999c70 38 121.667 74.833 155 110.5s50 71.167 50 106.5c0 14.667 -5.16699 26.834 -15.5 36.501s-35.166 21.5 -74.499 35.5c-45.333 16 -76.833 33.5 -94.5 52.5s-26.5 44.5 -26.5 76.5s12.833 59.5 38.5 82.5s57.167 34.5 94.5 34.5
c62 0 112 -22.833 150 -68.5s57 -106.167 57 -181.5c0 -78 -26 -148.333 -78 -211s-123.667 -109.667 -215 -141zM572.999 878.999l-41 66.999c70 38 121.667 74.833 155 110.5s50 71.167 50 106.5c0 14.667 -5 26.834 -15 36.501s-35 21.5 -75 35.5
c-45.333 16 -76.833 33.5 -94.5 52.5s-26.5 44.5 -26.5 76.5s12.833 59.5 38.5 82.5s57.167 34.5 94.5 34.5c62 0 112 -22.833 150 -68.5s57 -106.167 57 -181.5c0 -78 -26 -148.333 -78 -211s-123.667 -109.667 -215 -141z" />
    <glyph glyph-name="quotedblbase" unicode="&#x201e;" horiz-adv-x="950" 
d="M571 -215l-40.999 67.999c70 38 121.667 74.667 155 110s50 71 50 107c0 14.667 -5 26.667 -15 36s-35 21 -75 35c-44.667 16 -76 33.833 -94 53.5s-27 45.5 -27 77.5s13.167 59.167 39.5 81.5s58.166 33.5 95.499 33.5c62 0 111.667 -22.5 149 -67.5
s56 -105.167 56 -180.5c0 -78 -26.167 -148.667 -78.5 -212s-123.833 -110.666 -214.5 -141.999zM133.001 -215.001l-41.001 67.999c70 38 121.667 74.667 155 110s50 71 50 107c0 14.667 -5.16699 26.667 -15.5 36s-35.166 21 -74.499 35c-44.667 16 -76 33.833 -94 53.5
s-27 45.5 -27 77.5s12.833 59.167 38.5 81.5s57.167 33.5 94.5 33.5c62 0 112 -22.5 150 -67.5s57 -105.167 57 -180.5c0 -78 -26.167 -148.667 -78.5 -212s-123.833 -110.666 -214.5 -141.999z" />
    <glyph glyph-name="dagger" unicode="&#x2020;" 
d="M459 823l-274.001 -55l-6 -1c-39.333 -7.33301 -69 -11 -89 -11c-13.333 0 -23.166 9 -29.499 27s-9.5 47 -9.5 87c0 41.333 4.16699 70.166 12.5 86.499s22.5 24.5 42.5 24.5c11.333 0 24 -0.833008 38 -2.5s28 -4.16699 42 -7.5l273 -66
c-3.33301 86.667 -13 187.667 -29 303s-24 187.666 -24 216.999c0 21.333 6.16699 35.666 18.5 42.999s41.5 11 87.5 11s75.167 -3.66699 87.5 -11s18.5 -21.666 18.5 -42.999c0 -29.333 -8 -101.666 -24 -216.999s-25.667 -216.333 -29 -303l273 66
c14 3.33301 28 5.83301 42 7.5s26.667 2.5 38 2.5c20 0 34.167 -8.16699 42.5 -24.5s12.5 -45.166 12.5 -86.499c0 -40 -3.16699 -69 -9.5 -87s-16.166 -27 -29.499 -27c-20 0 -49.667 3.66699 -89 11c-2.66699 0.666992 -4.33398 1 -5.00098 1l-275 55v-30
c0 -22.667 0.5 -43.667 1.5 -63s2.5 -36 4.5 -50l45 -678c0.666992 -6.66699 1.66699 -18 3 -34c8 -86 12 -162 12 -228v-16c0 -50 -4 -79.667 -12 -89s-28.667 -14 -62 -14h-90c-33.333 0 -54 4.66699 -62 14s-12 39 -12 89v16c0 66 4 142 12 228
c1.33301 16 2.33301 27.333 3 34l45 678c2 14 3.5 30.667 4.5 50s1.5 40.333 1.5 63v30z" />
    <glyph glyph-name="daggerdbl" unicode="&#x2021;" 
d="M453 907l-270.999 -46.9961c-20 -4 -37.833 -7 -53.5 -9s-28.5 -3 -38.5 -3c-12 0 -21.167 8.33301 -27.5 25s-9.5 41.667 -9.5 75c0 36.667 3.83301 61.834 11.5 75.501s20.834 20.5 39.501 20.5c13.333 0 26.666 -0.666992 39.999 -2s26.666 -3.33301 39.999 -6
l269 -57c-3.33301 72 -13.166 158.167 -29.499 258.5s-24.5 164.5 -24.5 192.5c0 18.667 6.16699 31.5 18.5 38.5s46.5 10.5 102.5 10.5c45.333 0 74.166 -3.33301 86.499 -10s18.5 -19.667 18.5 -39c0 -31.333 -8.33301 -96.833 -25 -196.5s-26 -184.5 -28 -254.5l268 57
c13.333 2.66699 26.666 4.66699 39.999 6s26.666 2 39.999 2c18.667 0 31.834 -6.83301 39.501 -20.5s11.5 -38.834 11.5 -75.501c0 -33.333 -3.16699 -58.333 -9.5 -75s-15.5 -25 -27.5 -25c-10 0 -22.833 1 -38.5 3s-33.5 5 -53.5 9l-271 47
c0 -68 4.16699 -131.833 12.5 -191.5s20.833 -115.834 37.5 -168.501c-16.667 -52.667 -29.167 -108.834 -37.5 -168.501s-12.5 -123.834 -12.5 -192.501l270 47c18 4 34.667 6.83301 50 8.5s29.666 2.5 42.999 2.5c12.667 0 22 -8.16699 28 -24.5s9 -41.166 9 -74.499
c0 -36.667 -3.83301 -61.834 -11.5 -75.501s-20.834 -20.5 -39.501 -20.5c-13.333 0 -26.666 0.666992 -39.999 2s-26.666 3.33301 -39.999 6l-269 57c2.66699 -69.333 12.334 -154.333 29.001 -255s25 -166.334 25 -197.001c0 -18.667 -5.66699 -31.167 -17 -37.5
s-40.666 -9.5 -87.999 -9.5c-56 0 -90.167 3.33301 -102.5 10s-18.5 19.667 -18.5 39c0 28 8.16699 92.167 24.5 192.5s26.166 186.5 29.499 258.5l-269 -58c-13.333 -2.66699 -26.666 -4.66699 -39.999 -6s-26.666 -2 -39.999 -2c-18.667 0 -31.834 6.83301 -39.501 20.5
s-11.5 38.834 -11.5 75.501c0 33.333 3 58.166 9 74.499s15.333 24.5 28 24.5c13.333 0 27.666 -0.833008 42.999 -2.5s32 -4.5 50 -8.5l270 -47c0 72.667 -3.33301 139 -10 199s-16.334 114 -29.001 162c12.667 48 22.334 102 29.001 162s10 126 10 198z" />
    <glyph glyph-name="bullet" unicode="&#x2022;" horiz-adv-x="1208" 
d="M307 762c0 82 28.999 151.666 86.999 208.999s128 86 210 86c81.333 0 150.833 -28.833 208.5 -86.5s86.5 -127.167 86.5 -208.5s-29.167 -151.166 -87.5 -209.499s-128.166 -87.5 -209.499 -87.5c-82 0 -151.667 29 -209 87s-86 128 -86 210z" />
    <glyph glyph-name="ellipsis" unicode="&#x2026;" horiz-adv-x="2048" 
d="M209 133c0 36.667 12.667 67.667 38 93s56.333 38 93 38s67.667 -12.667 93 -38s38 -56.333 38 -93s-12.833 -68 -38.5 -94s-56.5 -39 -92.5 -39c-36.667 0 -67.667 13 -93 39s-38 57.333 -38 94zM891 133c0 36.667 12.667 67.667 38 93s56.333 38 93 38
s67.667 -12.667 93 -38s38 -56.333 38 -93s-12.833 -68 -38.5 -94s-56.5 -39 -92.5 -39c-36.667 0 -67.667 13 -93 39s-38 57.333 -38 94zM1575 133c0 36.667 12.667 67.667 38 93s56.333 38 93 38s67.667 -12.667 93 -38s38 -56.333 38 -93s-12.833 -68 -38.5 -94
s-56.5 -39 -92.5 -39c-36.667 0 -67.667 13 -93 39s-38 57.333 -38 94z" />
    <glyph glyph-name="perthousand" unicode="&#x2030;" horiz-adv-x="2335" 
d="M1853 391c0 -112 10.499 -193.833 31.499 -245.5s53.5 -77.5 97.5 -77.5c46.667 0 80.334 25.333 101.001 76s31 133.667 31 249c0 102 -10.333 177 -31 225s-52.667 72 -96 72c-46.667 0 -80.667 -23.833 -102 -71.5s-32 -123.5 -32 -227.5zM1692 381
c0 120.667 25.667 214.332 77 280.999s123.333 100 216 100s164.167 -33 214.5 -99s75.5 -160 75.5 -282s-25.167 -216 -75.5 -282s-121.833 -99 -214.5 -99s-164.667 33.333 -216 100s-77 160.334 -77 281.001zM1108 390.998c0 -113.333 10.167 -195.5 30.5 -246.5
s52.5 -76.5 96.5 -76.5c46 0 79.333 25.333 100 76s31 133.667 31 249c0 102 -10.333 177 -31 225s-52.667 72 -96 72c-46 0 -79.333 -23.667 -100 -71s-31 -123.333 -31 -228zM945.999 380.998c0 120.667 25.5 214.332 76.5 280.999s122.5 100 214.5 100
c93.333 0 165.5 -33.167 216.5 -99.5s76.5 -160.166 76.5 -281.499s-25.5 -215.166 -76.5 -281.499s-123.167 -99.5 -216.5 -99.5c-92 0 -163.5 33.167 -214.5 99.5s-76.5 160.166 -76.5 281.499zM280.999 -25.0039l911 1461h119l-914 -1461h-116zM220.999 1044
c0 -113.333 10.167 -195.5 30.5 -246.5s52.5 -76.5 96.5 -76.5c46 0 79.333 25.333 100 76s31 134 31 250c0 102 -10.333 177.333 -31 226s-52.667 73 -96 73c-45.333 0 -78.5 -24 -99.5 -72s-31.5 -124.667 -31.5 -230zM58.999 1032c0 121.333 25.5 215.166 76.5 281.499
s122.5 99.5 214.5 99.5c92.667 0 164.334 -33 215.001 -99s76 -160 76 -282s-25.333 -216 -76 -282s-122.334 -99 -215.001 -99c-92 0 -163.5 33.333 -214.5 100s-76.5 160.334 -76.5 281.001z" />
    <glyph glyph-name="guilsinglleft" unicode="&#x2039;" horiz-adv-x="578" 
d="M346 96c-33.333 68 -71.1699 135.169 -113.503 201.502s-88.5 131.166 -138.5 194.499c50.667 60 96.834 122 138.501 186s79.5 131 113.5 201h137c-27.333 -73.333 -59.666 -142 -96.999 -206s-80 -124.333 -128 -181c42.667 -58 82.834 -119.833 120.501 -185.5
s72.5 -135.834 104.5 -210.501h-137z" />
    <glyph glyph-name="guilsinglright" unicode="&#x203a;" horiz-adv-x="578" 
d="M229 96l-137 0.000976562c31.333 72 66 141.167 104 207.5s79 129.166 123 188.499c-48.667 58 -91.834 119.167 -129.501 183.5s-70.167 132.166 -97.5 203.499h137c34 -70 71.833 -137 113.5 -201s87.834 -126 138.501 -186c-50 -63.333 -96 -128.166 -138 -194.499
s-80 -133.5 -114 -201.5z" />
    <glyph glyph-name="franc" unicode="&#x20a3;" horiz-adv-x="2152" 
d="M541 317c0 -86 13.501 -143.001 40.501 -171.001s80.167 -46.667 159.5 -56v-90h-632v90c79.333 9.33301 132.5 28 159.5 56s40.5 85 40.5 171v826c0 86 -13.5 143 -40.5 171s-80.167 46.667 -159.5 56v80h1189l31 -334h-92c-24.667 92 -65.5 156.333 -122.5 193
s-148.5 55 -274.5 55h-250c-19.333 0 -32.333 -3.5 -39 -10.5s-10 -21.833 -10 -44.5v-498h268c82.667 0 140.167 13.833 172.5 41.5s51.166 77.834 56.499 150.501l80 1v-504h-80c-4 78 -28.167 133.667 -72.5 167s-118.5 50 -222.5 50h-202v-400zM1418 -0.000976562
l-0.00390625 89.999c54.667 0 92.834 14 114.501 42s32.5 80.333 32.5 157v477l-141 65v56l274 90h51v-166c50.667 58 95 100.833 133 128.5s71.667 41.5 101 41.5c38.667 0 73.834 -13.5 105.501 -40.5s47.5 -57.833 47.5 -92.5c0 -31.333 -10.833 -61.666 -32.5 -90.999
s-42.167 -44 -61.5 -44c-14.667 0 -36 17.667 -64 53s-51.667 53 -71 53c-25.333 0 -51.666 -12 -78.999 -36s-53.666 -58.333 -78.999 -103v-426c0 -58.667 12 -101 36 -127s62.667 -39 116 -39c4 0 9.83301 0.333008 17.5 1s13.5 1 17.5 1v-90h-518z" />
    <glyph glyph-name="trademark" unicode="&#x2122;" horiz-adv-x="1683" 
d="M788 1438l183 0.00390625l141 -400l148 400h174v-25l-30 -2c-14.667 -1.33301 -26 -6.5 -34 -15.5s-12 -21.5 -12 -37.5v-373c0 -16 4 -28.5 12 -37.5s19.333 -14.167 34 -15.5l30 -2v-27h-236v27l31 2c14 1.33301 25 6.66602 33 15.999s12 21.666 12 36.999v395
l-178 -479h-15l-174 479v-395c0 -15.333 4.16699 -27.666 12.5 -36.999s19.833 -14.666 34.5 -15.999l31 -2v-27h-197v27l34 2c14 1.33301 24.833 6.66602 32.5 15.999s11.5 21.666 11.5 36.999v371c0 15.333 -4.16699 27.666 -12.5 36.999s-19.833 14.666 -34.5 15.999
l-31 2v27zM256 1438l440.001 -0.00292969l11 -178h-25c-5.33301 52.667 -18.833 91 -40.5 115s-53.834 36 -96.501 36h-21v-426c0 -15.333 4 -27.666 12 -36.999s19 -14.666 33 -15.999l31 -2v-27h-248v27l31 2c14 0.666992 25 5.83398 33 15.501s12 22.167 12 37.5v426h-20
c-42.667 0 -75 -12 -97 -36s-35.667 -62.333 -41 -115h-26z" />
    <glyph glyph-name="partialdiff" unicode="&#x2202;" horiz-adv-x="1044" 
d="M754 604c8.66699 54 15.1699 107.833 19.5029 161.5s6.5 106.5 6.5 158.5c0 93.333 -13.167 165.5 -39.5 216.5s-63.5 76.5 -111.5 76.5c-35.333 0 -74.333 -21.167 -117 -63.5s-79 -63.5 -109 -63.5c-19.333 0 -36.333 7.16699 -51 21.5s-22 31.5 -22 51.5
c0 39.333 22.667 74.5 68 105.5s99.666 46.5 162.999 46.5c114 0 205 -50.833 273 -152.5s102 -239.167 102 -412.5c0 -223.333 -46.333 -408.333 -139 -555s-207.334 -220 -344.001 -220c-98 0 -178.5 35.5 -241.5 106.5s-94.5 161.833 -94.5 272.5
c0 126 36.167 231.333 108.5 316s161.166 127 266.499 127c66 0 120.167 -15.667 162.5 -47s75.5 -80 99.5 -146zM709.003 483c0 78 -15 138.168 -45 180.501s-72.333 63.5 -127 63.5c-75.333 0 -136.833 -42.5 -184.5 -127.5s-71.5 -196.167 -71.5 -333.5
c0 -78 14.667 -137.333 44 -178s72 -61 128 -61c74 0 135.167 42.667 183.5 128s72.5 194.666 72.5 327.999z" />
    <glyph glyph-name="Delta" unicode="&#x2206;" horiz-adv-x="1208" 
d="M555 1212l-389 -1042h768zM596 1497h29l555 -1497h-1151z" />
    <glyph glyph-name="product" unicode="&#x220f;" horiz-adv-x="1595" 
d="M57 1473h1479v-70h-186v-1727h186v-69h-555v69h197v1727h-762v-1727h196v-69h-555v69h187v1727h-187v70z" />
    <glyph glyph-name="summation" unicode="&#x2211;" horiz-adv-x="1434" 
d="M12 1473h1135l98 -340h-74l-67 219c-5.33301 18 -16 31 -32 39s-40.333 12 -73 12h-741l864 -850v-37l-858 -756h893c40 0 65.833 4.33301 77.5 13s21.5 25.667 29.5 51l71 229h74l-135 -446h-1260v28l959 838l-961 950v50z" />
    <glyph glyph-name="minus" unicode="&#x2212;" horiz-adv-x="1706" 
d="M254 670h1198v-119h-1198v119z" />
    <glyph glyph-name="fraction" unicode="&#x2215;" horiz-adv-x="342" 
d="M-344 -25l911 1461h119l-913 -1461h-117z" />
    <glyph glyph-name="periodcentered" unicode="&#x2219;" horiz-adv-x="510" 
d="M125 707c0 36.667 12.667 67.6689 38 93.002s56.333 38 93 38s67.667 -12.667 93 -38s38 -56.333 38 -93s-12.833 -67.834 -38.5 -93.501s-56.5 -38.5 -92.5 -38.5c-36.667 0 -67.667 12.667 -93 38s-38 56.666 -38 93.999z" />
    <glyph glyph-name="radical" unicode="&#x221a;" horiz-adv-x="1288" 
d="M1106 1647h182v-82h-119l-594 -1606h-53l-323 893l-119 -43l-23 68l262 92l265 -729z" />
    <glyph glyph-name="infinity" unicode="&#x221e;" horiz-adv-x="1706" 
d="M905 559c34 -63.333 73.6689 -110.5 119.002 -141.5s97.333 -46.5 156 -46.5c68 0 124.167 23.667 168.5 71s66.5 107.666 66.5 180.999c0 72 -20.333 131.833 -61 179.5s-91.334 71.5 -152.001 71.5c-56.667 0 -107.834 -24.167 -153.501 -72.5
s-93.5 -129.166 -143.5 -242.499zM803.002 666c-34 63.333 -73.6699 110.833 -119.003 142.5s-96.666 47.5 -153.999 47.5c-70 0 -127 -23.667 -171 -71s-66 -108.333 -66 -183c0 -72 20.333 -131.667 61 -179s91.334 -71 152.001 -71c56.667 0 107.334 23 152.001 69
s93 127.667 145 245zM865.999 494c-47.333 -92 -96.667 -159.169 -148 -201.502s-109 -63.5 -173 -63.5c-89.333 0 -164.666 36.333 -225.999 109s-92 163.334 -92 272.001c0 114.667 27.5 207.167 82.5 277.5s126.5 105.5 214.5 105.5c64.667 0 122 -21 172 -63
s98 -109.667 144 -203c44.667 92 93.334 160 146.001 204s111 66 175 66c89.333 0 164.666 -36.167 225.999 -108.5s92 -163.166 92 -272.499c0 -114 -27.333 -206.333 -82 -277s-125.667 -106 -213 -106c-64 0 -120.333 20 -169 60s-98.334 107 -149.001 201z" />
    <glyph glyph-name="integral" unicode="&#x222b;" horiz-adv-x="1020" 
d="M301 -268c68.667 0 107.33 221.335 115.997 664.002c2 94 3.66699 166 5 216c8 335.333 42 575.166 102 719.499s153.667 216.5 281 216.5c50.667 0 91.334 -13 122.001 -39s46 -60.667 46 -104c0 -32 -10.333 -57.833 -31 -77.5s-48 -29.5 -82 -29.5
c-35.333 0 -63.666 11.667 -84.999 35s-32 54 -32 92c0 5.33301 -2 10.5 -6 15.5s-8.66699 7.5 -14 7.5c-70 0 -109.667 -211.333 -119 -634c-2 -104.667 -4 -186.334 -6 -245.001c-6.66699 -205.333 -17.167 -359 -31.5 -461s-35.166 -184.333 -62.499 -247
c-32.667 -76 -73.667 -133.667 -123 -173s-105.333 -59 -168 -59c-48.667 0 -88.5 12.667 -119.5 38s-46.5 57.666 -46.5 96.999c0 35.333 10.5 63.333 31.5 84s48.833 31 83.5 31c31.333 0 57.833 -9.66699 79.5 -29s32.5 -41.666 32.5 -66.999c0 -16 2.5 -28.5 7.5 -37.5
s11.5 -13.5 19.5 -13.5z" />
    <glyph glyph-name="approxequal" unicode="&#x2248;" horiz-adv-x="1706" 
d="M1530 584l-0.00292969 -130.998c-71.333 -50 -138.666 -86.833 -201.999 -110.5s-125.666 -35.5 -186.999 -35.5c-65.333 0 -161.333 23.167 -288 69.5s-223.334 69.5 -290.001 69.5c-54.667 0 -111.167 -11.833 -169.5 -35.5s-130.166 -64.834 -215.499 -123.501v131
c72 49.333 139.833 86.166 203.5 110.499s124.834 36.5 183.501 36.5c74 0 174.5 -23.167 301.5 -69.5s219.167 -69.5 276.5 -69.5c56.667 0 114.5 11.833 173.5 35.5s130.167 64.5 213.5 122.5zM1530 934.002l0.000976562 -130.998
c-69.333 -48.667 -136 -84.834 -200 -108.501s-126.333 -35.5 -187 -35.5c-66.667 0 -163.334 23 -290.001 69s-223.334 69 -290.001 69c-55.333 0 -112.5 -12 -171.5 -36s-130.167 -64.667 -213.5 -122v131c70.667 48.667 138 85 202 109s125.667 36 185 36
c74 0 174.167 -22.833 300.5 -68.5s218.833 -68.5 277.5 -68.5c58 0 116.333 11.667 175 35s129.334 63.666 212.001 120.999z" />
    <glyph glyph-name="notequal" unicode="&#x2260;" horiz-adv-x="1706" 
d="M1210 1180l88 -70l-196 -250h350v-115h-424l-211 -270h635v-115h-709l-251 -319l-89 70l197 249h-346v115h420l211 270h-631v115h704z" />
    <glyph glyph-name="lessequal" unicode="&#x2264;" horiz-adv-x="1706" 
d="M262 150h1182v-117h-1182v117zM1444 1192v-125l-977 -324l977 -323v-125l-1182 399v101z" />
    <glyph glyph-name="greaterequal" unicode="&#x2265;" horiz-adv-x="1706" 
d="M262 150h1182v-117h-1182v117zM262 1192l1182 -397v-101l-1182 -399v125l979 323l-979 324v125z" />
    <glyph glyph-name="lozenge" unicode="&#x25ca;" horiz-adv-x="1012" 
d="M506 1409l-385 -817l385 -825l385 825zM506 1653l500 -1061l-500 -1069l-500 1069z" />
    <glyph glyph-name="apple" unicode="&#xf000;" horiz-adv-x="1618" 
d="M836 1216c-0.666992 4 -1.16699 8.66895 -1.5 14.002s-0.5 13 -0.5 23c0 82.667 31.667 159.167 95 229.5s142 114.166 236 131.499c0.666992 -6.66699 1.16699 -14.334 1.5 -23.001s0.5 -21.667 0.5 -39c0 -87.333 -34.5 -165.5 -103.5 -234.5
s-136.833 -103.5 -203.5 -103.5h-8c-2 0 -4.5 0.333008 -7.5 1s-5.83301 1 -8.5 1zM1505 403.002c-76 -164.667 -144.336 -278.834 -205.003 -342.501s-128.667 -95.5 -204 -95.5c-33.333 0 -77.166 11 -131.499 33s-95.166 33 -122.499 33c-30 0 -73.667 -11 -131 -33
s-99.666 -33 -126.999 -33c-42.667 0 -85.5 14.667 -128.5 44s-86.167 73.333 -129.5 132c-68 93.333 -120.5 191.833 -157.5 295.5s-55.5 203.834 -55.5 300.501c0 146 41.667 264.833 125 356.5s191 137.5 323 137.5c45.333 0 97 -11.333 155 -34s99.333 -34 124 -34
c22.667 0 63.167 11.667 121.5 35s109.166 35 152.499 35c73.333 0 139.333 -13.333 198 -40s112.334 -68 161.001 -124c-68 -43.333 -118.5 -91.833 -151.5 -145.5s-49.5 -114.5 -49.5 -182.5c0 -75.333 20 -142 60 -200s97.667 -104 173 -138z" />
    <glyph glyph-name="fi" unicode="&#xf001;" horiz-adv-x="1202" 
d="M72 0v90.001c61.333 5.33301 103.5 21.833 126.5 49.5s34.5 88.5 34.5 182.5v546h-161v90h161v19c0 163.333 39.833 291.166 119.5 383.499s189.5 138.5 329.5 138.5c86 0 157.667 -15.667 215 -47s86 -69.666 86 -114.999c0 -26 -9.5 -47.833 -28.5 -65.5
s-42.833 -26.5 -71.5 -26.5c-21.333 0 -49.666 19 -84.999 57c-8 8.66699 -14 15 -18 19c-30 31.333 -55 52.166 -75 62.499s-42.667 15.5 -68 15.5c-74 0 -128.667 -31.5 -164 -94.5s-53 -159.833 -53 -290.5v-56h315l209 19h51v-725c0 -60 9.83301 -102 29.5 -126
s53.5 -36 101.5 -36h7v-90h-476l1 90c60.667 1.33301 101 12.833 121 34.5s30 69.5 30 143.5v529c0 34.667 -3.16699 55.167 -9.5 61.5s-27.833 9.5 -64.5 9.5h-315v-604c0 -68 10.167 -114 30.5 -138s57.166 -36 110.499 -36h14v-90h-503z" />
    <glyph glyph-name="fl" unicode="&#xf002;" horiz-adv-x="1202" 
d="M72 0l0.000976562 90.001c61.333 5.33301 103.5 21.833 126.5 49.5s34.5 88.5 34.5 182.5v540h-161v96h161v13c0 164.667 38.5 293.167 115.5 385.5s183.5 138.5 319.5 138.5c18 0 39.167 -1.83301 63.5 -5.5s52.166 -9.16699 83.499 -16.5l127 24h53v-1245
c0 -60.667 9.83301 -102.834 29.5 -126.501s53.5 -35.5 101.5 -35.5h7v-90h-476l1 90c60.667 1.33301 101.334 13.333 122.001 36s31 70 31 142v594h-391v-598c0 -68 10.167 -114 30.5 -138s57.166 -36 110.499 -36h14v-90h-503zM811.001 1274c-28 44 -55.5 75.5 -82.5 94.5
s-57.5 28.5 -91.5 28.5c-73.333 0 -127.833 -31.5 -163.5 -94.5s-53.5 -159.167 -53.5 -288.5v-56h391v316z" />
    <glyph glyph-name=".null" horiz-adv-x="0" 
 />
    <glyph glyph-name="nonmarkingreturn" horiz-adv-x="510" 
 />
    </font>
</defs>
</svg>
